{"glyphs":{"0":{"ha":946,"x_min":21,"x_max":925,"o":"m 454 10 q 226 66 324 10 q 74 226 128 122 q 21 471 21 329 q 77 732 21 619 q 235 907 133 844 q 474 969 336 969 q 713 910 611 969 q 869 746 814 851 q 925 500 925 640 q 867 239 925 349 q 703 69 808 129 q 454 10 597 10 m 478 293 q 585 343 544 293 q 625 494 625 393 q 585 636 625 590 q 478 682 544 682 q 371 636 411 682 q 331 494 331 590 q 371 343 331 393 q 478 293 411 293 z "},"1":{"ha":543,"x_min":7,"x_max":508,"o":"m 322 961 q 408 937 374 961 q 465 853 443 913 q 497 716 485 803 q 508 506 508 629 q 500 349 508 428 q 479 203 492 269 q 451 100 467 138 q 396 11 426 38 q 321 -15 365 -15 q 237 12 269 -15 q 189 101 204 39 q 175 186 179 138 q 171 290 171 235 q 185 472 171 376 q 225 653 200 568 q 99 594 161 594 q 31 622 56 594 q 7 697 7 649 q 35 790 7 743 q 110 875 64 836 q 213 938 157 914 q 322 961 268 961 z "},"2":{"ha":747,"x_min":21,"x_max":726,"o":"m 374 954 q 639 878 551 954 q 726 681 726 803 q 642 463 726 558 q 389 288 557 368 q 621 249 551 289 q 690 132 690 208 q 640 21 690 60 q 490 -18 590 -18 q 378 -14 440 -18 q 253 -1 315 -10 q 138 22 190 8 q 48 74 75 40 q 21 167 21 107 q 44 251 21 213 q 117 329 68 289 q 243 421 167 369 q 392 528 346 490 q 439 606 439 567 q 344 661 439 661 q 252 649 300 661 q 144 636 204 636 q 56 664 86 636 q 26 742 26 692 q 69 847 26 799 q 191 925 113 896 q 374 954 269 954 z "},"3":{"ha":760,"x_min":19,"x_max":732,"o":"m 388 968 q 563 940 486 968 q 683 856 639 913 q 726 715 726 800 q 676 567 726 633 q 521 467 625 501 q 680 393 628 449 q 732 256 732 338 q 688 117 732 179 q 558 20 644 56 q 342 -15 472 -15 q 149 8 219 -15 q 49 70 78 31 q 19 158 19 110 q 51 246 19 211 q 140 281 82 281 q 230 268 181 281 q 319 256 279 256 q 385 269 363 256 q 408 304 408 283 q 385 342 408 328 q 289 371 363 357 q 202 400 231 382 q 174 454 174 418 q 206 519 174 494 q 297 564 238 544 q 384 603 357 583 q 411 647 411 624 q 335 689 411 689 q 242 676 288 689 q 144 664 196 664 q 56 692 86 664 q 26 769 26 719 q 72 867 26 822 q 199 940 117 913 q 388 968 281 968 z "},"4":{"ha":840,"x_min":7,"x_max":833,"o":"m 472 -25 q 358 7 396 -25 q 319 99 319 39 q 351 211 319 150 q 267 192 314 199 q 172 185 219 185 q 47 227 88 185 q 7 350 7 269 q 26 476 7 404 q 78 624 46 549 q 147 761 110 700 q 295 931 215 872 q 493 989 375 989 q 665 933 614 989 q 715 774 715 878 q 702 633 715 713 q 664 472 689 554 q 706 478 685 478 q 833 344 833 478 q 794 241 833 276 q 692 206 756 206 q 635 213 663 206 q 647 171 642 194 q 651 125 651 147 q 605 13 651 51 q 472 -25 558 -25 m 281 440 q 380 503 342 440 q 418 667 418 565 q 379 738 418 738 q 307 703 342 738 q 250 617 272 668 q 228 514 228 565 q 242 458 228 475 q 281 440 257 440 z "},"5":{"ha":747,"x_min":19,"x_max":719,"o":"m 719 793 q 676 688 719 729 q 551 647 632 647 q 442 653 506 647 q 321 668 378 658 q 303 553 315 606 q 365 556 333 556 q 631 482 543 556 q 718 283 718 408 q 676 131 718 199 q 551 24 635 64 q 342 -15 467 -15 q 149 8 219 -15 q 49 70 78 31 q 19 158 19 110 q 55 246 19 211 q 154 281 90 281 q 244 268 194 281 q 333 256 293 256 q 400 272 378 256 q 422 310 422 288 q 390 357 422 342 q 300 372 358 372 q 234 371 269 372 q 178 369 199 369 q 90 394 118 369 q 63 482 63 418 q 67 596 63 529 q 78 727 71 663 q 92 833 85 792 q 133 926 103 894 q 228 958 164 958 q 338 956 276 958 q 461 950 400 954 q 568 938 522 946 q 719 793 719 913 z "},"6":{"ha":817,"x_min":14,"x_max":803,"o":"m 738 831 q 665 697 738 760 q 444 588 593 635 q 457 588 451 588 q 648 549 571 588 q 764 446 725 511 q 803 297 803 381 q 751 128 803 199 q 610 22 699 58 q 408 -14 521 -14 q 185 26 272 -14 q 56 135 97 65 q 14 296 14 204 q 38 461 14 385 q 110 614 61 538 q 236 776 160 690 q 363 897 306 853 q 472 959 419 940 q 581 978 525 978 q 695 938 653 978 q 738 831 738 897 m 422 396 q 319 373 356 396 q 283 314 283 350 q 317 266 283 283 q 408 249 351 249 q 503 272 469 249 q 538 332 538 296 q 506 379 538 363 q 422 396 474 396 z "},"7":{"ha":722,"x_min":7,"x_max":715,"o":"m 225 960 q 383 958 296 960 q 550 946 469 956 q 672 905 628 938 q 715 806 715 872 q 697 703 715 775 q 636 524 679 631 q 531 276 578 378 q 439 109 483 174 q 344 15 394 44 q 229 -15 294 -15 q 137 19 171 -15 q 103 124 103 54 q 116 198 103 153 q 156 294 129 243 q 263 462 196 369 q 411 642 331 554 q 301 633 357 636 q 201 631 246 629 q 7 783 7 635 q 65 917 7 874 q 225 960 124 960 z "},"8":{"ha":876,"x_min":28,"x_max":849,"o":"m 449 979 q 738 910 640 979 q 836 710 836 840 q 801 572 836 631 q 707 475 765 513 q 811 396 774 449 q 849 263 849 343 q 741 58 849 131 q 397 -15 633 -15 q 180 17 261 -15 q 63 106 99 49 q 28 236 28 163 q 167 461 28 390 q 83 538 114 486 q 51 665 51 590 q 104 840 51 771 q 247 944 157 910 q 449 979 336 979 m 561 653 q 526 703 561 688 q 442 718 490 718 q 336 697 374 718 q 299 642 299 676 q 326 593 299 611 q 417 575 353 575 q 524 594 486 575 q 561 653 561 613 m 443 389 q 333 365 369 389 q 296 308 296 340 q 330 256 296 272 q 429 240 364 240 q 542 263 507 240 q 576 319 576 285 q 549 370 576 351 q 443 389 521 389 z "},"9":{"ha":831,"x_min":14,"x_max":817,"o":"m 38 157 q 85 256 38 218 q 217 294 132 294 q 293 292 250 294 q 363 290 336 290 q 479 322 447 290 q 511 401 511 354 q 511 408 511 406 q 428 384 471 392 q 346 376 385 376 q 163 413 236 376 q 51 512 89 449 q 14 653 14 575 q 60 830 14 757 q 190 940 107 903 q 381 978 272 978 q 700 857 583 978 q 817 515 817 736 q 783 305 817 399 q 697 144 750 211 q 530 23 629 60 q 319 -14 431 -14 q 108 32 178 -14 q 38 157 38 78 m 406 715 q 310 693 347 715 q 272 631 272 671 q 306 576 272 597 q 399 554 339 554 q 492 578 457 554 q 526 640 526 601 q 494 694 526 672 q 406 715 463 715 z "},"A":{"ha":896,"x_min":21,"x_max":875,"o":"m 183 -10 q 63 37 104 -10 q 21 204 21 83 q 33 327 21 256 q 65 479 44 399 q 113 641 86 560 q 172 792 140 722 q 263 935 215 885 q 363 1006 310 986 q 474 1026 415 1026 q 638 976 564 1026 q 764 799 713 926 q 819 633 793 726 q 860 435 844 539 q 875 226 875 331 q 824 47 875 104 q 679 -10 772 -10 q 556 32 601 -10 q 500 171 510 74 q 496 240 497 204 q 494 311 494 275 q 403 313 450 308 q 393 240 399 275 q 382 175 388 206 q 322 37 369 83 q 183 -10 274 -10 m 465 526 q 555 555 522 526 q 588 628 588 583 q 573 681 588 654 q 532 727 558 708 q 468 746 506 746 q 404 726 432 746 q 361 676 376 706 q 346 617 346 647 q 378 552 346 578 q 465 526 411 526 z "},"Á":{"ha":896,"x_min":21,"x_max":875,"o":"m 183 -10 q 63 37 104 -10 q 21 204 21 83 q 33 327 21 256 q 65 479 44 399 q 113 641 86 560 q 172 792 140 722 q 263 935 215 885 q 363 1006 310 986 q 474 1026 415 1026 q 638 976 564 1026 q 764 799 713 926 q 819 633 793 726 q 860 435 844 539 q 875 226 875 331 q 824 47 875 104 q 679 -10 772 -10 q 556 32 601 -10 q 500 171 510 74 q 496 240 497 204 q 494 311 494 275 q 403 313 450 308 q 393 240 399 275 q 382 175 388 206 q 322 37 369 83 q 183 -10 274 -10 m 465 526 q 555 555 522 526 q 588 628 588 583 q 573 681 588 654 q 532 727 558 708 q 468 746 506 746 q 404 726 432 746 q 361 676 376 706 q 346 617 346 647 q 378 552 346 578 q 465 526 411 526 m 346 1092 q 381 1144 346 1115 q 472 1206 417 1172 q 563 1251 521 1231 q 642 1271 606 1271 q 697 1249 674 1271 q 733 1199 719 1228 q 746 1146 746 1169 q 720 1099 746 1117 q 638 1068 694 1081 q 552 1055 599 1060 q 463 1048 506 1050 q 394 1046 421 1046 q 359 1060 372 1046 q 346 1092 346 1074 z "},"Ă":{"ha":896,"x_min":21,"x_max":875,"o":"m 183 -10 q 63 37 104 -10 q 21 204 21 83 q 33 327 21 256 q 65 479 44 399 q 113 641 86 560 q 172 792 140 722 q 263 935 215 885 q 363 1006 310 986 q 474 1026 415 1026 q 638 976 564 1026 q 764 799 713 926 q 819 633 793 726 q 860 435 844 539 q 875 226 875 331 q 824 47 875 104 q 679 -10 772 -10 q 556 32 601 -10 q 500 171 510 74 q 496 240 497 204 q 494 311 494 275 q 403 313 450 308 q 393 240 399 275 q 382 175 388 206 q 322 37 369 83 q 183 -10 274 -10 m 465 526 q 555 555 522 526 q 588 628 588 583 q 573 681 588 654 q 532 727 558 708 q 468 746 506 746 q 404 726 432 746 q 361 676 376 706 q 346 617 346 647 q 378 552 346 578 q 465 526 411 526 m 490 1047 q 331 1094 389 1047 q 274 1206 274 1142 q 346 1276 274 1276 q 428 1210 413 1276 q 447 1167 435 1181 q 489 1153 460 1153 q 528 1165 515 1153 q 546 1201 540 1176 q 576 1267 557 1243 q 635 1290 596 1290 q 689 1269 671 1290 q 707 1213 707 1249 q 651 1097 707 1147 q 490 1047 594 1047 z "},"Ǎ":{"ha":896,"x_min":21,"x_max":875,"o":"m 183 -10 q 63 37 104 -10 q 21 204 21 83 q 33 327 21 256 q 65 479 44 399 q 113 641 86 560 q 172 792 140 722 q 263 935 215 885 q 363 1006 310 986 q 474 1026 415 1026 q 638 976 564 1026 q 764 799 713 926 q 819 633 793 726 q 860 435 844 539 q 875 226 875 331 q 824 47 875 104 q 679 -10 772 -10 q 556 32 601 -10 q 500 171 510 74 q 496 240 497 204 q 494 311 494 275 q 403 313 450 308 q 393 240 399 275 q 382 175 388 206 q 322 37 369 83 q 183 -10 274 -10 m 465 526 q 555 555 522 526 q 588 628 588 583 q 573 681 588 654 q 532 727 558 708 q 468 746 506 746 q 404 726 432 746 q 361 676 376 706 q 346 617 346 647 q 378 552 346 578 q 465 526 411 526 m 496 1053 q 424 1071 464 1053 q 343 1111 383 1089 q 265 1170 296 1142 q 235 1229 235 1199 q 257 1283 235 1261 q 314 1306 279 1306 q 390 1274 346 1306 q 481 1171 435 1242 q 555 1265 513 1231 q 635 1299 597 1299 q 714 1272 682 1299 q 746 1201 746 1246 q 717 1149 746 1172 q 640 1100 689 1125 q 560 1066 600 1079 q 496 1053 519 1053 z "},"Â":{"ha":896,"x_min":21,"x_max":875,"o":"m 183 -10 q 63 37 104 -10 q 21 204 21 83 q 33 327 21 256 q 65 479 44 399 q 113 641 86 560 q 172 792 140 722 q 263 935 215 885 q 363 1006 310 986 q 474 1026 415 1026 q 638 976 564 1026 q 764 799 713 926 q 819 633 793 726 q 860 435 844 539 q 875 226 875 331 q 824 47 875 104 q 679 -10 772 -10 q 556 32 601 -10 q 500 171 510 74 q 496 240 497 204 q 494 311 494 275 q 403 313 450 308 q 393 240 399 275 q 382 175 388 206 q 322 37 369 83 q 183 -10 274 -10 m 465 526 q 555 555 522 526 q 588 628 588 583 q 573 681 588 654 q 532 727 558 708 q 468 746 506 746 q 404 726 432 746 q 361 676 376 706 q 346 617 346 647 q 378 552 346 578 q 465 526 411 526 m 496 1292 q 560 1278 519 1292 q 640 1244 600 1265 q 717 1196 689 1219 q 746 1143 746 1172 q 714 1072 746 1099 q 635 1046 682 1046 q 555 1080 597 1046 q 481 1174 513 1114 q 390 1071 435 1103 q 314 1039 346 1039 q 257 1061 279 1039 q 235 1115 235 1083 q 265 1175 235 1147 q 343 1233 296 1203 q 424 1274 383 1257 q 496 1292 464 1292 z "},"Ä":{"ha":896,"x_min":21,"x_max":875,"o":"m 183 -10 q 63 37 104 -10 q 21 204 21 83 q 33 327 21 256 q 65 479 44 399 q 113 641 86 560 q 172 792 140 722 q 263 935 215 885 q 363 1006 310 986 q 474 1026 415 1026 q 638 976 564 1026 q 764 799 713 926 q 819 633 793 726 q 860 435 844 539 q 875 226 875 331 q 824 47 875 104 q 679 -10 772 -10 q 556 32 601 -10 q 500 171 510 74 q 496 240 497 204 q 494 311 494 275 q 403 313 450 308 q 393 240 399 275 q 382 175 388 206 q 322 37 369 83 q 183 -10 274 -10 m 465 526 q 555 555 522 526 q 588 628 588 583 q 573 681 588 654 q 532 727 558 708 q 468 746 506 746 q 404 726 432 746 q 361 676 376 706 q 346 617 346 647 q 378 552 346 578 q 465 526 411 526 m 647 1274 q 745 1240 715 1274 q 775 1161 775 1206 q 738 1076 775 1106 q 633 1047 701 1047 q 538 1080 569 1047 q 506 1157 506 1113 q 544 1244 506 1214 q 647 1274 583 1274 m 328 1040 q 235 1072 264 1040 q 206 1143 206 1103 q 244 1230 206 1200 q 353 1260 283 1260 q 445 1226 415 1260 q 475 1147 475 1193 q 434 1067 475 1094 q 328 1040 393 1040 z "},"À":{"ha":896,"x_min":21,"x_max":875,"o":"m 183 -10 q 63 37 104 -10 q 21 204 21 83 q 33 327 21 256 q 65 479 44 399 q 113 641 86 560 q 172 792 140 722 q 263 935 215 885 q 363 1006 310 986 q 474 1026 415 1026 q 638 976 564 1026 q 764 799 713 926 q 819 633 793 726 q 860 435 844 539 q 875 226 875 331 q 824 47 875 104 q 679 -10 772 -10 q 556 32 601 -10 q 500 171 510 74 q 496 240 497 204 q 494 311 494 275 q 403 313 450 308 q 393 240 399 275 q 382 175 388 206 q 322 37 369 83 q 183 -10 274 -10 m 465 526 q 555 555 522 526 q 588 628 588 583 q 573 681 588 654 q 532 727 558 708 q 468 746 506 746 q 404 726 432 746 q 361 676 376 706 q 346 617 346 647 q 378 552 346 578 q 465 526 411 526 m 635 1092 q 622 1060 635 1074 q 586 1046 610 1046 q 517 1048 560 1046 q 429 1055 475 1050 q 343 1068 383 1060 q 260 1099 286 1081 q 235 1146 235 1117 q 248 1199 235 1169 q 285 1249 261 1228 q 339 1271 308 1271 q 418 1251 375 1271 q 508 1206 461 1231 q 600 1144 565 1172 q 635 1092 635 1115 z "},"Ā":{"ha":896,"x_min":21,"x_max":875,"o":"m 183 -10 q 63 37 104 -10 q 21 204 21 83 q 33 327 21 256 q 65 479 44 399 q 113 641 86 560 q 172 792 140 722 q 263 935 215 885 q 363 1006 310 986 q 474 1026 415 1026 q 638 976 564 1026 q 764 799 713 926 q 819 633 793 726 q 860 435 844 539 q 875 226 875 331 q 824 47 875 104 q 679 -10 772 -10 q 556 32 601 -10 q 500 171 510 74 q 496 240 497 204 q 494 311 494 275 q 403 313 450 308 q 393 240 399 275 q 382 175 388 206 q 322 37 369 83 q 183 -10 274 -10 m 465 526 q 555 555 522 526 q 588 628 588 583 q 573 681 588 654 q 532 727 558 708 q 468 746 506 746 q 404 726 432 746 q 361 676 376 706 q 346 617 346 647 q 378 552 346 578 q 465 526 411 526 m 332 1044 q 236 1069 267 1044 q 206 1133 206 1093 q 234 1195 206 1172 q 328 1233 263 1218 q 427 1251 372 1244 q 538 1260 482 1257 q 642 1263 594 1263 q 744 1238 714 1263 q 775 1169 775 1213 q 746 1105 775 1129 q 663 1069 717 1081 q 557 1056 618 1063 q 436 1047 496 1050 q 332 1044 376 1044 z "},"Ą":{"ha":896,"x_min":21,"x_max":875,"o":"m 183 -10 q 63 37 104 -10 q 21 204 21 83 q 33 327 21 256 q 65 479 44 399 q 113 641 86 560 q 172 792 140 722 q 263 935 215 885 q 363 1006 310 986 q 474 1026 415 1026 q 638 976 564 1026 q 764 799 713 926 q 819 633 793 726 q 860 435 844 539 q 875 226 875 331 q 824 47 875 104 q 679 -10 772 -10 q 556 32 601 -10 q 500 171 510 74 q 496 240 497 204 q 494 311 494 275 q 403 313 450 308 q 393 240 399 275 q 382 175 388 206 q 322 37 369 83 q 183 -10 274 -10 m 465 526 q 555 555 522 526 q 588 628 588 583 q 573 681 588 654 q 532 727 558 708 q 468 746 506 746 q 404 726 432 746 q 361 676 376 706 q 346 617 346 647 q 378 552 346 578 q 465 526 411 526 m 672 -293 q 534 -261 589 -293 q 479 -167 479 -229 q 524 -58 479 -106 q 671 39 568 -10 l 807 42 q 716 -43 750 1 q 682 -111 682 -87 q 701 -128 682 -128 q 728 -125 713 -128 q 758 -122 743 -122 q 810 -140 793 -122 q 826 -190 826 -158 q 786 -267 826 -242 q 672 -293 746 -293 z "},"Å":{"ha":896,"x_min":21,"x_max":875,"o":"m 183 -10 q 63 37 104 -10 q 21 204 21 83 q 33 327 21 256 q 65 479 44 399 q 113 641 86 560 q 172 792 140 722 q 263 935 215 885 q 363 1006 310 986 q 474 1026 415 1026 q 638 976 564 1026 q 764 799 713 926 q 819 633 793 726 q 860 435 844 539 q 875 226 875 331 q 824 47 875 104 q 679 -10 772 -10 q 556 32 601 -10 q 500 171 510 74 q 496 240 497 204 q 494 311 494 275 q 403 313 450 308 q 393 240 399 275 q 382 175 388 206 q 322 37 369 83 q 183 -10 274 -10 m 465 526 q 555 555 522 526 q 588 628 588 583 q 573 681 588 654 q 532 727 558 708 q 468 746 506 746 q 404 726 432 746 q 361 676 376 706 q 346 617 346 647 q 378 552 346 578 q 465 526 411 526 m 488 1043 q 354 1073 407 1043 q 301 1165 301 1103 q 353 1270 301 1229 q 504 1311 406 1311 q 636 1273 594 1311 q 678 1182 678 1235 q 627 1082 678 1121 q 488 1043 576 1043 m 479 1128 q 550 1140 521 1128 q 579 1176 579 1153 q 558 1215 579 1200 q 490 1229 536 1229 q 422 1212 444 1229 q 400 1175 400 1194 q 422 1141 400 1154 q 479 1128 444 1128 z "},"Ã":{"ha":896,"x_min":21,"x_max":875,"o":"m 183 -10 q 63 37 104 -10 q 21 204 21 83 q 33 327 21 256 q 65 479 44 399 q 113 641 86 560 q 172 792 140 722 q 263 935 215 885 q 363 1006 310 986 q 474 1026 415 1026 q 638 976 564 1026 q 764 799 713 926 q 819 633 793 726 q 860 435 844 539 q 875 226 875 331 q 824 47 875 104 q 679 -10 772 -10 q 556 32 601 -10 q 500 171 510 74 q 496 240 497 204 q 494 311 494 275 q 403 313 450 308 q 393 240 399 275 q 382 175 388 206 q 322 37 369 83 q 183 -10 274 -10 m 465 526 q 555 555 522 526 q 588 628 588 583 q 573 681 588 654 q 532 727 558 708 q 468 746 506 746 q 404 726 432 746 q 361 676 376 706 q 346 617 346 647 q 378 552 346 578 q 465 526 411 526 m 399 1256 q 578 1185 503 1256 q 603 1188 596 1168 q 635 1255 614 1233 q 694 1276 656 1276 q 767 1206 767 1276 q 748 1140 767 1178 q 690 1075 729 1103 q 588 1047 651 1047 q 492 1072 532 1047 q 415 1140 451 1096 q 386 1129 394 1168 q 354 1059 376 1081 q 292 1038 332 1038 q 235 1060 257 1038 q 213 1113 213 1082 q 237 1183 213 1150 q 303 1235 261 1215 q 399 1256 344 1256 z "},"Æ":{"ha":1282,"x_min":21,"x_max":1268,"o":"m 183 -10 q 63 37 104 -10 q 21 204 21 83 q 33 327 21 256 q 65 479 44 399 q 113 641 86 560 q 172 792 140 722 q 263 935 215 885 q 363 1006 310 986 q 474 1026 415 1026 q 574 1010 526 1026 q 663 956 622 993 q 826 1008 729 993 q 1032 1022 924 1022 q 1215 981 1163 1022 q 1268 863 1268 940 q 1206 742 1268 782 q 1015 703 1144 703 q 924 705 975 703 q 815 711 872 707 q 818 607 833 663 q 929 624 867 617 q 1043 631 992 631 q 1191 599 1149 631 q 1233 519 1233 567 q 1185 433 1233 468 q 1019 397 1138 397 q 819 413 926 397 q 826 353 828 386 q 813 293 825 319 q 938 316 867 307 q 1069 325 1008 325 q 1217 292 1168 325 q 1265 183 1265 258 q 1247 103 1265 135 q 1182 47 1228 71 q 1091 17 1146 29 q 974 -2 1036 4 q 853 -8 913 -8 q 568 97 632 -8 q 537 175 549 131 q 519 285 525 219 q 400 285 463 279 q 392 228 396 256 q 382 175 388 200 q 322 37 369 83 q 183 -10 274 -10 m 451 499 q 531 527 501 499 q 560 600 560 556 q 547 679 560 639 q 511 747 535 719 q 454 774 488 774 q 397 745 422 774 q 359 674 372 717 q 346 589 346 632 q 375 524 346 550 q 451 499 404 499 z "},"B":{"ha":893,"x_min":35,"x_max":867,"o":"m 349 -7 q 170 25 238 -7 q 72 129 103 57 q 44 242 53 176 q 35 396 35 308 q 59 709 35 592 q 129 894 83 826 q 258 991 169 956 q 510 1026 347 1026 q 713 998 636 1026 q 825 921 790 969 q 860 810 860 872 q 801 660 860 718 q 649 569 743 603 l 649 564 q 809 499 751 554 q 867 340 867 444 q 822 201 867 264 q 703 91 778 138 q 537 19 629 44 q 349 -7 444 -7 m 442 636 q 542 661 503 636 q 581 729 581 686 q 549 781 581 761 q 461 801 518 801 q 377 779 410 801 q 344 714 344 757 q 371 656 344 675 q 442 636 397 636 m 442 240 q 544 267 504 240 q 585 339 585 294 q 553 399 585 375 q 457 424 522 424 q 370 398 406 424 q 335 324 335 372 q 442 240 335 240 z "},"C":{"ha":914,"x_min":21,"x_max":907,"o":"m 550 -15 q 254 44 372 -15 q 78 210 136 103 q 21 460 21 317 q 86 737 21 618 q 274 921 151 856 q 571 986 397 986 q 820 922 733 986 q 907 744 907 857 q 862 615 907 663 q 731 567 817 567 q 649 579 683 567 q 579 603 614 592 q 499 615 544 615 q 395 587 439 615 q 351 485 351 558 q 391 392 351 419 q 496 364 431 364 q 571 369 529 364 q 653 378 613 374 q 724 382 694 382 q 841 341 797 382 q 885 218 885 300 q 803 48 885 111 q 550 -15 722 -15 z "},"Ć":{"ha":914,"x_min":21,"x_max":907,"o":"m 550 -15 q 254 44 372 -15 q 78 210 136 103 q 21 460 21 317 q 86 737 21 618 q 274 921 151 856 q 571 986 397 986 q 820 922 733 986 q 907 744 907 857 q 862 615 907 663 q 731 567 817 567 q 649 579 683 567 q 579 603 614 592 q 499 615 544 615 q 395 587 439 615 q 351 485 351 558 q 391 392 351 419 q 496 364 431 364 q 571 369 529 364 q 653 378 613 374 q 724 382 694 382 q 841 341 797 382 q 885 218 885 300 q 803 48 885 111 q 550 -15 722 -15 m 326 1092 q 362 1144 326 1115 q 453 1206 397 1172 q 544 1251 501 1231 q 622 1271 586 1271 q 677 1249 654 1271 q 713 1199 700 1228 q 726 1146 726 1169 q 701 1099 726 1117 q 618 1068 675 1081 q 533 1055 579 1060 q 444 1048 486 1050 q 375 1046 401 1046 q 340 1060 353 1046 q 326 1092 326 1074 z "},"Č":{"ha":914,"x_min":21,"x_max":907,"o":"m 550 -15 q 254 44 372 -15 q 78 210 136 103 q 21 460 21 317 q 86 737 21 618 q 274 921 151 856 q 571 986 397 986 q 820 922 733 986 q 907 744 907 857 q 862 615 907 663 q 731 567 817 567 q 649 579 683 567 q 579 603 614 592 q 499 615 544 615 q 395 587 439 615 q 351 485 351 558 q 391 392 351 419 q 496 364 431 364 q 571 369 529 364 q 653 378 613 374 q 724 382 694 382 q 841 341 797 382 q 885 218 885 300 q 803 48 885 111 q 550 -15 722 -15 m 476 1053 q 404 1071 444 1053 q 324 1111 364 1089 q 246 1170 276 1142 q 215 1229 215 1199 q 238 1283 215 1261 q 294 1306 260 1306 q 371 1274 326 1306 q 461 1171 415 1242 q 535 1265 493 1231 q 615 1299 578 1299 q 694 1272 663 1299 q 726 1201 726 1246 q 698 1149 726 1172 q 621 1100 669 1125 q 540 1066 581 1079 q 476 1053 500 1053 z "},"Ç":{"ha":914,"x_min":21,"x_max":907,"o":"m 550 -15 q 254 44 372 -15 q 78 210 136 103 q 21 460 21 317 q 86 737 21 618 q 274 921 151 856 q 571 986 397 986 q 820 922 733 986 q 907 744 907 857 q 862 615 907 663 q 731 567 817 567 q 649 579 683 567 q 579 603 614 592 q 499 615 544 615 q 395 587 439 615 q 351 485 351 558 q 391 392 351 419 q 496 364 431 364 q 571 369 529 364 q 653 378 613 374 q 724 382 694 382 q 841 341 797 382 q 885 218 885 300 q 803 48 885 111 q 550 -15 722 -15 m 403 -289 q 318 -221 318 -289 q 339 -170 318 -186 q 386 -149 360 -154 q 467 -137 431 -139 q 526 -131 504 -136 q 539 -122 539 -131 q 518 -111 539 -115 q 390 -79 429 -93 q 351 -35 351 -65 q 371 4 351 -7 q 418 15 390 15 q 532 -2 475 15 q 627 -53 589 -19 q 665 -135 665 -86 q 631 -211 665 -176 q 537 -267 596 -246 q 403 -289 478 -289 z "},"Ċ":{"ha":914,"x_min":21,"x_max":907,"o":"m 550 -15 q 254 44 372 -15 q 78 210 136 103 q 21 460 21 317 q 86 737 21 618 q 274 921 151 856 q 571 986 397 986 q 820 922 733 986 q 907 744 907 857 q 862 615 907 663 q 731 567 817 567 q 649 579 683 567 q 579 603 614 592 q 499 615 544 615 q 395 587 439 615 q 351 485 351 558 q 391 392 351 419 q 496 364 431 364 q 571 369 529 364 q 653 378 613 374 q 724 382 694 382 q 841 341 797 382 q 885 218 885 300 q 803 48 885 111 q 550 -15 722 -15 m 485 1315 q 608 1275 571 1315 q 644 1182 644 1235 q 599 1083 644 1118 q 471 1047 553 1047 q 351 1086 390 1047 q 311 1178 311 1125 q 359 1281 311 1246 q 485 1315 407 1315 z "},"D":{"ha":988,"x_min":14,"x_max":967,"o":"m 281 -32 q 131 -15 183 -32 q 58 32 78 1 q 36 103 38 63 q 67 200 35 160 q 182 258 99 240 q 170 406 172 325 q 173 567 168 488 q 188 708 178 647 q 56 744 97 711 q 14 835 14 776 q 94 971 14 921 q 340 1021 174 1021 q 683 960 543 1021 q 894 792 822 900 q 967 542 967 685 q 918 312 967 417 q 778 130 869 207 q 561 10 688 53 q 281 -32 435 -32 m 497 328 q 592 376 553 328 q 632 504 632 424 q 611 607 632 563 q 556 677 590 651 q 482 703 522 703 q 441 669 451 703 q 431 535 431 635 q 444 377 431 426 q 497 328 458 328 z "},"Ð":{"ha":988,"x_min":14,"x_max":967,"o":"m 281 -32 q 131 -15 183 -32 q 58 32 78 1 q 36 103 38 63 q 67 200 35 160 q 182 258 99 240 q 172 369 175 308 q 149 369 160 369 q 65 395 92 369 q 38 465 38 421 q 62 535 38 507 q 146 578 86 564 q 174 583 158 581 q 188 708 178 654 q 56 744 97 711 q 14 835 14 776 q 94 971 14 921 q 340 1021 174 1021 q 683 960 543 1021 q 894 792 822 900 q 967 542 967 685 q 918 312 967 417 q 778 130 869 207 q 561 10 688 53 q 281 -32 435 -32 m 497 328 q 592 376 553 328 q 632 504 632 424 q 611 607 632 563 q 556 677 590 651 q 482 703 522 703 q 447 682 458 703 q 432 603 435 661 q 513 572 489 599 q 536 501 536 544 q 511 431 536 457 q 440 393 486 404 q 497 328 454 328 z "},"Ď":{"ha":988,"x_min":14,"x_max":967,"o":"m 281 -32 q 131 -15 183 -32 q 58 32 78 1 q 36 103 38 63 q 67 200 35 160 q 182 258 99 240 q 170 406 172 325 q 173 567 168 488 q 188 708 178 647 q 56 744 97 711 q 14 835 14 776 q 94 971 14 921 q 340 1021 174 1021 q 683 960 543 1021 q 894 792 822 900 q 967 542 967 685 q 918 312 967 417 q 778 130 869 207 q 561 10 688 53 q 281 -32 435 -32 m 497 328 q 592 376 553 328 q 632 504 632 424 q 611 607 632 563 q 556 677 590 651 q 482 703 522 703 q 441 669 451 703 q 431 535 431 635 q 444 377 431 426 q 497 328 458 328 m 472 1053 q 400 1071 440 1053 q 319 1111 360 1089 q 242 1170 272 1142 q 211 1229 211 1199 q 233 1283 211 1261 q 290 1306 256 1306 q 367 1274 322 1306 q 457 1171 411 1242 q 531 1265 489 1231 q 611 1299 574 1299 q 690 1272 658 1299 q 722 1201 722 1246 q 694 1149 722 1172 q 617 1100 665 1125 q 536 1066 576 1079 q 472 1053 496 1053 z "},"Đ":{"ha":988,"x_min":14,"x_max":967,"o":"m 281 -32 q 131 -15 183 -32 q 58 32 78 1 q 36 103 38 63 q 67 200 35 160 q 182 258 99 240 q 172 369 175 308 q 149 369 160 369 q 65 395 92 369 q 38 465 38 421 q 62 535 38 507 q 146 578 86 564 q 174 583 158 581 q 188 708 178 654 q 56 744 97 711 q 14 835 14 776 q 94 971 14 921 q 340 1021 174 1021 q 683 960 543 1021 q 894 792 822 900 q 967 542 967 685 q 918 312 967 417 q 778 130 869 207 q 561 10 688 53 q 281 -32 435 -32 m 497 328 q 592 376 553 328 q 632 504 632 424 q 611 607 632 563 q 556 677 590 651 q 482 703 522 703 q 447 682 458 703 q 432 603 435 661 q 513 572 489 599 q 536 501 536 544 q 511 431 536 457 q 440 393 486 404 q 497 328 454 328 z "},"E":{"ha":803,"x_min":35,"x_max":789,"o":"m 553 1022 q 736 981 683 1022 q 789 863 789 940 q 727 742 789 782 q 536 703 665 703 q 444 705 496 703 q 336 711 393 707 q 339 607 354 663 q 450 624 388 617 q 564 631 513 631 q 712 599 669 631 q 754 519 754 567 q 706 433 754 468 q 540 397 658 397 q 340 413 447 397 q 347 353 349 386 q 333 293 346 319 q 458 316 388 307 q 590 325 529 325 q 738 292 689 325 q 786 183 786 258 q 767 103 786 135 q 703 47 749 71 q 612 17 667 29 q 495 -2 557 4 q 374 -8 433 -8 q 89 97 153 -8 q 47 228 60 147 q 35 449 35 308 q 44 669 35 582 q 72 810 54 756 q 114 896 90 864 q 217 972 150 944 q 371 1011 283 1000 q 553 1022 458 1022 z "},"É":{"ha":803,"x_min":35,"x_max":789,"o":"m 553 1022 q 736 981 683 1022 q 789 863 789 940 q 727 742 789 782 q 536 703 665 703 q 444 705 496 703 q 336 711 393 707 q 339 607 354 663 q 450 624 388 617 q 564 631 513 631 q 712 599 669 631 q 754 519 754 567 q 706 433 754 468 q 540 397 658 397 q 340 413 447 397 q 347 353 349 386 q 333 293 346 319 q 458 316 388 307 q 590 325 529 325 q 738 292 689 325 q 786 183 786 258 q 767 103 786 135 q 703 47 749 71 q 612 17 667 29 q 495 -2 557 4 q 374 -8 433 -8 q 89 97 153 -8 q 47 228 60 147 q 35 449 35 308 q 44 669 35 582 q 72 810 54 756 q 114 896 90 864 q 217 972 150 944 q 371 1011 283 1000 q 553 1022 458 1022 m 264 1092 q 299 1144 264 1115 q 390 1206 335 1172 q 481 1251 439 1231 q 560 1271 524 1271 q 615 1249 592 1271 q 651 1199 638 1228 q 664 1146 664 1169 q 638 1099 664 1117 q 556 1068 613 1081 q 470 1055 517 1060 q 381 1048 424 1050 q 313 1046 339 1046 q 277 1060 290 1046 q 264 1092 264 1074 z "},"Ě":{"ha":803,"x_min":35,"x_max":789,"o":"m 553 1022 q 736 981 683 1022 q 789 863 789 940 q 727 742 789 782 q 536 703 665 703 q 444 705 496 703 q 336 711 393 707 q 339 607 354 663 q 450 624 388 617 q 564 631 513 631 q 712 599 669 631 q 754 519 754 567 q 706 433 754 468 q 540 397 658 397 q 340 413 447 397 q 347 353 349 386 q 333 293 346 319 q 458 316 388 307 q 590 325 529 325 q 738 292 689 325 q 786 183 786 258 q 767 103 786 135 q 703 47 749 71 q 612 17 667 29 q 495 -2 557 4 q 374 -8 433 -8 q 89 97 153 -8 q 47 228 60 147 q 35 449 35 308 q 44 669 35 582 q 72 810 54 756 q 114 896 90 864 q 217 972 150 944 q 371 1011 283 1000 q 553 1022 458 1022 m 414 1053 q 342 1071 382 1053 q 261 1111 301 1089 q 183 1170 214 1142 q 153 1229 153 1199 q 175 1283 153 1261 q 232 1306 197 1306 q 308 1274 264 1306 q 399 1171 353 1242 q 473 1265 431 1231 q 553 1299 515 1299 q 632 1272 600 1299 q 664 1201 664 1246 q 635 1149 664 1172 q 558 1100 607 1125 q 478 1066 518 1079 q 414 1053 438 1053 z "},"Ê":{"ha":803,"x_min":35,"x_max":789,"o":"m 553 1022 q 736 981 683 1022 q 789 863 789 940 q 727 742 789 782 q 536 703 665 703 q 444 705 496 703 q 336 711 393 707 q 339 607 354 663 q 450 624 388 617 q 564 631 513 631 q 712 599 669 631 q 754 519 754 567 q 706 433 754 468 q 540 397 658 397 q 340 413 447 397 q 347 353 349 386 q 333 293 346 319 q 458 316 388 307 q 590 325 529 325 q 738 292 689 325 q 786 183 786 258 q 767 103 786 135 q 703 47 749 71 q 612 17 667 29 q 495 -2 557 4 q 374 -8 433 -8 q 89 97 153 -8 q 47 228 60 147 q 35 449 35 308 q 44 669 35 582 q 72 810 54 756 q 114 896 90 864 q 217 972 150 944 q 371 1011 283 1000 q 553 1022 458 1022 m 414 1292 q 478 1278 438 1292 q 558 1244 518 1265 q 635 1196 607 1219 q 664 1143 664 1172 q 632 1072 664 1099 q 553 1046 600 1046 q 473 1080 515 1046 q 399 1174 431 1114 q 308 1071 353 1103 q 232 1039 264 1039 q 175 1061 197 1039 q 153 1115 153 1083 q 183 1175 153 1147 q 261 1233 214 1203 q 342 1274 301 1257 q 414 1292 382 1292 z "},"Ë":{"ha":803,"x_min":35,"x_max":789,"o":"m 553 1022 q 736 981 683 1022 q 789 863 789 940 q 727 742 789 782 q 536 703 665 703 q 444 705 496 703 q 336 711 393 707 q 339 607 354 663 q 450 624 388 617 q 564 631 513 631 q 712 599 669 631 q 754 519 754 567 q 706 433 754 468 q 540 397 658 397 q 340 413 447 397 q 347 353 349 386 q 333 293 346 319 q 458 316 388 307 q 590 325 529 325 q 738 292 689 325 q 786 183 786 258 q 767 103 786 135 q 703 47 749 71 q 612 17 667 29 q 495 -2 557 4 q 374 -8 433 -8 q 89 97 153 -8 q 47 228 60 147 q 35 449 35 308 q 44 669 35 582 q 72 810 54 756 q 114 896 90 864 q 217 972 150 944 q 371 1011 283 1000 q 553 1022 458 1022 m 565 1274 q 663 1240 633 1274 q 693 1161 693 1206 q 656 1076 693 1106 q 551 1047 619 1047 q 456 1080 488 1047 q 424 1157 424 1113 q 463 1244 424 1214 q 565 1274 501 1274 m 246 1040 q 153 1072 182 1040 q 124 1143 124 1103 q 163 1230 124 1200 q 271 1260 201 1260 q 363 1226 333 1260 q 393 1147 393 1193 q 352 1067 393 1094 q 246 1040 311 1040 z "},"Ė":{"ha":803,"x_min":35,"x_max":789,"o":"m 553 1022 q 736 981 683 1022 q 789 863 789 940 q 727 742 789 782 q 536 703 665 703 q 444 705 496 703 q 336 711 393 707 q 339 607 354 663 q 450 624 388 617 q 564 631 513 631 q 712 599 669 631 q 754 519 754 567 q 706 433 754 468 q 540 397 658 397 q 340 413 447 397 q 347 353 349 386 q 333 293 346 319 q 458 316 388 307 q 590 325 529 325 q 738 292 689 325 q 786 183 786 258 q 767 103 786 135 q 703 47 749 71 q 612 17 667 29 q 495 -2 557 4 q 374 -8 433 -8 q 89 97 153 -8 q 47 228 60 147 q 35 449 35 308 q 44 669 35 582 q 72 810 54 756 q 114 896 90 864 q 217 972 150 944 q 371 1011 283 1000 q 553 1022 458 1022 m 422 1315 q 545 1275 508 1315 q 582 1182 582 1235 q 536 1083 582 1118 q 408 1047 490 1047 q 288 1086 328 1047 q 249 1178 249 1125 q 297 1281 249 1246 q 422 1315 344 1315 z "},"È":{"ha":803,"x_min":35,"x_max":789,"o":"m 553 1022 q 736 981 683 1022 q 789 863 789 940 q 727 742 789 782 q 536 703 665 703 q 444 705 496 703 q 336 711 393 707 q 339 607 354 663 q 450 624 388 617 q 564 631 513 631 q 712 599 669 631 q 754 519 754 567 q 706 433 754 468 q 540 397 658 397 q 340 413 447 397 q 347 353 349 386 q 333 293 346 319 q 458 316 388 307 q 590 325 529 325 q 738 292 689 325 q 786 183 786 258 q 767 103 786 135 q 703 47 749 71 q 612 17 667 29 q 495 -2 557 4 q 374 -8 433 -8 q 89 97 153 -8 q 47 228 60 147 q 35 449 35 308 q 44 669 35 582 q 72 810 54 756 q 114 896 90 864 q 217 972 150 944 q 371 1011 283 1000 q 553 1022 458 1022 m 553 1092 q 540 1060 553 1074 q 504 1046 528 1046 q 435 1048 478 1046 q 347 1055 393 1050 q 261 1068 301 1060 q 178 1099 204 1081 q 153 1146 153 1117 q 166 1199 153 1169 q 203 1249 179 1228 q 257 1271 226 1271 q 336 1251 293 1271 q 426 1206 379 1231 q 518 1144 483 1172 q 553 1092 553 1115 z "},"Ē":{"ha":803,"x_min":35,"x_max":789,"o":"m 553 1022 q 736 981 683 1022 q 789 863 789 940 q 727 742 789 782 q 536 703 665 703 q 444 705 496 703 q 336 711 393 707 q 339 607 354 663 q 450 624 388 617 q 564 631 513 631 q 712 599 669 631 q 754 519 754 567 q 706 433 754 468 q 540 397 658 397 q 340 413 447 397 q 347 353 349 386 q 333 293 346 319 q 458 316 388 307 q 590 325 529 325 q 738 292 689 325 q 786 183 786 258 q 767 103 786 135 q 703 47 749 71 q 612 17 667 29 q 495 -2 557 4 q 374 -8 433 -8 q 89 97 153 -8 q 47 228 60 147 q 35 449 35 308 q 44 669 35 582 q 72 810 54 756 q 114 896 90 864 q 217 972 150 944 q 371 1011 283 1000 q 553 1022 458 1022 m 250 1044 q 154 1069 185 1044 q 124 1133 124 1093 q 152 1195 124 1172 q 246 1233 181 1218 q 345 1251 290 1244 q 456 1260 400 1257 q 560 1263 513 1263 q 663 1238 632 1263 q 693 1169 693 1213 q 664 1105 693 1129 q 581 1069 635 1081 q 475 1056 536 1063 q 354 1047 414 1050 q 250 1044 294 1044 z "},"Ę":{"ha":803,"x_min":35,"x_max":789,"o":"m 553 1022 q 736 981 683 1022 q 789 863 789 940 q 727 742 789 782 q 536 703 665 703 q 444 705 496 703 q 336 711 393 707 q 339 607 354 663 q 450 624 388 617 q 564 631 513 631 q 712 599 669 631 q 754 519 754 567 q 706 433 754 468 q 540 397 658 397 q 340 413 447 397 q 347 353 349 386 q 333 293 346 319 q 458 316 388 307 q 590 325 529 325 q 738 292 689 325 q 786 183 786 258 q 767 103 786 135 q 703 47 749 71 q 612 17 667 29 q 495 -2 557 4 q 374 -8 433 -8 q 89 97 153 -8 q 47 228 60 147 q 35 449 35 308 q 44 669 35 582 q 72 810 54 756 q 114 896 90 864 q 217 972 150 944 q 371 1011 283 1000 q 553 1022 458 1022 m 553 -293 q 415 -261 469 -293 q 360 -167 360 -229 q 404 -58 360 -106 q 551 39 449 -10 l 688 42 q 597 -43 631 1 q 563 -111 563 -87 q 582 -128 563 -128 q 608 -125 593 -128 q 639 -122 624 -122 q 690 -140 674 -122 q 707 -190 707 -158 q 667 -267 707 -242 q 553 -293 626 -293 z "},"F":{"ha":747,"x_min":35,"x_max":740,"o":"m 511 994 q 688 951 635 994 q 740 832 740 907 q 667 697 740 740 q 439 654 593 654 q 394 655 419 654 q 342 658 369 656 q 338 608 343 636 q 565 581 482 600 q 684 523 649 561 q 719 422 719 485 q 681 335 719 371 q 561 300 642 300 q 368 343 465 300 q 389 252 381 304 q 397 149 397 200 q 351 9 397 54 q 228 -36 306 -36 q 131 -15 172 -36 q 71 54 89 7 q 44 181 53 96 q 35 407 35 265 q 57 709 35 597 q 114 868 79 821 q 215 943 149 915 q 360 983 281 971 q 511 994 439 994 z "},"G":{"ha":990,"x_min":21,"x_max":988,"o":"m 947 257 q 903 126 947 189 q 763 24 858 64 q 515 -15 668 -15 q 239 44 349 -15 q 75 210 129 103 q 21 460 21 317 q 94 747 21 622 q 301 943 168 872 q 613 1014 433 1014 q 836 962 758 1014 q 914 807 914 910 q 867 697 914 738 q 731 657 821 657 q 638 660 688 657 q 547 664 589 664 q 436 644 488 664 q 354 578 385 624 q 324 457 324 533 q 384 306 324 353 q 538 260 444 260 q 651 283 617 260 q 693 351 685 306 q 657 351 674 351 q 624 351 640 351 q 467 370 510 351 q 425 436 425 389 q 448 494 425 468 q 514 543 471 521 q 615 574 554 563 q 757 586 675 586 q 932 556 876 586 q 988 478 988 526 q 964 415 988 442 q 889 375 940 389 q 933 325 919 354 q 947 257 947 296 z "},"Ğ":{"ha":990,"x_min":21,"x_max":988,"o":"m 947 257 q 903 126 947 189 q 763 24 858 64 q 515 -15 668 -15 q 239 44 349 -15 q 75 210 129 103 q 21 460 21 317 q 94 747 21 622 q 301 943 168 872 q 613 1014 433 1014 q 836 962 758 1014 q 914 807 914 910 q 867 697 914 738 q 731 657 821 657 q 638 660 688 657 q 547 664 589 664 q 436 644 488 664 q 354 578 385 624 q 324 457 324 533 q 384 306 324 353 q 538 260 444 260 q 651 283 617 260 q 693 351 685 306 q 657 351 674 351 q 624 351 640 351 q 467 370 510 351 q 425 436 425 389 q 448 494 425 468 q 514 543 471 521 q 615 574 554 563 q 757 586 675 586 q 932 556 876 586 q 988 478 988 526 q 964 415 988 442 q 889 375 940 389 q 933 325 919 354 q 947 257 947 296 m 506 1047 q 347 1094 404 1047 q 289 1206 289 1142 q 361 1276 289 1276 q 443 1210 428 1276 q 463 1167 450 1181 q 504 1153 475 1153 q 543 1165 531 1153 q 561 1201 556 1176 q 592 1267 572 1243 q 650 1290 611 1290 q 704 1269 686 1290 q 722 1213 722 1249 q 666 1097 722 1147 q 506 1047 610 1047 z "},"Ģ":{"ha":990,"x_min":21,"x_max":988,"o":"m 947 257 q 903 126 947 189 q 763 24 858 64 q 515 -15 668 -15 q 239 44 349 -15 q 75 210 129 103 q 21 460 21 317 q 94 747 21 622 q 301 943 168 872 q 613 1014 433 1014 q 836 962 758 1014 q 914 807 914 910 q 867 697 914 738 q 731 657 821 657 q 638 660 688 657 q 547 664 589 664 q 436 644 488 664 q 354 578 385 624 q 324 457 324 533 q 384 306 324 353 q 538 260 444 260 q 651 283 617 260 q 693 351 685 306 q 657 351 674 351 q 624 351 640 351 q 467 370 510 351 q 425 436 425 389 q 448 494 425 468 q 514 543 471 521 q 615 574 554 563 q 757 586 675 586 q 932 556 876 586 q 988 478 988 526 q 964 415 988 442 q 889 375 940 389 q 933 325 919 354 q 947 257 947 296 m 578 -310 q 481 -362 529 -362 q 449 -354 461 -362 q 436 -329 436 -346 q 445 -301 436 -319 q 483 -251 454 -282 q 374 -224 404 -250 q 343 -151 343 -197 q 356 -100 343 -125 q 402 -58 369 -75 q 492 -40 435 -40 q 597 -69 557 -40 q 638 -161 638 -99 q 624 -236 638 -196 q 578 -310 610 -276 z "},"Ġ":{"ha":990,"x_min":21,"x_max":988,"o":"m 947 257 q 903 126 947 189 q 763 24 858 64 q 515 -15 668 -15 q 239 44 349 -15 q 75 210 129 103 q 21 460 21 317 q 94 747 21 622 q 301 943 168 872 q 613 1014 433 1014 q 836 962 758 1014 q 914 807 914 910 q 867 697 914 738 q 731 657 821 657 q 638 660 688 657 q 547 664 589 664 q 436 644 488 664 q 354 578 385 624 q 324 457 324 533 q 384 306 324 353 q 538 260 444 260 q 651 283 617 260 q 693 351 685 306 q 657 351 674 351 q 624 351 640 351 q 467 370 510 351 q 425 436 425 389 q 448 494 425 468 q 514 543 471 521 q 615 574 554 563 q 757 586 675 586 q 932 556 876 586 q 988 478 988 526 q 964 415 988 442 q 889 375 940 389 q 933 325 919 354 q 947 257 947 296 m 519 1315 q 642 1275 606 1315 q 679 1182 679 1235 q 633 1083 679 1118 q 506 1047 588 1047 q 385 1086 425 1047 q 346 1178 346 1125 q 394 1281 346 1246 q 519 1315 442 1315 z "},"H":{"ha":956,"x_min":35,"x_max":921,"o":"m 254 1021 q 367 981 328 1021 q 407 864 407 942 q 394 751 407 814 q 354 626 381 688 q 583 624 474 647 q 557 753 565 689 q 549 867 549 817 q 713 1029 549 1029 q 833 989 790 1029 q 892 868 875 949 q 913 715 906 806 q 921 532 921 624 q 915 347 921 440 q 894 171 908 253 q 836 35 879 78 q 707 -7 793 -7 q 576 39 617 -7 q 536 186 536 85 q 546 296 536 239 q 574 410 556 353 q 353 414 467 393 q 394 293 379 354 q 410 169 410 232 q 360 33 410 76 q 228 -11 311 -11 q 116 23 160 -11 q 56 142 72 57 q 40 280 46 197 q 35 454 35 363 q 44 672 35 567 q 72 853 54 776 q 133 976 90 931 q 254 1021 176 1021 z "},"Ħ":{"ha":956,"x_min":-82,"x_max":1038,"o":"m 228 -11 q 116 23 160 -11 q 56 142 72 57 q 40 280 46 197 q 35 454 35 363 q 44 674 35 568 q -53 703 -25 678 q -82 768 -82 728 q -51 840 -82 808 q 65 883 -21 871 q 81 885 74 885 q 143 985 101 949 q 254 1021 185 1021 q 401 917 376 1021 q 556 926 479 922 q 713 1029 583 1029 q 810 1006 772 1029 q 869 936 849 982 q 881 936 875 936 q 1003 909 969 936 q 1038 838 1038 882 q 1008 767 1038 796 q 913 728 979 739 q 921 532 921 631 q 915 347 921 440 q 894 171 908 253 q 836 35 879 78 q 707 -7 793 -7 q 576 39 617 -7 q 536 186 536 85 q 546 296 536 239 q 574 410 556 353 q 353 414 467 393 q 394 293 379 354 q 410 169 410 232 q 360 33 410 76 q 228 -11 311 -11 m 354 626 q 583 624 474 647 q 567 694 574 658 q 375 683 471 689 q 354 626 367 654 z "},"I":{"ha":456,"x_min":35,"x_max":421,"o":"m 233 1035 q 340 999 299 1035 q 400 868 382 963 q 415 730 410 817 q 421 551 421 643 q 400 251 421 381 q 336 92 382 139 q 221 44 290 44 q 112 83 157 44 q 50 217 67 121 q 40 328 44 257 q 35 482 35 399 q 42 695 35 594 q 64 861 50 796 q 126 994 83 954 q 233 1035 168 1035 z "},"Ĳ":{"ha":1339,"x_min":35,"x_max":1332,"o":"m 233 1035 q 340 999 299 1035 q 400 868 382 963 q 415 730 410 817 q 421 551 421 643 q 400 251 421 381 q 336 92 382 139 q 221 44 290 44 q 112 83 157 44 q 50 217 67 121 q 40 328 44 257 q 35 482 35 399 q 42 695 35 594 q 64 861 50 796 q 126 994 83 954 q 233 1035 168 1035 m 1271 396 q 1225 194 1271 288 q 1083 42 1179 100 q 839 -15 988 -15 q 556 68 650 -15 q 463 307 463 151 q 491 451 463 393 q 565 540 519 510 q 665 571 611 571 q 763 537 731 571 q 796 446 796 503 q 792 403 796 426 q 788 358 788 379 q 808 283 788 307 q 865 260 829 260 q 947 308 924 260 q 971 439 971 356 q 960 564 971 503 q 926 688 950 625 q 800 671 856 671 q 684 703 725 671 q 643 800 643 736 q 757 963 643 896 q 885 1007 810 990 q 1053 1024 960 1024 q 1256 981 1188 1024 q 1314 924 1296 958 q 1332 844 1332 889 q 1299 749 1332 785 q 1190 710 1265 713 q 1250 562 1229 643 q 1271 396 1271 481 z "},"Í":{"ha":465,"x_min":35,"x_max":488,"o":"m 238 58 q 137 99 179 58 q 71 242 94 140 q 51 356 60 292 q 39 486 43 421 q 35 601 35 551 q 56 853 35 765 q 119 974 76 940 q 225 1007 161 1007 q 324 967 286 1007 q 388 828 361 926 q 410 702 401 775 q 425 558 419 629 q 431 435 431 486 q 415 233 431 317 q 357 103 399 149 q 238 58 315 58 m 88 1072 q 123 1124 88 1096 q 214 1186 158 1153 q 305 1231 263 1211 q 383 1251 347 1251 q 438 1230 415 1251 q 474 1179 461 1208 q 488 1126 488 1150 q 462 1079 488 1097 q 379 1049 436 1061 q 294 1035 340 1040 q 205 1028 247 1031 q 136 1026 163 1026 q 101 1040 114 1026 q 88 1072 88 1054 z "},"Î":{"ha":465,"x_min":35,"x_max":431,"o":"m 238 58 q 137 99 179 58 q 71 242 94 140 q 51 356 60 292 q 39 486 43 421 q 35 601 35 551 q 56 853 35 765 q 119 974 76 940 q 225 1007 161 1007 q 324 967 286 1007 q 388 828 361 926 q 410 702 401 775 q 425 558 419 629 q 431 435 431 486 q 415 233 431 317 q 357 103 399 149 q 238 58 315 58 m 238 1272 q 292 1258 257 1272 q 361 1221 326 1244 q 408 1176 392 1199 q 425 1124 425 1153 q 399 1053 425 1079 q 335 1026 372 1026 q 272 1058 299 1026 q 225 1143 246 1089 q 173 1049 197 1078 q 118 1019 149 1019 q 61 1042 83 1019 q 39 1096 39 1064 q 57 1153 39 1128 q 106 1207 75 1179 q 177 1257 144 1242 q 238 1272 210 1272 z "},"Ï":{"ha":465,"x_min":24,"x_max":440,"o":"m 238 58 q 137 99 179 58 q 71 242 94 140 q 51 356 60 292 q 39 486 43 421 q 35 601 35 551 q 56 853 35 765 q 119 974 76 940 q 225 1007 161 1007 q 324 967 286 1007 q 388 828 361 926 q 410 702 401 775 q 425 558 419 629 q 431 435 431 486 q 415 233 431 317 q 357 103 399 149 q 238 58 315 58 m 347 1254 q 418 1220 396 1254 q 440 1142 440 1186 q 413 1057 440 1086 q 333 1028 385 1028 q 263 1060 286 1028 q 240 1138 240 1093 q 270 1224 240 1194 q 347 1254 300 1254 m 111 1021 q 44 1052 65 1021 q 24 1124 24 1083 q 53 1210 24 1181 q 136 1240 83 1240 q 202 1207 181 1240 q 224 1128 224 1174 q 192 1048 224 1075 q 111 1021 161 1021 z "},"İ":{"ha":456,"x_min":35,"x_max":421,"o":"m 233 1035 q 340 999 299 1035 q 400 868 382 963 q 415 730 410 817 q 421 551 421 643 q 400 251 421 381 q 336 92 382 139 q 221 44 290 44 q 112 83 157 44 q 50 217 67 121 q 40 328 44 257 q 35 482 35 399 q 42 695 35 594 q 64 861 50 796 q 126 994 83 954 q 233 1035 168 1035 m 242 1324 q 365 1283 328 1324 q 401 1190 401 1243 q 356 1091 401 1126 q 228 1056 310 1056 q 108 1094 147 1056 q 68 1186 68 1133 q 116 1289 68 1254 q 242 1324 164 1324 z "},"Ì":{"ha":465,"x_min":-24,"x_max":431,"o":"m 238 58 q 137 99 179 58 q 71 242 94 140 q 51 356 60 292 q 39 486 43 421 q 35 601 35 551 q 56 853 35 765 q 119 974 76 940 q 225 1007 161 1007 q 324 967 286 1007 q 388 828 361 926 q 410 702 401 775 q 425 558 419 629 q 431 435 431 486 q 415 233 431 317 q 357 103 399 149 q 238 58 315 58 m 376 1072 q 364 1040 376 1054 q 328 1026 351 1026 q 259 1028 301 1026 q 171 1035 217 1031 q 85 1049 125 1040 q 2 1079 28 1061 q -24 1126 -24 1097 q -10 1179 -24 1150 q 26 1230 3 1208 q 81 1251 50 1251 q 160 1231 117 1251 q 250 1186 203 1211 q 342 1124 307 1153 q 376 1072 376 1096 z "},"Ī":{"ha":456,"x_min":-57,"x_max":513,"o":"m 233 1035 q 340 999 299 1035 q 400 868 382 963 q 415 730 410 817 q 421 551 421 643 q 400 251 421 381 q 336 92 382 139 q 221 44 290 44 q 112 83 157 44 q 50 217 67 121 q 40 328 44 257 q 35 482 35 399 q 42 695 35 594 q 64 861 50 796 q 126 994 83 954 q 233 1035 168 1035 m 69 1053 q -26 1077 4 1053 q -57 1142 -57 1101 q -28 1203 -57 1181 q 65 1242 0 1226 q 165 1259 110 1253 q 276 1268 219 1265 q 379 1271 332 1271 q 482 1246 451 1271 q 513 1178 513 1221 q 483 1113 513 1138 q 400 1078 454 1089 q 294 1065 356 1071 q 174 1056 233 1058 q 69 1053 114 1053 z "},"Į":{"ha":456,"x_min":-19,"x_max":421,"o":"m 233 1035 q 340 999 299 1035 q 400 868 382 963 q 415 730 410 817 q 421 551 421 643 q 400 251 421 381 q 336 92 382 139 q 221 44 290 44 q 112 83 157 44 q 50 217 67 121 q 40 328 44 257 q 35 482 35 399 q 42 695 35 594 q 64 861 50 796 q 126 994 83 954 q 233 1035 168 1035 m 174 -265 q 35 -233 90 -265 q -19 -139 -19 -201 q 25 -30 -19 -78 q 172 67 69 18 l 308 69 q 217 -15 251 29 q 183 -83 183 -60 q 203 -100 183 -100 q 229 -97 214 -100 q 260 -94 244 -94 q 311 -112 294 -94 q 328 -162 328 -131 q 288 -240 328 -214 q 174 -265 247 -265 z "},"J":{"ha":883,"x_min":7,"x_max":876,"o":"m 815 396 q 769 194 815 288 q 628 42 724 100 q 383 -15 532 -15 q 101 68 194 -15 q 7 307 7 151 q 35 451 7 393 q 110 540 64 510 q 210 571 156 571 q 308 537 275 571 q 340 446 340 503 q 336 403 340 426 q 332 358 332 379 q 353 283 332 307 q 410 260 374 260 q 492 308 468 260 q 515 439 515 356 q 505 564 515 503 q 471 688 494 625 q 344 671 400 671 q 228 703 269 671 q 188 800 188 736 q 301 963 188 896 q 429 1007 354 990 q 597 1024 504 1024 q 800 981 732 1024 q 858 924 840 958 q 876 844 876 889 q 843 749 876 785 q 735 710 810 713 q 794 562 774 643 q 815 396 815 481 z "},"K":{"ha":881,"x_min":35,"x_max":874,"o":"m 183 -14 q 64 69 89 -14 q 43 206 51 111 q 35 413 35 301 q 41 645 35 532 q 64 844 47 758 q 113 960 79 922 q 215 997 147 997 q 336 944 296 997 q 376 760 376 890 q 372 665 376 718 l 378 665 q 503 879 440 803 q 625 986 565 956 q 738 1017 685 1017 q 838 972 803 1017 q 874 863 874 928 q 802 697 874 775 q 569 532 731 619 q 779 342 713 432 q 846 151 846 251 q 803 42 846 83 q 682 1 760 1 q 557 40 615 1 q 450 167 499 79 q 363 404 401 256 l 357 404 q 359 367 358 386 q 358 331 360 349 q 320 66 358 146 q 183 -14 282 -14 z "},"Ķ":{"ha":881,"x_min":35,"x_max":874,"o":"m 183 -14 q 64 69 89 -14 q 43 206 51 111 q 35 413 35 301 q 41 645 35 532 q 64 844 47 758 q 113 960 79 922 q 215 997 147 997 q 336 944 296 997 q 376 760 376 890 q 372 665 376 718 l 378 665 q 503 879 440 803 q 625 986 565 956 q 738 1017 685 1017 q 838 972 803 1017 q 874 863 874 928 q 802 697 874 775 q 569 532 731 619 q 779 342 713 432 q 846 151 846 251 q 803 42 846 83 q 682 1 760 1 q 557 40 615 1 q 450 167 499 79 q 363 404 401 256 l 357 404 q 359 367 358 386 q 358 331 360 349 q 320 66 358 146 q 183 -14 282 -14 m 515 -310 q 418 -362 467 -362 q 386 -354 399 -362 q 374 -329 374 -346 q 383 -301 374 -319 q 421 -251 392 -282 q 311 -224 342 -250 q 281 -151 281 -197 q 294 -100 281 -125 q 340 -58 307 -75 q 429 -40 372 -40 q 535 -69 494 -40 q 575 -161 575 -99 q 561 -236 575 -196 q 515 -310 547 -276 z "},"L":{"ha":786,"x_min":35,"x_max":779,"o":"m 339 -8 q 180 17 239 -8 q 89 97 121 43 q 47 228 60 147 q 35 449 35 308 q 44 669 35 564 q 64 833 53 775 q 126 967 83 926 q 233 1007 168 1007 q 342 967 303 1007 q 397 860 381 926 q 414 711 414 793 q 394 523 414 618 q 343 343 375 428 q 468 414 399 390 q 607 438 538 438 q 735 395 690 438 q 779 276 779 353 q 738 147 779 206 q 629 53 696 88 q 496 8 575 24 q 339 -8 417 -8 z "},"Ĺ":{"ha":786,"x_min":35,"x_max":779,"o":"m 339 -8 q 180 17 239 -8 q 89 97 121 43 q 47 228 60 147 q 35 449 35 308 q 44 669 35 564 q 64 833 53 775 q 126 967 83 926 q 233 1007 168 1007 q 342 967 303 1007 q 397 860 381 926 q 414 711 414 793 q 394 523 414 618 q 343 343 375 428 q 468 414 399 390 q 607 438 538 438 q 735 395 690 438 q 779 276 779 353 q 738 147 779 206 q 629 53 696 88 q 496 8 575 24 q 339 -8 417 -8 m 218 1092 q 253 1144 218 1115 q 344 1206 289 1172 q 435 1251 393 1231 q 514 1271 478 1271 q 569 1249 546 1271 q 605 1199 592 1228 q 618 1146 618 1169 q 592 1099 618 1117 q 510 1068 567 1081 q 424 1055 471 1060 q 335 1048 378 1050 q 267 1046 293 1046 q 231 1060 244 1046 q 218 1092 218 1074 z "},"Ľ":{"ha":786,"x_min":35,"x_max":779,"o":"m 339 -8 q 180 17 239 -8 q 89 97 121 43 q 47 228 60 147 q 35 449 35 308 q 44 669 35 564 q 64 833 53 775 q 126 967 83 926 q 233 1007 168 1007 q 342 967 303 1007 q 397 860 381 926 q 414 711 414 793 q 394 523 414 618 q 343 343 375 428 q 468 414 399 390 q 607 438 538 438 q 735 395 690 438 q 779 276 779 353 q 738 147 779 206 q 629 53 696 88 q 496 8 575 24 q 339 -8 417 -8 m 504 742 q 486 801 486 757 q 496 910 486 846 q 517 1006 507 963 q 551 1076 528 1050 q 606 1103 572 1100 q 672 1096 639 1106 q 725 1071 706 1086 q 749 1021 750 1051 q 721 940 749 990 q 678 868 703 906 q 627 799 653 831 q 581 747 601 767 q 541 730 563 731 q 504 742 519 729 z "},"Ļ":{"ha":786,"x_min":35,"x_max":779,"o":"m 339 -8 q 180 17 239 -8 q 89 97 121 43 q 47 228 60 147 q 35 449 35 308 q 44 669 35 564 q 64 833 53 775 q 126 967 83 926 q 233 1007 168 1007 q 342 967 303 1007 q 397 860 381 926 q 414 711 414 793 q 394 523 414 618 q 343 343 375 428 q 468 414 399 390 q 607 438 538 438 q 735 395 690 438 q 779 276 779 353 q 738 147 779 206 q 629 53 696 88 q 496 8 575 24 q 339 -8 417 -8 m 463 -310 q 365 -362 414 -362 q 333 -354 346 -362 q 321 -329 321 -346 q 330 -301 321 -319 q 368 -251 339 -282 q 258 -224 289 -250 q 228 -151 228 -197 q 241 -100 228 -125 q 287 -58 254 -75 q 376 -40 319 -40 q 482 -69 442 -40 q 522 -161 522 -99 q 508 -236 522 -196 q 463 -310 494 -276 z "},"Ł":{"ha":817,"x_min":-100,"x_max":810,"o":"m 369 -8 q 210 17 269 -8 q 119 97 151 43 q 79 222 92 146 q -12 185 25 183 q -74 217 -49 186 q -96 292 -100 249 q -33 400 -92 335 q 17 454 -8 428 q 65 507 42 481 q 76 694 68 607 q 94 833 85 782 q 156 967 114 926 q 264 1007 199 1007 q 376 963 336 1007 q 431 847 415 918 q 533 893 493 894 q 600 860 572 892 q 622 784 628 826 q 567 685 617 742 q 428 542 500 614 q 405 440 419 490 q 374 343 390 390 q 499 414 429 390 q 638 438 568 438 q 765 395 721 438 q 810 276 810 353 q 768 147 810 206 q 660 53 726 88 q 526 8 606 24 q 369 -8 447 -8 z "},"M":{"ha":1050,"x_min":35,"x_max":1015,"o":"m 821 -11 q 733 8 771 -11 q 675 74 696 26 q 654 206 654 121 q 665 365 654 281 q 694 536 676 449 q 726 704 711 624 l 721 704 q 628 446 678 524 q 515 368 578 368 q 445 396 476 368 q 385 500 414 424 q 324 721 356 576 l 318 721 q 345 562 331 647 q 370 396 360 476 q 381 256 381 315 q 365 140 381 192 q 313 57 350 88 q 208 26 275 26 q 77 80 119 26 q 35 257 35 133 q 38 377 35 308 q 48 519 42 446 q 63 663 54 593 q 79 783 71 732 q 148 949 99 900 q 274 999 197 999 q 371 972 324 999 q 458 872 418 944 q 521 663 497 799 l 526 663 q 584 883 549 804 q 664 994 619 963 q 760 1025 708 1025 q 888 973 840 1025 q 957 826 935 921 q 988 650 975 750 q 1008 445 1001 550 q 1015 249 1015 340 q 963 47 1015 106 q 821 -11 910 -11 z "},"N":{"ha":974,"x_min":35,"x_max":939,"o":"m 253 988 q 352 963 307 988 q 440 879 397 939 q 526 714 482 819 q 624 446 571 608 l 629 446 q 608 565 618 499 q 593 695 599 632 q 588 799 588 758 q 626 972 588 918 q 738 1025 665 1025 q 825 1001 792 1025 q 879 928 858 976 q 926 727 913 854 q 939 435 939 600 q 925 196 939 289 q 875 58 911 103 q 771 14 839 14 q 689 26 728 14 q 613 74 650 39 q 535 177 575 110 q 449 353 494 244 q 349 622 403 463 l 343 622 q 366 513 356 578 q 383 380 376 449 q 389 254 389 311 q 346 51 389 111 q 213 -10 303 -10 q 76 53 117 -10 q 35 247 35 117 q 38 388 35 310 q 48 551 42 467 q 64 711 54 635 q 122 917 81 847 q 253 988 164 988 z "},"Ń":{"ha":974,"x_min":35,"x_max":939,"o":"m 253 988 q 352 963 307 988 q 440 879 397 939 q 526 714 482 819 q 624 446 571 608 l 629 446 q 608 565 618 499 q 593 695 599 632 q 588 799 588 758 q 626 972 588 918 q 738 1025 665 1025 q 825 1001 792 1025 q 879 928 858 976 q 926 727 913 854 q 939 435 939 600 q 925 196 939 289 q 875 58 911 103 q 771 14 839 14 q 689 26 728 14 q 613 74 650 39 q 535 177 575 110 q 449 353 494 244 q 349 622 403 463 l 343 622 q 366 513 356 578 q 383 380 376 449 q 389 254 389 311 q 346 51 389 111 q 213 -10 303 -10 q 76 53 117 -10 q 35 247 35 117 q 38 388 35 310 q 48 551 42 467 q 64 711 54 635 q 122 917 81 847 q 253 988 164 988 m 322 1092 q 358 1144 322 1115 q 449 1206 393 1172 q 540 1251 497 1231 q 618 1271 582 1271 q 673 1249 650 1271 q 709 1199 696 1228 q 722 1146 722 1169 q 697 1099 722 1117 q 614 1068 671 1081 q 528 1055 575 1060 q 440 1048 482 1050 q 371 1046 397 1046 q 335 1060 349 1046 q 322 1092 322 1074 z "},"Ň":{"ha":974,"x_min":35,"x_max":939,"o":"m 253 988 q 352 963 307 988 q 440 879 397 939 q 526 714 482 819 q 624 446 571 608 l 629 446 q 608 565 618 499 q 593 695 599 632 q 588 799 588 758 q 626 972 588 918 q 738 1025 665 1025 q 825 1001 792 1025 q 879 928 858 976 q 926 727 913 854 q 939 435 939 600 q 925 196 939 289 q 875 58 911 103 q 771 14 839 14 q 689 26 728 14 q 613 74 650 39 q 535 177 575 110 q 449 353 494 244 q 349 622 403 463 l 343 622 q 366 513 356 578 q 383 380 376 449 q 389 254 389 311 q 346 51 389 111 q 213 -10 303 -10 q 76 53 117 -10 q 35 247 35 117 q 38 388 35 310 q 48 551 42 467 q 64 711 54 635 q 122 917 81 847 q 253 988 164 988 m 472 1053 q 400 1071 440 1053 q 319 1111 360 1089 q 242 1170 272 1142 q 211 1229 211 1199 q 233 1283 211 1261 q 290 1306 256 1306 q 367 1274 322 1306 q 457 1171 411 1242 q 531 1265 489 1231 q 611 1299 574 1299 q 690 1272 658 1299 q 722 1201 722 1246 q 694 1149 722 1172 q 617 1100 665 1125 q 536 1066 576 1079 q 472 1053 496 1053 z "},"Ņ":{"ha":974,"x_min":35,"x_max":939,"o":"m 253 988 q 352 963 307 988 q 440 879 397 939 q 526 714 482 819 q 624 446 571 608 l 629 446 q 608 565 618 499 q 593 695 599 632 q 588 799 588 758 q 626 972 588 918 q 738 1025 665 1025 q 825 1001 792 1025 q 879 928 858 976 q 926 727 913 854 q 939 435 939 600 q 925 196 939 289 q 875 58 911 103 q 771 14 839 14 q 689 26 728 14 q 613 74 650 39 q 535 177 575 110 q 449 353 494 244 q 349 622 403 463 l 343 622 q 366 513 356 578 q 383 380 376 449 q 389 254 389 311 q 346 51 389 111 q 213 -10 303 -10 q 76 53 117 -10 q 35 247 35 117 q 38 388 35 310 q 48 551 42 467 q 64 711 54 635 q 122 917 81 847 q 253 988 164 988 m 567 -310 q 469 -362 518 -362 q 438 -354 450 -362 q 425 -329 425 -346 q 434 -301 425 -319 q 472 -251 443 -282 q 363 -224 393 -250 q 332 -151 332 -197 q 345 -100 332 -125 q 391 -58 358 -75 q 481 -40 424 -40 q 586 -69 546 -40 q 626 -161 626 -99 q 613 -236 626 -196 q 567 -310 599 -276 z "},"Ñ":{"ha":974,"x_min":35,"x_max":939,"o":"m 253 988 q 352 963 307 988 q 440 879 397 939 q 526 714 482 819 q 624 446 571 608 l 629 446 q 608 565 618 499 q 593 695 599 632 q 588 799 588 758 q 626 972 588 918 q 738 1025 665 1025 q 825 1001 792 1025 q 879 928 858 976 q 926 727 913 854 q 939 435 939 600 q 925 196 939 289 q 875 58 911 103 q 771 14 839 14 q 689 26 728 14 q 613 74 650 39 q 535 177 575 110 q 449 353 494 244 q 349 622 403 463 l 343 622 q 366 513 356 578 q 383 380 376 449 q 389 254 389 311 q 346 51 389 111 q 213 -10 303 -10 q 76 53 117 -10 q 35 247 35 117 q 38 388 35 310 q 48 551 42 467 q 64 711 54 635 q 122 917 81 847 q 253 988 164 988 m 375 1256 q 554 1185 479 1256 q 579 1188 572 1168 q 611 1255 590 1233 q 671 1276 632 1276 q 743 1206 743 1276 q 724 1140 743 1178 q 667 1075 706 1103 q 564 1047 628 1047 q 468 1072 508 1047 q 392 1140 428 1096 q 363 1129 371 1168 q 331 1059 353 1081 q 268 1038 308 1038 q 211 1060 233 1038 q 189 1113 189 1082 q 213 1183 189 1150 q 279 1235 238 1215 q 375 1256 321 1256 z "},"Ŋ":{"ha":967,"x_min":35,"x_max":939,"o":"m 693 -294 q 572 -251 618 -294 q 526 -144 526 -208 q 552 -76 526 -103 q 625 -50 578 -50 q 749 -108 682 -50 q 694 25 718 -42 q 616 72 654 38 q 537 174 578 107 q 450 350 496 240 q 349 622 404 460 l 343 622 q 366 513 356 578 q 383 380 376 449 q 389 254 389 311 q 346 51 389 111 q 213 -10 303 -10 q 76 53 117 -10 q 35 247 35 117 q 38 388 35 310 q 48 551 42 467 q 64 711 54 635 q 122 917 81 847 q 253 988 164 988 q 352 963 307 988 q 440 879 397 939 q 526 714 482 819 q 624 446 571 608 l 629 446 q 608 565 618 499 q 593 695 599 632 q 588 799 588 758 q 626 972 588 918 q 738 1025 665 1025 q 825 1001 792 1025 q 879 928 858 976 q 926 727 913 854 q 939 435 939 600 q 938 274 939 340 q 936 160 938 208 q 931 69 935 113 q 921 -22 928 26 q 845 -232 901 -169 q 693 -294 789 -294 z "},"O":{"ha":1071,"x_min":21,"x_max":1050,"o":"m 518 10 q 255 64 367 10 q 82 219 143 118 q 21 457 21 319 q 83 725 21 610 q 258 905 144 840 q 522 969 371 969 q 801 907 683 969 q 985 733 919 844 q 1050 472 1050 621 q 985 226 1050 329 q 800 66 919 122 q 518 10 681 10 m 540 390 q 663 432 617 390 q 708 536 708 474 q 663 640 708 599 q 540 682 617 682 q 418 640 464 682 q 372 536 372 599 q 418 432 372 474 q 540 390 464 390 z "},"Ó":{"ha":1071,"x_min":21,"x_max":1050,"o":"m 518 10 q 255 64 367 10 q 82 219 143 118 q 21 457 21 319 q 83 725 21 610 q 258 905 144 840 q 522 969 371 969 q 801 907 683 969 q 985 733 919 844 q 1050 472 1050 621 q 985 226 1050 329 q 800 66 919 122 q 518 10 681 10 m 540 390 q 663 432 617 390 q 708 536 708 474 q 663 640 708 599 q 540 682 617 682 q 418 640 464 682 q 372 536 372 599 q 418 432 372 474 q 540 390 464 390 m 392 1035 q 427 1087 392 1058 q 518 1149 463 1115 q 609 1194 567 1174 q 688 1214 651 1214 q 742 1192 719 1214 q 778 1142 765 1171 q 792 1089 792 1113 q 766 1042 792 1060 q 683 1011 740 1024 q 598 998 644 1003 q 509 991 551 993 q 440 989 467 989 q 405 1003 418 989 q 392 1035 392 1017 z "},"Ô":{"ha":1071,"x_min":21,"x_max":1050,"o":"m 518 10 q 255 64 367 10 q 82 219 143 118 q 21 457 21 319 q 83 725 21 610 q 258 905 144 840 q 522 969 371 969 q 801 907 683 969 q 985 733 919 844 q 1050 472 1050 621 q 985 226 1050 329 q 800 66 919 122 q 518 10 681 10 m 540 390 q 663 432 617 390 q 708 536 708 474 q 663 640 708 599 q 540 682 617 682 q 418 640 464 682 q 372 536 372 599 q 418 432 372 474 q 540 390 464 390 m 542 1235 q 606 1222 565 1235 q 686 1188 646 1208 q 763 1139 735 1163 q 792 1086 792 1115 q 760 1015 792 1042 q 681 989 728 989 q 601 1023 643 989 q 526 1117 558 1057 q 436 1014 481 1046 q 360 982 392 982 q 303 1004 325 982 q 281 1058 281 1026 q 311 1118 281 1090 q 389 1176 342 1146 q 469 1217 429 1200 q 542 1235 510 1235 z "},"Ö":{"ha":1071,"x_min":21,"x_max":1050,"o":"m 518 10 q 255 64 367 10 q 82 219 143 118 q 21 457 21 319 q 83 725 21 610 q 258 905 144 840 q 522 969 371 969 q 801 907 683 969 q 985 733 919 844 q 1050 472 1050 621 q 985 226 1050 329 q 800 66 919 122 q 518 10 681 10 m 540 390 q 663 432 617 390 q 708 536 708 474 q 663 640 708 599 q 540 682 617 682 q 418 640 464 682 q 372 536 372 599 q 418 432 372 474 q 540 390 464 390 m 693 1217 q 791 1183 761 1217 q 821 1104 821 1149 q 784 1019 821 1049 q 679 990 747 990 q 583 1023 615 990 q 551 1100 551 1056 q 590 1187 551 1157 q 693 1217 629 1217 m 374 983 q 281 1015 310 983 q 251 1086 251 1046 q 290 1173 251 1143 q 399 1203 329 1203 q 491 1169 461 1203 q 521 1090 521 1136 q 480 1010 521 1038 q 374 983 439 983 z "},"Ò":{"ha":1071,"x_min":21,"x_max":1050,"o":"m 518 10 q 255 64 367 10 q 82 219 143 118 q 21 457 21 319 q 83 725 21 610 q 258 905 144 840 q 522 969 371 969 q 801 907 683 969 q 985 733 919 844 q 1050 472 1050 621 q 985 226 1050 329 q 800 66 919 122 q 518 10 681 10 m 540 390 q 663 432 617 390 q 708 536 708 474 q 663 640 708 599 q 540 682 617 682 q 418 640 464 682 q 372 536 372 599 q 418 432 372 474 q 540 390 464 390 m 681 1035 q 668 1003 681 1017 q 632 989 656 989 q 563 991 606 989 q 475 998 521 993 q 389 1011 429 1003 q 306 1042 332 1024 q 281 1089 281 1060 q 294 1142 281 1113 q 331 1192 307 1171 q 385 1214 354 1214 q 464 1194 421 1214 q 554 1149 507 1174 q 646 1087 611 1115 q 681 1035 681 1058 z "},"Ő":{"ha":1071,"x_min":21,"x_max":1050,"o":"m 518 10 q 255 64 367 10 q 82 219 143 118 q 21 457 21 319 q 83 725 21 610 q 258 905 144 840 q 522 969 371 969 q 801 907 683 969 q 985 733 919 844 q 1050 472 1050 621 q 985 226 1050 329 q 800 66 919 122 q 518 10 681 10 m 540 390 q 663 432 617 390 q 708 536 708 474 q 663 640 708 599 q 540 682 617 682 q 418 640 464 682 q 372 536 372 599 q 418 432 372 474 q 540 390 464 390 m 644 986 q 617 997 628 986 q 606 1025 606 1007 q 619 1078 606 1044 q 657 1153 633 1113 q 721 1248 690 1206 q 794 1290 751 1290 q 842 1277 817 1290 q 884 1244 867 1264 q 901 1206 901 1225 q 846 1119 901 1171 q 785 1071 819 1096 q 720 1026 751 1046 q 669 993 689 1006 q 644 986 660 986 m 347 985 q 320 996 332 985 q 308 1024 308 1007 q 323 1078 308 1044 q 360 1151 338 1111 q 424 1247 393 1204 q 497 1289 454 1289 q 546 1276 521 1289 q 588 1244 571 1264 q 606 1204 606 1225 q 550 1118 606 1172 q 488 1069 522 1094 q 423 1024 454 1044 q 371 992 392 1004 q 347 985 361 985 z "},"Ō":{"ha":1071,"x_min":21,"x_max":1050,"o":"m 518 10 q 255 64 367 10 q 82 219 143 118 q 21 457 21 319 q 83 725 21 610 q 258 905 144 840 q 522 969 371 969 q 801 907 683 969 q 985 733 919 844 q 1050 472 1050 621 q 985 226 1050 329 q 800 66 919 122 q 518 10 681 10 m 540 390 q 663 432 617 390 q 708 536 708 474 q 663 640 708 599 q 540 682 617 682 q 418 640 464 682 q 372 536 372 599 q 418 432 372 474 q 540 390 464 390 m 378 988 q 282 1012 313 988 q 251 1076 251 1036 q 280 1138 251 1115 q 374 1176 308 1161 q 473 1194 418 1188 q 584 1203 528 1200 q 688 1206 640 1206 q 790 1181 760 1206 q 821 1113 821 1156 q 792 1048 821 1072 q 708 1013 763 1024 q 603 999 664 1006 q 482 990 542 993 q 378 988 422 988 z "},"Ø":{"ha":1071,"x_min":21,"x_max":1050,"o":"m 199 90 q 201 94 200 93 q 68 244 115 153 q 21 457 21 336 q 83 725 21 610 q 258 905 144 840 q 522 969 371 969 q 678 951 604 969 q 688 967 683 960 q 753 1038 724 1024 q 811 1038 783 1051 q 845 990 840 1024 q 821 896 850 957 q 990 724 929 833 q 1050 472 1050 614 q 985 226 1050 329 q 800 66 919 122 q 518 10 681 10 q 338 33 421 10 q 333 26 336 29 q 260 -52 290 -39 q 203 -53 229 -65 q 172 -6 176 -39 q 199 90 168 26 m 317 536 q 368 411 317 463 q 455 569 410 489 q 543 724 500 649 l 540 724 q 378 670 439 724 q 317 536 317 617 m 540 349 q 703 402 642 349 q 764 536 764 456 q 704 668 764 617 q 617 508 663 590 q 526 349 572 426 q 540 349 529 349 z "},"Õ":{"ha":1071,"x_min":21,"x_max":1050,"o":"m 518 10 q 255 64 367 10 q 82 219 143 118 q 21 457 21 319 q 83 725 21 610 q 258 905 144 840 q 522 969 371 969 q 801 907 683 969 q 985 733 919 844 q 1050 472 1050 621 q 985 226 1050 329 q 800 66 919 122 q 518 10 681 10 m 540 390 q 663 432 617 390 q 708 536 708 474 q 663 640 708 599 q 540 682 617 682 q 418 640 464 682 q 372 536 372 599 q 418 432 372 474 q 540 390 464 390 m 444 1199 q 624 1128 549 1199 q 649 1131 642 1111 q 681 1198 660 1176 q 740 1219 701 1219 q 813 1149 813 1219 q 794 1083 813 1121 q 736 1018 775 1046 q 633 990 697 990 q 538 1015 578 990 q 461 1083 497 1039 q 432 1072 440 1111 q 400 1002 422 1024 q 338 981 378 981 q 281 1003 303 981 q 258 1056 258 1025 q 283 1126 258 1093 q 349 1178 307 1158 q 444 1199 390 1199 z "},"Œ":{"ha":1485,"x_min":21,"x_max":1471,"o":"m 518 10 q 255 64 367 10 q 82 219 143 118 q 21 457 21 319 q 83 725 21 610 q 257 905 144 840 q 522 969 369 969 q 673 951 604 969 q 796 896 742 932 q 899 972 832 944 q 1053 1011 965 1000 q 1235 1022 1140 1022 q 1418 981 1365 1022 q 1471 863 1471 940 q 1409 742 1471 782 q 1218 703 1347 703 q 1126 705 1178 703 q 1018 711 1075 707 q 1021 607 1036 663 q 1132 624 1069 617 q 1246 631 1194 631 q 1394 599 1351 631 q 1436 519 1436 567 q 1388 433 1436 468 q 1222 397 1340 397 q 1022 413 1129 397 q 1029 353 1031 386 q 1015 293 1028 319 q 1140 316 1069 307 q 1272 325 1211 325 q 1419 292 1371 325 q 1468 183 1468 258 q 1449 103 1468 135 q 1385 47 1431 71 q 1294 17 1349 29 q 1177 -2 1239 4 q 1056 -8 1115 -8 q 789 72 864 -8 q 518 10 678 10 m 540 390 q 663 432 617 390 q 708 536 708 474 q 663 640 708 599 q 540 682 617 682 q 418 640 464 682 q 372 536 372 599 q 418 432 372 474 q 540 390 464 390 z "},"P":{"ha":847,"x_min":35,"x_max":833,"o":"m 476 999 q 747 914 660 999 q 833 692 833 829 q 790 528 833 597 q 672 420 746 458 q 503 382 597 382 q 444 386 475 382 q 379 400 413 390 q 397 295 390 353 q 403 190 403 238 q 356 42 403 93 q 217 -10 310 -10 q 106 24 146 -10 q 51 136 67 58 q 35 343 35 214 q 56 642 35 518 q 118 839 78 765 q 250 956 158 913 q 476 999 342 999 m 438 582 q 551 617 506 582 q 596 711 596 651 q 572 776 596 750 q 488 801 547 801 q 374 761 418 801 q 331 668 331 721 q 358 606 331 631 q 438 582 385 582 z "},"Þ":{"ha":847,"x_min":35,"x_max":833,"o":"m 217 -10 q 72 57 110 -10 q 35 246 35 124 l 35 833 q 81 982 35 931 q 221 1033 128 1033 q 316 1007 275 1033 q 357 908 357 981 q 349 858 357 882 q 331 808 342 833 q 392 846 350 832 q 490 860 433 860 q 749 775 664 860 q 833 553 833 690 q 790 389 833 458 q 669 281 746 319 q 494 243 593 243 q 442 247 472 243 q 379 261 413 251 q 399 210 394 235 q 403 160 403 186 q 356 28 403 67 q 217 -10 310 -10 m 438 443 q 551 478 506 443 q 596 572 596 513 q 572 637 596 611 q 488 663 547 663 q 374 622 418 663 q 331 529 331 582 q 358 467 331 492 q 438 443 385 443 z "},"Q":{"ha":1085,"x_min":21,"x_max":1117,"o":"m 494 10 q 242 67 349 10 q 78 227 136 124 q 21 468 21 331 q 86 748 21 626 q 271 939 151 869 q 550 1008 390 1008 q 761 969 667 1008 q 924 864 856 931 q 1028 710 992 797 q 1064 528 1064 624 q 967 247 1064 356 q 1077 192 1038 226 q 1117 104 1117 158 q 1082 15 1117 54 q 983 -25 1047 -25 q 890 8 938 -25 q 807 101 842 40 q 667 33 750 56 q 494 10 583 10 m 550 363 q 615 368 586 363 q 503 503 503 425 q 528 569 503 546 q 593 592 554 592 q 733 481 678 592 q 742 536 742 507 q 685 663 742 615 q 536 710 629 710 q 397 660 450 710 q 344 536 344 610 q 401 410 344 457 q 550 363 457 363 z "},"R":{"ha":935,"x_min":35,"x_max":917,"o":"m 224 -10 q 108 26 150 -10 q 51 142 67 61 q 35 357 35 222 q 139 853 35 701 q 310 987 204 947 q 539 1026 417 1026 q 825 942 733 1026 q 917 719 917 857 q 876 570 917 632 q 763 476 835 508 q 599 440 692 443 l 599 435 q 839 316 768 383 q 910 171 910 249 q 860 51 910 96 q 724 7 810 7 q 601 42 656 7 q 495 165 546 78 q 385 406 444 251 l 379 406 q 396 304 389 367 q 403 190 403 242 q 363 42 403 93 q 224 -10 322 -10 m 497 617 q 581 641 549 617 q 613 706 613 665 q 587 784 613 753 q 504 815 561 815 q 413 787 447 815 q 379 721 379 758 q 410 646 379 675 q 497 617 442 617 z "},"Ŕ":{"ha":935,"x_min":35,"x_max":917,"o":"m 224 -10 q 108 26 150 -10 q 51 142 67 61 q 35 357 35 222 q 139 853 35 701 q 310 987 204 947 q 539 1026 417 1026 q 825 942 733 1026 q 917 719 917 857 q 876 570 917 632 q 763 476 835 508 q 599 440 692 443 l 599 435 q 839 316 768 383 q 910 171 910 249 q 860 51 910 96 q 724 7 810 7 q 601 42 656 7 q 495 165 546 78 q 385 406 444 251 l 379 406 q 396 304 389 367 q 403 190 403 242 q 363 42 403 93 q 224 -10 322 -10 m 497 617 q 581 641 549 617 q 613 706 613 665 q 587 784 613 753 q 504 815 561 815 q 413 787 447 815 q 379 721 379 758 q 410 646 379 675 q 497 617 442 617 m 300 1092 q 335 1144 300 1115 q 426 1206 371 1172 q 517 1251 475 1231 q 596 1271 560 1271 q 651 1249 628 1271 q 687 1199 674 1228 q 700 1146 700 1169 q 674 1099 700 1117 q 592 1068 649 1081 q 506 1055 553 1060 q 417 1048 460 1050 q 349 1046 375 1046 q 313 1060 326 1046 q 300 1092 300 1074 z "},"Ř":{"ha":935,"x_min":35,"x_max":917,"o":"m 224 -10 q 108 26 150 -10 q 51 142 67 61 q 35 357 35 222 q 139 853 35 701 q 310 987 204 947 q 539 1026 417 1026 q 825 942 733 1026 q 917 719 917 857 q 876 570 917 632 q 763 476 835 508 q 599 440 692 443 l 599 435 q 839 316 768 383 q 910 171 910 249 q 860 51 910 96 q 724 7 810 7 q 601 42 656 7 q 495 165 546 78 q 385 406 444 251 l 379 406 q 396 304 389 367 q 403 190 403 242 q 363 42 403 93 q 224 -10 322 -10 m 497 617 q 581 641 549 617 q 613 706 613 665 q 587 784 613 753 q 504 815 561 815 q 413 787 447 815 q 379 721 379 758 q 410 646 379 675 q 497 617 442 617 m 450 1053 q 378 1071 418 1053 q 297 1111 338 1089 q 219 1170 250 1142 q 189 1229 189 1199 q 211 1283 189 1261 q 268 1306 233 1306 q 344 1274 300 1306 q 435 1171 389 1242 q 509 1265 467 1231 q 589 1299 551 1299 q 668 1272 636 1299 q 700 1201 700 1246 q 672 1149 700 1172 q 594 1100 643 1125 q 514 1066 554 1079 q 450 1053 474 1053 z "},"Ŗ":{"ha":935,"x_min":35,"x_max":917,"o":"m 224 -10 q 108 26 150 -10 q 51 142 67 61 q 35 357 35 222 q 139 853 35 701 q 310 987 204 947 q 539 1026 417 1026 q 825 942 733 1026 q 917 719 917 857 q 876 570 917 632 q 763 476 835 508 q 599 440 692 443 l 599 435 q 839 316 768 383 q 910 171 910 249 q 860 51 910 96 q 724 7 810 7 q 601 42 656 7 q 495 165 546 78 q 385 406 444 251 l 379 406 q 396 304 389 367 q 403 190 403 242 q 363 42 403 93 q 224 -10 322 -10 m 497 617 q 581 641 549 617 q 613 706 613 665 q 587 784 613 753 q 504 815 561 815 q 413 787 447 815 q 379 721 379 758 q 410 646 379 675 q 497 617 442 617 m 544 -310 q 447 -362 496 -362 q 415 -354 428 -362 q 403 -329 403 -346 q 412 -301 403 -319 q 450 -251 421 -282 q 340 -224 371 -250 q 310 -151 310 -197 q 323 -100 310 -125 q 369 -58 336 -75 q 458 -40 401 -40 q 564 -69 524 -40 q 604 -161 604 -99 q 590 -236 604 -196 q 544 -310 576 -276 z "},"S":{"ha":815,"x_min":14,"x_max":801,"o":"m 358 -4 q 236 6 297 -4 q 125 41 175 17 q 44 107 75 65 q 14 211 14 149 q 51 320 14 285 q 172 356 89 356 q 278 347 221 356 q 369 339 335 339 q 417 349 401 339 q 433 375 433 360 q 405 407 433 397 q 311 429 376 417 q 102 515 164 457 q 40 679 40 572 q 71 815 40 757 q 152 912 101 872 q 265 976 203 951 q 393 1011 328 1000 q 517 1022 458 1022 q 724 976 647 1022 q 801 838 801 929 q 756 720 801 765 q 614 675 710 675 q 540 678 582 675 q 461 684 499 681 q 401 688 424 688 q 336 657 336 688 q 360 625 336 639 q 454 594 383 611 q 642 526 572 567 q 741 431 711 485 q 771 307 771 376 q 719 144 771 214 q 574 35 667 74 q 358 -4 481 -4 z "},"Ś":{"ha":815,"x_min":14,"x_max":801,"o":"m 358 -4 q 236 6 297 -4 q 125 41 175 17 q 44 107 75 65 q 14 211 14 149 q 51 320 14 285 q 172 356 89 356 q 278 347 221 356 q 369 339 335 339 q 417 349 401 339 q 433 375 433 360 q 405 407 433 397 q 311 429 376 417 q 102 515 164 457 q 40 679 40 572 q 71 815 40 757 q 152 912 101 872 q 265 976 203 951 q 393 1011 328 1000 q 517 1022 458 1022 q 724 976 647 1022 q 801 838 801 929 q 756 720 801 765 q 614 675 710 675 q 540 678 582 675 q 461 684 499 681 q 401 688 424 688 q 336 657 336 688 q 360 625 336 639 q 454 594 383 611 q 642 526 572 567 q 741 431 711 485 q 771 307 771 376 q 719 144 771 214 q 574 35 667 74 q 358 -4 481 -4 m 250 1092 q 285 1144 250 1115 q 376 1206 321 1172 q 467 1251 425 1231 q 546 1271 510 1271 q 601 1249 578 1271 q 637 1199 624 1228 q 650 1146 650 1169 q 624 1099 650 1117 q 542 1068 599 1081 q 456 1055 503 1060 q 367 1048 410 1050 q 299 1046 325 1046 q 263 1060 276 1046 q 250 1092 250 1074 z "},"Š":{"ha":815,"x_min":14,"x_max":801,"o":"m 358 -4 q 236 6 297 -4 q 125 41 175 17 q 44 107 75 65 q 14 211 14 149 q 51 320 14 285 q 172 356 89 356 q 278 347 221 356 q 369 339 335 339 q 417 349 401 339 q 433 375 433 360 q 405 407 433 397 q 311 429 376 417 q 102 515 164 457 q 40 679 40 572 q 71 815 40 757 q 152 912 101 872 q 265 976 203 951 q 393 1011 328 1000 q 517 1022 458 1022 q 724 976 647 1022 q 801 838 801 929 q 756 720 801 765 q 614 675 710 675 q 540 678 582 675 q 461 684 499 681 q 401 688 424 688 q 336 657 336 688 q 360 625 336 639 q 454 594 383 611 q 642 526 572 567 q 741 431 711 485 q 771 307 771 376 q 719 144 771 214 q 574 35 667 74 q 358 -4 481 -4 m 400 1053 q 328 1071 368 1053 q 247 1111 288 1089 q 169 1170 200 1142 q 139 1229 139 1199 q 161 1283 139 1261 q 218 1306 183 1306 q 294 1274 250 1306 q 385 1171 339 1242 q 459 1265 417 1231 q 539 1299 501 1299 q 618 1272 586 1299 q 650 1201 650 1246 q 622 1149 650 1172 q 544 1100 593 1125 q 464 1066 504 1079 q 400 1053 424 1053 z "},"Ş":{"ha":815,"x_min":14,"x_max":801,"o":"m 358 -4 q 236 6 297 -4 q 125 41 175 17 q 44 107 75 65 q 14 211 14 149 q 51 320 14 285 q 172 356 89 356 q 278 347 221 356 q 369 339 335 339 q 417 349 401 339 q 433 375 433 360 q 405 407 433 397 q 311 429 376 417 q 102 515 164 457 q 40 679 40 572 q 71 815 40 757 q 152 912 101 872 q 265 976 203 951 q 393 1011 328 1000 q 517 1022 458 1022 q 724 976 647 1022 q 801 838 801 929 q 756 720 801 765 q 614 675 710 675 q 540 678 582 675 q 461 684 499 681 q 401 688 424 688 q 336 657 336 688 q 360 625 336 639 q 454 594 383 611 q 642 526 572 567 q 741 431 711 485 q 771 307 771 376 q 719 144 771 214 q 574 35 667 74 q 358 -4 481 -4 m 347 -289 q 263 -221 263 -289 q 283 -170 263 -186 q 331 -149 304 -154 q 412 -137 375 -139 q 471 -131 449 -136 q 483 -122 483 -131 q 463 -111 483 -115 q 335 -79 374 -93 q 296 -35 296 -65 q 315 4 296 -7 q 363 15 335 15 q 476 -2 419 15 q 572 -53 533 -19 q 610 -135 610 -86 q 575 -211 610 -176 q 481 -267 540 -246 q 347 -289 422 -289 z "},"Ș":{"ha":815,"x_min":14,"x_max":801,"o":"m 358 -4 q 236 6 297 -4 q 125 41 175 17 q 44 107 75 65 q 14 211 14 149 q 51 320 14 285 q 172 356 89 356 q 278 347 221 356 q 369 339 335 339 q 417 349 401 339 q 433 375 433 360 q 405 407 433 397 q 311 429 376 417 q 102 515 164 457 q 40 679 40 572 q 71 815 40 757 q 152 912 101 872 q 265 976 203 951 q 393 1011 328 1000 q 517 1022 458 1022 q 724 976 647 1022 q 801 838 801 929 q 756 720 801 765 q 614 675 710 675 q 540 678 582 675 q 461 684 499 681 q 401 688 424 688 q 336 657 336 688 q 360 625 336 639 q 454 594 383 611 q 642 526 572 567 q 741 431 711 485 q 771 307 771 376 q 719 144 771 214 q 574 35 667 74 q 358 -4 481 -4 m 494 -310 q 397 -362 446 -362 q 365 -354 378 -362 q 353 -329 353 -346 q 362 -301 353 -319 q 400 -251 371 -282 q 290 -224 321 -250 q 260 -151 260 -197 q 273 -100 260 -125 q 319 -58 286 -75 q 408 -40 351 -40 q 514 -69 474 -40 q 554 -161 554 -99 q 540 -236 554 -196 q 494 -310 526 -276 z "},"ẞ":{"ha":947,"x_min":44,"x_max":926,"o":"m 214 -10 q 91 42 138 -10 q 44 192 44 94 q 51 371 44 285 q 68 572 58 457 q 79 693 72 622 q 96 835 86 764 q 149 962 108 925 q 256 1000 189 999 q 407 1001 329 1003 q 538 1000 485 1000 q 806 931 707 1000 q 906 731 906 863 q 851 596 906 653 q 697 507 796 539 q 869 411 811 469 q 926 263 926 353 q 841 69 926 144 q 601 -6 756 -6 q 459 38 504 -6 q 414 147 414 82 q 443 239 414 210 q 532 279 472 268 q 593 321 593 289 q 578 349 593 338 q 528 375 564 361 q 460 415 482 393 q 439 481 439 438 q 463 554 439 526 q 516 601 486 582 q 569 643 546 621 q 593 700 593 665 q 565 751 593 732 q 482 771 538 771 q 417 761 447 771 q 354 725 386 751 q 362 654 358 706 q 368 535 365 603 q 372 399 371 468 q 374 277 374 331 q 375 200 375 224 q 335 47 375 103 q 214 -10 296 -10 z "},"T":{"ha":844,"x_min":7,"x_max":838,"o":"m 439 1021 q 606 1012 539 1021 q 719 985 674 1003 q 813 908 789 956 q 838 799 838 860 q 794 665 838 717 q 663 614 750 614 q 519 636 597 614 q 569 488 549 567 q 601 337 590 408 q 613 217 613 265 q 565 49 613 108 q 408 -10 518 -10 q 211 200 211 -10 q 227 335 211 258 q 269 490 243 411 q 325 632 294 568 q 251 615 292 622 q 182 608 211 608 q 47 651 86 608 q 7 769 7 693 q 37 886 7 835 q 132 971 67 938 q 257 1009 183 997 q 439 1021 331 1021 z "},"Ť":{"ha":844,"x_min":7,"x_max":838,"o":"m 439 1021 q 606 1012 539 1021 q 719 985 674 1003 q 813 908 789 956 q 838 799 838 860 q 794 665 838 717 q 663 614 750 614 q 519 636 597 614 q 569 488 549 567 q 601 337 590 408 q 613 217 613 265 q 565 49 613 108 q 408 -10 518 -10 q 211 200 211 -10 q 227 335 211 258 q 269 490 243 411 q 325 632 294 568 q 251 615 292 622 q 182 608 211 608 q 47 651 86 608 q 7 769 7 693 q 37 886 7 835 q 132 971 67 938 q 257 1009 183 997 q 439 1021 331 1021 m 428 1053 q 356 1071 396 1053 q 275 1111 315 1089 q 197 1170 228 1142 q 167 1229 167 1199 q 189 1283 167 1261 q 246 1306 211 1306 q 322 1274 278 1306 q 413 1171 367 1242 q 487 1265 444 1231 q 567 1299 529 1299 q 646 1272 614 1299 q 678 1201 678 1246 q 649 1149 678 1172 q 572 1100 621 1125 q 492 1066 532 1079 q 428 1053 451 1053 z "},"Ț":{"ha":844,"x_min":7,"x_max":838,"o":"m 439 1021 q 606 1012 539 1021 q 719 985 674 1003 q 813 908 789 956 q 838 799 838 860 q 794 665 838 717 q 663 614 750 614 q 519 636 597 614 q 569 488 549 567 q 601 337 590 408 q 613 217 613 265 q 565 49 613 108 q 408 -10 518 -10 q 211 200 211 -10 q 227 335 211 258 q 269 490 243 411 q 325 632 294 568 q 251 615 292 622 q 182 608 211 608 q 47 651 86 608 q 7 769 7 693 q 37 886 7 835 q 132 971 67 938 q 257 1009 183 997 q 439 1021 331 1021 m 522 -310 q 425 -362 474 -362 q 393 -354 406 -362 q 381 -329 381 -346 q 390 -301 381 -319 q 428 -251 399 -282 q 318 -224 349 -250 q 288 -151 288 -197 q 301 -100 288 -125 q 347 -58 314 -75 q 436 -40 379 -40 q 542 -69 501 -40 q 582 -161 582 -99 q 568 -236 582 -196 q 522 -310 554 -276 z "},"U":{"ha":913,"x_min":35,"x_max":878,"o":"m 438 -11 q 129 87 224 -11 q 35 408 35 185 q 39 556 35 481 q 52 702 43 632 q 72 825 61 772 q 135 948 90 903 q 261 993 181 993 q 376 957 335 993 q 417 850 417 921 q 407 772 417 822 q 385 664 397 722 q 364 551 374 606 q 354 458 354 496 q 383 379 354 403 q 460 356 411 356 q 560 458 560 356 q 554 549 560 493 q 542 665 549 604 q 529 776 535 725 q 524 853 524 826 q 676 1015 524 1015 q 792 975 751 1015 q 847 854 832 935 q 864 736 857 806 q 874 592 871 667 q 878 451 878 518 q 832 185 878 288 q 690 36 786 83 q 438 -11 593 -11 z "},"Ú":{"ha":913,"x_min":35,"x_max":878,"o":"m 438 -11 q 129 87 224 -11 q 35 408 35 185 q 39 556 35 481 q 52 702 43 632 q 72 825 61 772 q 135 948 90 903 q 261 993 181 993 q 376 957 335 993 q 417 850 417 921 q 407 772 417 822 q 385 664 397 722 q 364 551 374 606 q 354 458 354 496 q 383 379 354 403 q 460 356 411 356 q 560 458 560 356 q 554 549 560 493 q 542 665 549 604 q 529 776 535 725 q 524 853 524 826 q 676 1015 524 1015 q 792 975 751 1015 q 847 854 832 935 q 864 736 857 806 q 874 592 871 667 q 878 451 878 518 q 832 185 878 288 q 690 36 786 83 q 438 -11 593 -11 m 306 1078 q 341 1130 306 1101 q 432 1192 376 1158 q 523 1237 481 1217 q 601 1257 565 1257 q 656 1235 633 1257 q 692 1185 679 1214 q 706 1132 706 1156 q 680 1085 706 1103 q 597 1054 654 1067 q 512 1041 558 1046 q 423 1034 465 1036 q 354 1032 381 1032 q 319 1046 332 1032 q 306 1078 306 1060 z "},"Ŭ":{"ha":913,"x_min":35,"x_max":878,"o":"m 438 -11 q 129 87 224 -11 q 35 408 35 185 q 39 556 35 481 q 52 702 43 632 q 72 825 61 772 q 135 948 90 903 q 261 993 181 993 q 376 957 335 993 q 417 850 417 921 q 407 772 417 822 q 385 664 397 722 q 364 551 374 606 q 354 458 354 496 q 383 379 354 403 q 460 356 411 356 q 560 458 560 356 q 554 549 560 493 q 542 665 549 604 q 529 776 535 725 q 524 853 524 826 q 676 1015 524 1015 q 792 975 751 1015 q 847 854 832 935 q 864 736 857 806 q 874 592 871 667 q 878 451 878 518 q 832 185 878 288 q 690 36 786 83 q 438 -11 593 -11 m 450 1033 q 291 1081 349 1033 q 233 1192 233 1128 q 306 1263 233 1263 q 388 1196 372 1263 q 407 1153 394 1167 q 449 1139 419 1139 q 488 1151 475 1139 q 506 1188 500 1163 q 536 1253 517 1229 q 594 1276 556 1276 q 649 1256 631 1276 q 667 1199 667 1235 q 610 1083 667 1133 q 450 1033 554 1033 z "},"Û":{"ha":913,"x_min":35,"x_max":878,"o":"m 438 -11 q 129 87 224 -11 q 35 408 35 185 q 39 556 35 481 q 52 702 43 632 q 72 825 61 772 q 135 948 90 903 q 261 993 181 993 q 376 957 335 993 q 417 850 417 921 q 407 772 417 822 q 385 664 397 722 q 364 551 374 606 q 354 458 354 496 q 383 379 354 403 q 460 356 411 356 q 560 458 560 356 q 554 549 560 493 q 542 665 549 604 q 529 776 535 725 q 524 853 524 826 q 676 1015 524 1015 q 792 975 751 1015 q 847 854 832 935 q 864 736 857 806 q 874 592 871 667 q 878 451 878 518 q 832 185 878 288 q 690 36 786 83 q 438 -11 593 -11 m 456 1278 q 519 1265 479 1278 q 600 1231 560 1251 q 677 1182 649 1206 q 706 1129 706 1158 q 674 1058 706 1085 q 594 1032 642 1032 q 515 1066 557 1032 q 440 1160 472 1100 q 350 1057 394 1089 q 274 1025 306 1025 q 217 1047 239 1025 q 194 1101 194 1069 q 225 1161 194 1133 q 303 1219 256 1189 q 383 1260 343 1243 q 456 1278 424 1278 z "},"Ü":{"ha":913,"x_min":35,"x_max":878,"o":"m 438 -11 q 129 87 224 -11 q 35 408 35 185 q 39 556 35 481 q 52 702 43 632 q 72 825 61 772 q 135 948 90 903 q 261 993 181 993 q 376 957 335 993 q 417 850 417 921 q 407 772 417 822 q 385 664 397 722 q 364 551 374 606 q 354 458 354 496 q 383 379 354 403 q 460 356 411 356 q 560 458 560 356 q 554 549 560 493 q 542 665 549 604 q 529 776 535 725 q 524 853 524 826 q 676 1015 524 1015 q 792 975 751 1015 q 847 854 832 935 q 864 736 857 806 q 874 592 871 667 q 878 451 878 518 q 832 185 878 288 q 690 36 786 83 q 438 -11 593 -11 m 607 1260 q 705 1226 675 1260 q 735 1147 735 1192 q 698 1063 735 1092 q 593 1033 661 1033 q 497 1066 529 1033 q 465 1143 465 1099 q 504 1230 465 1200 q 607 1260 543 1260 m 288 1026 q 194 1058 224 1026 q 165 1129 165 1089 q 204 1216 165 1186 q 313 1246 243 1246 q 405 1213 375 1246 q 435 1133 435 1179 q 394 1053 435 1081 q 288 1026 353 1026 z "},"Ù":{"ha":913,"x_min":35,"x_max":878,"o":"m 438 -11 q 129 87 224 -11 q 35 408 35 185 q 39 556 35 481 q 52 702 43 632 q 72 825 61 772 q 135 948 90 903 q 261 993 181 993 q 376 957 335 993 q 417 850 417 921 q 407 772 417 822 q 385 664 397 722 q 364 551 374 606 q 354 458 354 496 q 383 379 354 403 q 460 356 411 356 q 560 458 560 356 q 554 549 560 493 q 542 665 549 604 q 529 776 535 725 q 524 853 524 826 q 676 1015 524 1015 q 792 975 751 1015 q 847 854 832 935 q 864 736 857 806 q 874 592 871 667 q 878 451 878 518 q 832 185 878 288 q 690 36 786 83 q 438 -11 593 -11 m 594 1078 q 582 1046 594 1060 q 546 1032 569 1032 q 477 1034 519 1032 q 389 1041 435 1036 q 303 1054 343 1046 q 220 1085 246 1067 q 194 1132 194 1103 q 208 1185 194 1156 q 244 1235 221 1214 q 299 1257 268 1257 q 378 1237 335 1257 q 468 1192 421 1217 q 560 1130 525 1158 q 594 1078 594 1101 z "},"Ű":{"ha":913,"x_min":35,"x_max":878,"o":"m 438 -11 q 129 87 224 -11 q 35 408 35 185 q 39 556 35 481 q 52 702 43 632 q 72 825 61 772 q 135 948 90 903 q 261 993 181 993 q 376 957 335 993 q 417 850 417 921 q 407 772 417 822 q 385 664 397 722 q 364 551 374 606 q 354 458 354 496 q 383 379 354 403 q 460 356 411 356 q 560 458 560 356 q 554 549 560 493 q 542 665 549 604 q 529 776 535 725 q 524 853 524 826 q 676 1015 524 1015 q 792 975 751 1015 q 847 854 832 935 q 864 736 857 806 q 874 592 871 667 q 878 451 878 518 q 832 185 878 288 q 690 36 786 83 q 438 -11 593 -11 m 558 1029 q 531 1040 542 1029 q 519 1068 519 1050 q 533 1122 519 1088 q 571 1196 547 1156 q 635 1291 604 1249 q 708 1333 665 1333 q 756 1320 731 1333 q 798 1288 781 1307 q 815 1249 815 1268 q 760 1163 815 1214 q 699 1114 733 1139 q 634 1069 665 1089 q 583 1036 603 1049 q 558 1029 574 1029 m 261 1028 q 234 1039 246 1028 q 222 1067 222 1050 q 237 1121 222 1088 q 274 1194 251 1154 q 338 1290 307 1247 q 411 1332 368 1332 q 460 1319 435 1332 q 502 1288 485 1307 q 519 1247 519 1268 q 464 1161 519 1215 q 402 1113 436 1138 q 337 1067 368 1088 q 285 1035 306 1047 q 261 1028 275 1028 z "},"Ū":{"ha":913,"x_min":35,"x_max":878,"o":"m 438 -11 q 129 87 224 -11 q 35 408 35 185 q 39 556 35 481 q 52 702 43 632 q 72 825 61 772 q 135 948 90 903 q 261 993 181 993 q 376 957 335 993 q 417 850 417 921 q 407 772 417 822 q 385 664 397 722 q 364 551 374 606 q 354 458 354 496 q 383 379 354 403 q 460 356 411 356 q 560 458 560 356 q 554 549 560 493 q 542 665 549 604 q 529 776 535 725 q 524 853 524 826 q 676 1015 524 1015 q 792 975 751 1015 q 847 854 832 935 q 864 736 857 806 q 874 592 871 667 q 878 451 878 518 q 832 185 878 288 q 690 36 786 83 q 438 -11 593 -11 m 292 1031 q 196 1055 226 1031 q 165 1119 165 1079 q 194 1181 165 1158 q 288 1219 222 1204 q 387 1237 332 1231 q 498 1246 442 1243 q 601 1249 554 1249 q 704 1224 674 1249 q 735 1156 735 1199 q 706 1091 735 1115 q 622 1056 676 1067 q 517 1042 578 1049 q 396 1033 456 1036 q 292 1031 336 1031 z "},"Ų":{"ha":913,"x_min":35,"x_max":878,"o":"m 438 -11 q 129 87 224 -11 q 35 408 35 185 q 39 556 35 481 q 52 702 43 632 q 72 825 61 772 q 135 948 90 903 q 261 993 181 993 q 376 957 335 993 q 417 850 417 921 q 407 772 417 822 q 385 664 397 722 q 364 551 374 606 q 354 458 354 496 q 383 379 354 403 q 460 356 411 356 q 560 458 560 356 q 554 549 560 493 q 542 665 549 604 q 529 776 535 725 q 524 853 524 826 q 676 1015 524 1015 q 792 975 751 1015 q 847 854 832 935 q 864 736 857 806 q 874 592 871 667 q 878 451 878 518 q 832 185 878 288 q 690 36 786 83 q 438 -11 593 -11 m 564 -293 q 426 -261 481 -293 q 371 -167 371 -229 q 415 -58 371 -106 q 563 39 460 -10 l 699 42 q 608 -43 642 1 q 574 -111 574 -87 q 593 -128 574 -128 q 619 -125 604 -128 q 650 -122 635 -122 q 701 -140 685 -122 q 718 -190 718 -158 q 678 -267 718 -242 q 564 -293 638 -293 z "},"Ů":{"ha":913,"x_min":35,"x_max":878,"o":"m 438 -11 q 129 87 224 -11 q 35 408 35 185 q 39 556 35 481 q 52 702 43 632 q 72 825 61 772 q 135 948 90 903 q 261 993 181 993 q 376 957 335 993 q 417 850 417 921 q 407 772 417 822 q 385 664 397 722 q 364 551 374 606 q 354 458 354 496 q 383 379 354 403 q 460 356 411 356 q 560 458 560 356 q 554 549 560 493 q 542 665 549 604 q 529 776 535 725 q 524 853 524 826 q 676 1015 524 1015 q 792 975 751 1015 q 847 854 832 935 q 864 736 857 806 q 874 592 871 667 q 878 451 878 518 q 832 185 878 288 q 690 36 786 83 q 438 -11 593 -11 m 447 1029 q 314 1059 367 1029 q 261 1151 261 1089 q 313 1256 261 1215 q 464 1297 365 1297 q 596 1259 554 1297 q 638 1168 638 1221 q 587 1068 638 1107 q 447 1029 536 1029 m 439 1114 q 510 1126 481 1114 q 539 1163 539 1139 q 517 1201 539 1186 q 450 1215 496 1215 q 382 1198 404 1215 q 360 1161 360 1181 q 382 1127 360 1140 q 439 1114 404 1114 z "},"V":{"ha":896,"x_min":21,"x_max":875,"o":"m 719 1026 q 839 963 803 1026 q 875 771 875 899 q 860 637 875 715 q 817 470 846 558 q 748 297 789 382 q 655 143 707 213 q 541 32 603 74 q 408 -10 479 -10 q 281 29 338 -10 q 181 134 224 68 q 107 282 138 200 q 58 450 76 364 q 30 616 39 536 q 21 756 21 696 q 74 941 21 883 q 224 999 128 999 q 333 951 299 999 q 382 790 368 903 q 399 657 389 736 q 421 485 410 578 q 440 296 432 393 l 446 296 q 482 488 463 392 q 521 672 501 585 q 556 828 540 760 q 614 978 579 931 q 719 1026 649 1026 z "},"W":{"ha":1133,"x_min":35,"x_max":1099,"o":"m 35 715 q 81 925 35 863 q 222 988 126 988 q 317 957 283 988 q 365 874 351 926 q 379 758 379 822 q 376 653 379 714 q 367 530 372 593 q 356 411 363 467 l 361 411 q 424 663 394 572 q 486 790 454 753 q 557 826 518 826 q 631 790 599 826 q 695 666 664 753 q 763 428 726 579 l 768 428 q 756 608 761 514 q 751 781 751 703 q 770 931 751 878 q 824 1004 789 983 q 904 1025 858 1025 q 1047 949 996 1025 q 1099 724 1099 872 q 1082 445 1099 588 q 1036 188 1065 303 q 967 41 1013 93 q 853 -11 922 -11 q 776 10 814 -11 q 700 83 738 31 q 629 228 663 135 q 567 464 596 321 l 561 464 q 499 234 532 322 q 429 99 467 146 q 350 33 392 51 q 260 15 308 15 q 145 65 188 15 q 79 231 103 114 q 62 342 69 279 q 48 474 54 406 q 38 605 42 542 q 35 715 35 668 z "},"Ẃ":{"ha":1133,"x_min":35,"x_max":1099,"o":"m 35 715 q 81 925 35 863 q 222 988 126 988 q 317 957 283 988 q 365 874 351 926 q 379 758 379 822 q 376 653 379 714 q 367 530 372 593 q 356 411 363 467 l 361 411 q 424 663 394 572 q 486 790 454 753 q 557 826 518 826 q 631 790 599 826 q 695 666 664 753 q 763 428 726 579 l 768 428 q 756 608 761 514 q 751 781 751 703 q 770 931 751 878 q 824 1004 789 983 q 904 1025 858 1025 q 1047 949 996 1025 q 1099 724 1099 872 q 1082 445 1099 588 q 1036 188 1065 303 q 967 41 1013 93 q 853 -11 922 -11 q 776 10 814 -11 q 700 83 738 31 q 629 228 663 135 q 567 464 596 321 l 561 464 q 499 234 532 322 q 429 99 467 146 q 350 33 392 51 q 260 15 308 15 q 145 65 188 15 q 79 231 103 114 q 62 342 69 279 q 48 474 54 406 q 38 605 42 542 q 35 715 35 668 m 422 1092 q 458 1144 422 1115 q 549 1206 493 1172 q 640 1251 597 1231 q 718 1271 682 1271 q 773 1249 750 1271 q 809 1199 796 1228 q 822 1146 822 1169 q 797 1099 822 1117 q 714 1068 771 1081 q 628 1055 675 1060 q 540 1048 582 1050 q 471 1046 497 1046 q 435 1060 449 1046 q 422 1092 422 1074 z "},"Ŵ":{"ha":1133,"x_min":35,"x_max":1099,"o":"m 35 715 q 81 925 35 863 q 222 988 126 988 q 317 957 283 988 q 365 874 351 926 q 379 758 379 822 q 376 653 379 714 q 367 530 372 593 q 356 411 363 467 l 361 411 q 424 663 394 572 q 486 790 454 753 q 557 826 518 826 q 631 790 599 826 q 695 666 664 753 q 763 428 726 579 l 768 428 q 756 608 761 514 q 751 781 751 703 q 770 931 751 878 q 824 1004 789 983 q 904 1025 858 1025 q 1047 949 996 1025 q 1099 724 1099 872 q 1082 445 1099 588 q 1036 188 1065 303 q 967 41 1013 93 q 853 -11 922 -11 q 776 10 814 -11 q 700 83 738 31 q 629 228 663 135 q 567 464 596 321 l 561 464 q 499 234 532 322 q 429 99 467 146 q 350 33 392 51 q 260 15 308 15 q 145 65 188 15 q 79 231 103 114 q 62 342 69 279 q 48 474 54 406 q 38 605 42 542 q 35 715 35 668 m 572 1292 q 636 1278 596 1292 q 717 1244 676 1265 q 794 1196 765 1219 q 822 1143 822 1172 q 790 1072 822 1099 q 711 1046 758 1046 q 631 1080 674 1046 q 557 1174 589 1114 q 467 1071 511 1103 q 390 1039 422 1039 q 333 1061 356 1039 q 311 1115 311 1083 q 342 1175 311 1147 q 419 1233 372 1203 q 500 1274 460 1257 q 572 1292 540 1292 z "},"Ẅ":{"ha":1133,"x_min":35,"x_max":1099,"o":"m 35 715 q 81 925 35 863 q 222 988 126 988 q 317 957 283 988 q 365 874 351 926 q 379 758 379 822 q 376 653 379 714 q 367 530 372 593 q 356 411 363 467 l 361 411 q 424 663 394 572 q 486 790 454 753 q 557 826 518 826 q 631 790 599 826 q 695 666 664 753 q 763 428 726 579 l 768 428 q 756 608 761 514 q 751 781 751 703 q 770 931 751 878 q 824 1004 789 983 q 904 1025 858 1025 q 1047 949 996 1025 q 1099 724 1099 872 q 1082 445 1099 588 q 1036 188 1065 303 q 967 41 1013 93 q 853 -11 922 -11 q 776 10 814 -11 q 700 83 738 31 q 629 228 663 135 q 567 464 596 321 l 561 464 q 499 234 532 322 q 429 99 467 146 q 350 33 392 51 q 260 15 308 15 q 145 65 188 15 q 79 231 103 114 q 62 342 69 279 q 48 474 54 406 q 38 605 42 542 q 35 715 35 668 m 724 1274 q 822 1240 792 1274 q 851 1161 851 1206 q 815 1076 851 1106 q 710 1047 778 1047 q 614 1080 646 1047 q 582 1157 582 1113 q 621 1244 582 1214 q 724 1274 660 1274 m 404 1040 q 311 1072 340 1040 q 282 1143 282 1103 q 321 1230 282 1200 q 429 1260 360 1260 q 522 1226 492 1260 q 551 1147 551 1193 q 510 1067 551 1094 q 404 1040 469 1040 z "},"Ẁ":{"ha":1133,"x_min":35,"x_max":1099,"o":"m 35 715 q 81 925 35 863 q 222 988 126 988 q 317 957 283 988 q 365 874 351 926 q 379 758 379 822 q 376 653 379 714 q 367 530 372 593 q 356 411 363 467 l 361 411 q 424 663 394 572 q 486 790 454 753 q 557 826 518 826 q 631 790 599 826 q 695 666 664 753 q 763 428 726 579 l 768 428 q 756 608 761 514 q 751 781 751 703 q 770 931 751 878 q 824 1004 789 983 q 904 1025 858 1025 q 1047 949 996 1025 q 1099 724 1099 872 q 1082 445 1099 588 q 1036 188 1065 303 q 967 41 1013 93 q 853 -11 922 -11 q 776 10 814 -11 q 700 83 738 31 q 629 228 663 135 q 567 464 596 321 l 561 464 q 499 234 532 322 q 429 99 467 146 q 350 33 392 51 q 260 15 308 15 q 145 65 188 15 q 79 231 103 114 q 62 342 69 279 q 48 474 54 406 q 38 605 42 542 q 35 715 35 668 m 711 1092 q 699 1060 711 1074 q 663 1046 686 1046 q 594 1048 636 1046 q 506 1055 551 1050 q 419 1068 460 1060 q 337 1099 363 1081 q 311 1146 311 1117 q 324 1199 311 1169 q 361 1249 338 1228 q 415 1271 385 1271 q 494 1251 451 1271 q 585 1206 538 1231 q 676 1144 642 1172 q 711 1092 711 1115 z "},"X":{"ha":1032,"x_min":14,"x_max":1018,"o":"m 199 -10 q 64 44 114 -10 q 14 176 14 97 q 93 359 14 268 q 322 506 172 450 l 322 511 q 131 624 193 558 q 69 769 69 690 q 99 878 69 832 q 173 949 128 924 q 267 974 218 974 q 440 882 374 974 q 519 631 507 790 l 525 631 q 600 858 553 771 q 706 985 647 944 q 824 1025 764 1025 q 924 997 881 1025 q 993 921 968 969 q 1018 811 1018 872 q 938 643 1018 718 q 711 524 857 568 l 711 518 q 934 382 864 464 q 1004 210 1004 300 q 972 101 1004 147 q 888 31 939 56 q 783 6 838 6 q 601 107 675 6 q 513 385 528 208 l 507 385 q 431 158 481 246 q 319 31 381 71 q 199 -10 258 -10 z "},"Y":{"ha":921,"x_min":7,"x_max":914,"o":"m 404 -12 q 274 29 324 -12 q 224 178 224 71 q 253 360 224 268 q 321 513 282 451 q 83 618 158 551 q 7 771 7 685 q 37 898 7 844 q 115 981 67 951 q 221 1010 164 1010 q 369 918 314 1010 q 440 674 425 826 l 446 674 q 517 877 472 800 q 617 990 563 954 q 726 1025 672 1025 q 865 962 815 1025 q 914 804 914 899 q 811 612 914 690 q 525 508 708 533 q 596 350 567 438 q 625 190 625 263 q 564 40 625 92 q 404 -12 503 -12 z "},"Ý":{"ha":921,"x_min":7,"x_max":914,"o":"m 404 -12 q 274 29 324 -12 q 224 178 224 71 q 253 360 224 268 q 321 513 282 451 q 83 618 158 551 q 7 771 7 685 q 37 898 7 844 q 115 981 67 951 q 221 1010 164 1010 q 369 918 314 1010 q 440 674 425 826 l 446 674 q 517 877 472 800 q 617 990 563 954 q 726 1025 672 1025 q 865 962 815 1025 q 914 804 914 899 q 811 612 914 690 q 525 508 708 533 q 596 350 567 438 q 625 190 625 263 q 564 40 625 92 q 404 -12 503 -12 m 317 1083 q 352 1135 317 1107 q 443 1197 388 1164 q 534 1242 492 1222 q 613 1263 576 1263 q 667 1241 644 1263 q 703 1190 690 1219 q 717 1138 717 1161 q 691 1090 717 1108 q 608 1060 665 1072 q 523 1047 569 1051 q 434 1040 476 1042 q 365 1038 392 1038 q 330 1051 343 1038 q 317 1083 317 1065 z "},"Ŷ":{"ha":921,"x_min":7,"x_max":914,"o":"m 404 -12 q 274 29 324 -12 q 224 178 224 71 q 253 360 224 268 q 321 513 282 451 q 83 618 158 551 q 7 771 7 685 q 37 898 7 844 q 115 981 67 951 q 221 1010 164 1010 q 369 918 314 1010 q 440 674 425 826 l 446 674 q 517 877 472 800 q 617 990 563 954 q 726 1025 672 1025 q 865 962 815 1025 q 914 804 914 899 q 811 612 914 690 q 525 508 708 533 q 596 350 567 438 q 625 190 625 263 q 564 40 625 92 q 404 -12 503 -12 m 467 1283 q 531 1270 490 1283 q 611 1236 571 1257 q 688 1188 660 1211 q 717 1135 717 1164 q 685 1064 717 1090 q 606 1038 653 1038 q 526 1072 568 1038 q 451 1165 483 1106 q 361 1063 406 1094 q 285 1031 317 1031 q 228 1053 250 1031 q 206 1107 206 1075 q 236 1167 206 1139 q 314 1225 267 1194 q 394 1266 354 1249 q 467 1283 435 1283 z "},"Ÿ":{"ha":921,"x_min":7,"x_max":914,"o":"m 404 -12 q 274 29 324 -12 q 224 178 224 71 q 253 360 224 268 q 321 513 282 451 q 83 618 158 551 q 7 771 7 685 q 37 898 7 844 q 115 981 67 951 q 221 1010 164 1010 q 369 918 314 1010 q 440 674 425 826 l 446 674 q 517 877 472 800 q 617 990 563 954 q 726 1025 672 1025 q 865 962 815 1025 q 914 804 914 899 q 811 612 914 690 q 525 508 708 533 q 596 350 567 438 q 625 190 625 263 q 564 40 625 92 q 404 -12 503 -12 m 618 1265 q 716 1231 686 1265 q 746 1153 746 1197 q 709 1068 746 1097 q 604 1039 672 1039 q 508 1072 540 1039 q 476 1149 476 1104 q 515 1235 476 1206 q 618 1265 554 1265 m 299 1032 q 206 1063 235 1032 q 176 1135 176 1094 q 215 1222 176 1192 q 324 1251 254 1251 q 416 1218 386 1251 q 446 1139 446 1185 q 405 1059 446 1086 q 299 1032 364 1032 z "},"Ỳ":{"ha":921,"x_min":7,"x_max":914,"o":"m 404 -12 q 274 29 324 -12 q 224 178 224 71 q 253 360 224 268 q 321 513 282 451 q 83 618 158 551 q 7 771 7 685 q 37 898 7 844 q 115 981 67 951 q 221 1010 164 1010 q 369 918 314 1010 q 440 674 425 826 l 446 674 q 517 877 472 800 q 617 990 563 954 q 726 1025 672 1025 q 865 962 815 1025 q 914 804 914 899 q 811 612 914 690 q 525 508 708 533 q 596 350 567 438 q 625 190 625 263 q 564 40 625 92 q 404 -12 503 -12 m 606 1083 q 593 1051 606 1065 q 557 1038 581 1038 q 488 1040 531 1038 q 400 1047 446 1042 q 314 1060 354 1051 q 231 1090 257 1072 q 206 1138 206 1108 q 219 1190 206 1161 q 256 1241 232 1219 q 310 1263 279 1263 q 389 1242 346 1263 q 479 1197 432 1222 q 571 1135 536 1164 q 606 1083 606 1107 z "},"Z":{"ha":843,"x_min":14,"x_max":829,"o":"m 14 208 q 63 363 14 285 q 224 528 113 442 q 519 717 335 615 l 519 719 q 407 688 468 703 q 289 663 346 672 q 193 654 232 654 q 58 693 100 654 q 15 804 15 732 q 89 956 15 913 q 258 1009 156 994 q 479 1024 360 1024 q 678 1008 601 1024 q 792 949 756 993 q 829 817 829 904 q 806 717 829 768 q 722 606 782 667 q 554 469 663 546 q 276 294 446 393 l 276 292 q 381 328 321 313 q 505 353 440 344 q 628 363 569 363 q 774 328 729 363 q 818 214 818 293 q 761 78 818 129 q 597 11 704 26 q 493 -1 550 4 q 381 -8 436 -6 q 282 -10 326 -10 q 80 47 146 -10 q 14 208 14 103 z "},"Ź":{"ha":843,"x_min":14,"x_max":829,"o":"m 14 208 q 63 363 14 285 q 224 528 113 442 q 519 717 335 615 l 519 719 q 407 688 468 703 q 289 663 346 672 q 193 654 232 654 q 58 693 100 654 q 15 804 15 732 q 89 956 15 913 q 258 1009 156 994 q 479 1024 360 1024 q 678 1008 601 1024 q 792 949 756 993 q 829 817 829 904 q 806 717 829 768 q 722 606 782 667 q 554 469 663 546 q 276 294 446 393 l 276 292 q 381 328 321 313 q 505 353 440 344 q 628 363 569 363 q 774 328 729 363 q 818 214 818 293 q 761 78 818 129 q 597 11 704 26 q 493 -1 550 4 q 381 -8 436 -6 q 282 -10 326 -10 q 80 47 146 -10 q 14 208 14 103 m 274 1092 q 309 1144 274 1115 q 400 1206 344 1172 q 491 1251 449 1231 q 569 1271 533 1271 q 624 1249 601 1271 q 660 1199 647 1228 q 674 1146 674 1169 q 648 1099 674 1117 q 565 1068 622 1081 q 480 1055 526 1060 q 391 1048 433 1050 q 322 1046 349 1046 q 287 1060 300 1046 q 274 1092 274 1074 z "},"Ž":{"ha":843,"x_min":14,"x_max":829,"o":"m 14 208 q 63 363 14 285 q 224 528 113 442 q 519 717 335 615 l 519 719 q 407 688 468 703 q 289 663 346 672 q 193 654 232 654 q 58 693 100 654 q 15 804 15 732 q 89 956 15 913 q 258 1009 156 994 q 479 1024 360 1024 q 678 1008 601 1024 q 792 949 756 993 q 829 817 829 904 q 806 717 829 768 q 722 606 782 667 q 554 469 663 546 q 276 294 446 393 l 276 292 q 381 328 321 313 q 505 353 440 344 q 628 363 569 363 q 774 328 729 363 q 818 214 818 293 q 761 78 818 129 q 597 11 704 26 q 493 -1 550 4 q 381 -8 436 -6 q 282 -10 326 -10 q 80 47 146 -10 q 14 208 14 103 m 424 1053 q 351 1071 392 1053 q 271 1111 311 1089 q 193 1170 224 1142 q 163 1229 163 1199 q 185 1283 163 1261 q 242 1306 207 1306 q 318 1274 274 1306 q 408 1171 363 1242 q 483 1265 440 1231 q 563 1299 525 1299 q 642 1272 610 1299 q 674 1201 674 1246 q 645 1149 674 1172 q 568 1100 617 1125 q 488 1066 528 1079 q 424 1053 447 1053 z "},"Ż":{"ha":843,"x_min":14,"x_max":829,"o":"m 14 208 q 63 363 14 285 q 224 528 113 442 q 519 717 335 615 l 519 719 q 407 688 468 703 q 289 663 346 672 q 193 654 232 654 q 58 693 100 654 q 15 804 15 732 q 89 956 15 913 q 258 1009 156 994 q 479 1024 360 1024 q 678 1008 601 1024 q 792 949 756 993 q 829 817 829 904 q 806 717 829 768 q 722 606 782 667 q 554 469 663 546 q 276 294 446 393 l 276 292 q 381 328 321 313 q 505 353 440 344 q 628 363 569 363 q 774 328 729 363 q 818 214 818 293 q 761 78 818 129 q 597 11 704 26 q 493 -1 550 4 q 381 -8 436 -6 q 282 -10 326 -10 q 80 47 146 -10 q 14 208 14 103 m 432 1315 q 555 1275 518 1315 q 592 1182 592 1235 q 546 1083 592 1118 q 418 1047 500 1047 q 298 1086 338 1047 q 258 1178 258 1125 q 306 1281 258 1246 q 432 1315 354 1315 z "},"a":{"ha":888,"x_min":14,"x_max":860,"o":"m 694 -14 q 598 13 626 -14 q 565 96 569 39 q 300 -18 483 -18 q 140 16 203 -18 q 45 106 76 50 q 14 229 14 161 q 99 412 14 344 q 326 479 185 479 q 447 463 393 479 q 542 418 500 447 q 495 544 535 507 q 385 582 456 582 q 313 572 351 582 q 235 551 275 561 q 153 540 194 540 q 66 570 97 540 q 35 647 35 600 q 89 761 35 711 q 233 840 143 811 q 426 869 322 869 q 663 819 563 869 q 803 663 763 768 q 847 490 833 586 q 860 286 860 394 q 843 103 860 168 q 790 12 826 38 q 694 -14 753 -14 m 422 189 q 478 198 450 189 q 526 224 507 207 q 546 267 546 242 q 513 319 546 303 q 435 336 479 336 q 350 314 382 336 q 318 258 318 292 q 347 208 318 228 q 422 189 375 189 z "},"á":{"ha":888,"x_min":14,"x_max":860,"o":"m 694 -14 q 598 13 626 -14 q 565 96 569 39 q 300 -18 483 -18 q 140 16 203 -18 q 45 106 76 50 q 14 229 14 161 q 99 412 14 344 q 326 479 185 479 q 447 463 393 479 q 542 418 500 447 q 495 544 535 507 q 385 582 456 582 q 313 572 351 582 q 235 551 275 561 q 153 540 194 540 q 66 570 97 540 q 35 647 35 600 q 89 761 35 711 q 233 840 143 811 q 426 869 322 869 q 663 819 563 869 q 803 663 763 768 q 847 490 833 586 q 860 286 860 394 q 843 103 860 168 q 790 12 826 38 q 694 -14 753 -14 m 422 189 q 478 198 450 189 q 526 224 507 207 q 546 267 546 242 q 513 319 546 303 q 435 336 479 336 q 350 314 382 336 q 318 258 318 292 q 347 208 318 228 q 422 189 375 189 m 279 947 q 315 999 279 971 q 406 1061 350 1028 q 497 1106 454 1086 q 575 1126 539 1126 q 630 1105 607 1126 q 666 1054 653 1083 q 679 1001 679 1025 q 653 954 679 972 q 571 924 628 936 q 485 910 532 915 q 397 903 439 906 q 328 901 354 901 q 292 915 306 901 q 279 947 279 929 z "},"ă":{"ha":888,"x_min":14,"x_max":860,"o":"m 694 -14 q 598 13 626 -14 q 565 96 569 39 q 300 -18 483 -18 q 140 16 203 -18 q 45 106 76 50 q 14 229 14 161 q 99 412 14 344 q 326 479 185 479 q 447 463 393 479 q 542 418 500 447 q 495 544 535 507 q 385 582 456 582 q 313 572 351 582 q 235 551 275 561 q 153 540 194 540 q 66 570 97 540 q 35 647 35 600 q 89 761 35 711 q 233 840 143 811 q 426 869 322 869 q 663 819 563 869 q 803 663 763 768 q 847 490 833 586 q 860 286 860 394 q 843 103 860 168 q 790 12 826 38 q 694 -14 753 -14 m 422 189 q 478 198 450 189 q 526 224 507 207 q 546 267 546 242 q 513 319 546 303 q 435 336 479 336 q 350 314 382 336 q 318 258 318 292 q 347 208 318 228 q 422 189 375 189 m 424 903 q 265 950 322 903 q 207 1061 207 997 q 279 1132 207 1132 q 361 1065 346 1132 q 381 1022 368 1036 q 422 1008 393 1008 q 461 1020 449 1008 q 479 1057 474 1032 q 510 1122 490 1099 q 568 1146 529 1146 q 622 1125 604 1146 q 640 1068 640 1104 q 584 953 640 1003 q 424 903 528 903 z "},"ǎ":{"ha":888,"x_min":14,"x_max":860,"o":"m 694 -14 q 598 13 626 -14 q 565 96 569 39 q 300 -18 483 -18 q 140 16 203 -18 q 45 106 76 50 q 14 229 14 161 q 99 412 14 344 q 326 479 185 479 q 447 463 393 479 q 542 418 500 447 q 495 544 535 507 q 385 582 456 582 q 313 572 351 582 q 235 551 275 561 q 153 540 194 540 q 66 570 97 540 q 35 647 35 600 q 89 761 35 711 q 233 840 143 811 q 426 869 322 869 q 663 819 563 869 q 803 663 763 768 q 847 490 833 586 q 860 286 860 394 q 843 103 860 168 q 790 12 826 38 q 694 -14 753 -14 m 422 189 q 478 198 450 189 q 526 224 507 207 q 546 267 546 242 q 513 319 546 303 q 435 336 479 336 q 350 314 382 336 q 318 258 318 292 q 347 208 318 228 q 422 189 375 189 m 429 908 q 357 926 397 908 q 276 967 317 944 q 199 1026 229 997 q 168 1085 168 1054 q 190 1139 168 1117 q 247 1161 213 1161 q 324 1129 279 1161 q 414 1026 368 1097 q 488 1120 446 1086 q 568 1154 531 1154 q 647 1128 615 1154 q 679 1057 679 1101 q 651 1004 679 1028 q 574 956 622 981 q 493 922 533 935 q 429 908 453 908 z "},"â":{"ha":888,"x_min":14,"x_max":860,"o":"m 694 -14 q 598 13 626 -14 q 565 96 569 39 q 300 -18 483 -18 q 140 16 203 -18 q 45 106 76 50 q 14 229 14 161 q 99 412 14 344 q 326 479 185 479 q 447 463 393 479 q 542 418 500 447 q 495 544 535 507 q 385 582 456 582 q 313 572 351 582 q 235 551 275 561 q 153 540 194 540 q 66 570 97 540 q 35 647 35 600 q 89 761 35 711 q 233 840 143 811 q 426 869 322 869 q 663 819 563 869 q 803 663 763 768 q 847 490 833 586 q 860 286 860 394 q 843 103 860 168 q 790 12 826 38 q 694 -14 753 -14 m 422 189 q 478 198 450 189 q 526 224 507 207 q 546 267 546 242 q 513 319 546 303 q 435 336 479 336 q 350 314 382 336 q 318 258 318 292 q 347 208 318 228 q 422 189 375 189 m 429 1147 q 493 1134 453 1147 q 574 1100 533 1121 q 651 1051 622 1075 q 679 999 679 1028 q 647 928 679 954 q 568 901 615 901 q 488 935 531 901 q 414 1029 446 969 q 324 926 368 958 q 247 894 279 894 q 190 917 213 894 q 168 971 168 939 q 199 1031 168 1003 q 276 1089 229 1058 q 357 1130 317 1113 q 429 1147 397 1147 z "},"ä":{"ha":888,"x_min":14,"x_max":860,"o":"m 694 -14 q 598 13 626 -14 q 565 96 569 39 q 300 -18 483 -18 q 140 16 203 -18 q 45 106 76 50 q 14 229 14 161 q 99 412 14 344 q 326 479 185 479 q 447 463 393 479 q 542 418 500 447 q 495 544 535 507 q 385 582 456 582 q 313 572 351 582 q 235 551 275 561 q 153 540 194 540 q 66 570 97 540 q 35 647 35 600 q 89 761 35 711 q 233 840 143 811 q 426 869 322 869 q 663 819 563 869 q 803 663 763 768 q 847 490 833 586 q 860 286 860 394 q 843 103 860 168 q 790 12 826 38 q 694 -14 753 -14 m 422 189 q 478 198 450 189 q 526 224 507 207 q 546 267 546 242 q 513 319 546 303 q 435 336 479 336 q 350 314 382 336 q 318 258 318 292 q 347 208 318 228 q 422 189 375 189 m 581 1129 q 678 1095 649 1129 q 708 1017 708 1061 q 672 932 708 961 q 567 903 635 903 q 471 935 503 903 q 439 1013 439 968 q 478 1099 439 1069 q 581 1129 517 1129 m 261 896 q 168 927 197 896 q 139 999 139 958 q 178 1085 139 1056 q 286 1115 217 1115 q 378 1082 349 1115 q 408 1003 408 1049 q 367 923 408 950 q 261 896 326 896 z "},"à":{"ha":888,"x_min":14,"x_max":860,"o":"m 694 -14 q 598 13 626 -14 q 565 96 569 39 q 300 -18 483 -18 q 140 16 203 -18 q 45 106 76 50 q 14 229 14 161 q 99 412 14 344 q 326 479 185 479 q 447 463 393 479 q 542 418 500 447 q 495 544 535 507 q 385 582 456 582 q 313 572 351 582 q 235 551 275 561 q 153 540 194 540 q 66 570 97 540 q 35 647 35 600 q 89 761 35 711 q 233 840 143 811 q 426 869 322 869 q 663 819 563 869 q 803 663 763 768 q 847 490 833 586 q 860 286 860 394 q 843 103 860 168 q 790 12 826 38 q 694 -14 753 -14 m 422 189 q 478 198 450 189 q 526 224 507 207 q 546 267 546 242 q 513 319 546 303 q 435 336 479 336 q 350 314 382 336 q 318 258 318 292 q 347 208 318 228 q 422 189 375 189 m 568 947 q 556 915 568 929 q 519 901 543 901 q 451 903 493 901 q 363 910 408 906 q 276 924 317 915 q 194 954 219 936 q 168 1001 168 972 q 181 1054 168 1025 q 218 1105 194 1083 q 272 1126 242 1126 q 351 1106 308 1126 q 442 1061 394 1086 q 533 999 499 1028 q 568 947 568 971 z "},"ā":{"ha":888,"x_min":14,"x_max":860,"o":"m 694 -14 q 598 13 626 -14 q 565 96 569 39 q 300 -18 483 -18 q 140 16 203 -18 q 45 106 76 50 q 14 229 14 161 q 99 412 14 344 q 326 479 185 479 q 447 463 393 479 q 542 418 500 447 q 495 544 535 507 q 385 582 456 582 q 313 572 351 582 q 235 551 275 561 q 153 540 194 540 q 66 570 97 540 q 35 647 35 600 q 89 761 35 711 q 233 840 143 811 q 426 869 322 869 q 663 819 563 869 q 803 663 763 768 q 847 490 833 586 q 860 286 860 394 q 843 103 860 168 q 790 12 826 38 q 694 -14 753 -14 m 422 189 q 478 198 450 189 q 526 224 507 207 q 546 267 546 242 q 513 319 546 303 q 435 336 479 336 q 350 314 382 336 q 318 258 318 292 q 347 208 318 228 q 422 189 375 189 m 265 900 q 169 924 200 900 q 139 989 139 949 q 167 1051 139 1028 q 261 1089 196 1074 q 360 1106 306 1100 q 472 1115 415 1113 q 575 1118 528 1118 q 678 1093 647 1118 q 708 1025 708 1068 q 679 960 708 985 q 596 925 650 936 q 490 912 551 918 q 369 903 429 906 q 265 900 310 900 z "},"ą":{"ha":888,"x_min":14,"x_max":860,"o":"m 694 -14 q 598 13 626 -14 q 565 96 569 39 q 300 -18 483 -18 q 140 16 203 -18 q 45 106 76 50 q 14 229 14 161 q 99 412 14 344 q 326 479 185 479 q 447 463 393 479 q 542 418 500 447 q 495 544 535 507 q 385 582 456 582 q 313 572 351 582 q 235 551 275 561 q 153 540 194 540 q 66 570 97 540 q 35 647 35 600 q 89 761 35 711 q 233 840 143 811 q 426 869 322 869 q 663 819 563 869 q 803 663 763 768 q 847 490 833 586 q 860 286 860 394 q 843 103 860 168 q 790 12 826 38 q 694 -14 753 -14 m 422 189 q 478 198 450 189 q 526 224 507 207 q 546 267 546 242 q 513 319 546 303 q 435 336 479 336 q 350 314 382 336 q 318 258 318 292 q 347 208 318 228 q 422 189 375 189 m 674 -293 q 535 -261 590 -293 q 481 -167 481 -229 q 525 -58 481 -106 q 672 39 569 -10 l 808 42 q 717 -43 751 1 q 683 -111 683 -87 q 703 -128 683 -128 q 729 -125 714 -128 q 760 -122 744 -122 q 811 -140 794 -122 q 828 -190 828 -158 q 788 -267 828 -242 q 674 -293 747 -293 z "},"å":{"ha":888,"x_min":14,"x_max":860,"o":"m 694 -14 q 598 13 626 -14 q 565 96 569 39 q 300 -18 483 -18 q 140 16 203 -18 q 45 106 76 50 q 14 229 14 161 q 99 412 14 344 q 326 479 185 479 q 447 463 393 479 q 542 418 500 447 q 495 544 535 507 q 385 582 456 582 q 313 572 351 582 q 235 551 275 561 q 153 540 194 540 q 66 570 97 540 q 35 647 35 600 q 89 761 35 711 q 233 840 143 811 q 426 869 322 869 q 663 819 563 869 q 803 663 763 768 q 847 490 833 586 q 860 286 860 394 q 843 103 860 168 q 790 12 826 38 q 694 -14 753 -14 m 422 189 q 478 198 450 189 q 526 224 507 207 q 546 267 546 242 q 513 319 546 303 q 435 336 479 336 q 350 314 382 336 q 318 258 318 292 q 347 208 318 228 q 422 189 375 189 m 421 899 q 288 928 340 899 q 235 1021 235 958 q 287 1126 235 1085 q 438 1167 339 1167 q 569 1128 528 1167 q 611 1038 611 1090 q 560 938 611 976 q 421 899 510 899 m 413 983 q 483 996 454 983 q 513 1032 513 1008 q 491 1070 513 1056 q 424 1085 469 1085 q 356 1067 378 1085 q 333 1031 333 1050 q 356 997 333 1010 q 413 983 378 983 z "},"ã":{"ha":888,"x_min":14,"x_max":860,"o":"m 694 -14 q 598 13 626 -14 q 565 96 569 39 q 300 -18 483 -18 q 140 16 203 -18 q 45 106 76 50 q 14 229 14 161 q 99 412 14 344 q 326 479 185 479 q 447 463 393 479 q 542 418 500 447 q 495 544 535 507 q 385 582 456 582 q 313 572 351 582 q 235 551 275 561 q 153 540 194 540 q 66 570 97 540 q 35 647 35 600 q 89 761 35 711 q 233 840 143 811 q 426 869 322 869 q 663 819 563 869 q 803 663 763 768 q 847 490 833 586 q 860 286 860 394 q 843 103 860 168 q 790 12 826 38 q 694 -14 753 -14 m 422 189 q 478 198 450 189 q 526 224 507 207 q 546 267 546 242 q 513 319 546 303 q 435 336 479 336 q 350 314 382 336 q 318 258 318 292 q 347 208 318 228 q 422 189 375 189 m 332 1111 q 511 1040 436 1111 q 536 1043 529 1024 q 568 1110 547 1089 q 628 1132 589 1132 q 700 1061 700 1132 q 681 996 700 1033 q 624 931 663 958 q 521 903 585 903 q 425 927 465 903 q 349 996 385 951 q 319 985 328 1024 q 288 915 310 936 q 225 893 265 893 q 168 915 190 893 q 146 968 146 938 q 170 1038 146 1006 q 236 1091 194 1071 q 332 1111 278 1111 z "},"æ":{"ha":1394,"x_min":14,"x_max":1388,"o":"m 300 -18 q 140 16 203 -18 q 45 106 76 50 q 14 229 14 161 q 99 412 14 344 q 326 479 185 479 q 447 463 393 479 q 542 418 500 447 q 495 544 535 507 q 385 582 456 582 q 313 572 351 582 q 235 551 275 561 q 153 540 194 540 q 66 570 97 540 q 35 647 35 600 q 87 761 35 711 q 225 840 139 811 q 413 869 311 869 q 584 840 507 869 q 710 753 661 811 q 1008 850 831 850 q 1253 784 1175 850 q 1331 611 1331 718 q 1288 464 1331 526 q 1168 368 1244 401 q 992 335 1092 335 q 913 339 951 335 q 840 351 874 343 q 890 282 847 303 q 1004 261 933 261 q 1120 277 1072 261 q 1205 309 1168 293 q 1274 325 1242 325 q 1325 313 1299 325 q 1369 274 1351 300 q 1388 203 1388 247 q 1292 50 1388 111 q 1013 -11 1197 -11 q 763 26 860 -11 q 615 133 667 64 q 300 -18 517 -18 m 932 474 q 1028 506 988 474 q 1068 586 1068 539 q 1046 636 1068 617 q 985 656 1024 656 q 917 639 949 656 q 865 596 885 622 q 846 538 846 569 q 869 490 846 507 q 932 474 892 474 m 422 189 q 478 198 450 189 q 526 224 507 207 q 546 267 546 242 q 513 319 546 303 q 435 336 479 336 q 350 314 382 336 q 318 258 318 292 q 347 208 318 228 q 422 189 375 189 z "},"b":{"ha":874,"x_min":28,"x_max":853,"o":"m 179 -14 q 99 11 132 -14 q 54 88 67 36 q 35 228 43 142 q 28 414 28 315 q 30 538 28 468 q 37 678 32 607 q 47 810 42 749 q 58 911 53 872 q 110 1038 72 992 q 221 1085 149 1085 q 335 1035 299 1085 q 371 915 371 986 q 366 815 371 871 q 351 696 361 758 q 436 788 383 753 q 567 822 489 822 q 776 726 699 822 q 853 425 853 629 q 810 186 853 282 q 692 42 767 90 q 521 -6 617 -6 q 394 29 449 -6 q 314 129 340 64 q 261 21 294 56 q 179 -14 228 -14 m 440 228 q 517 272 485 228 q 550 411 550 317 q 524 533 550 486 q 438 581 499 581 q 357 539 388 581 q 326 413 326 497 q 358 280 326 332 q 440 228 389 228 z "},"c":{"ha":782,"x_min":21,"x_max":775,"o":"m 411 -15 q 115 85 210 -15 q 21 363 21 185 q 77 606 21 500 q 240 773 133 713 q 494 833 346 833 q 703 781 631 833 q 775 633 775 728 q 731 528 775 567 q 606 490 688 490 q 516 494 557 490 q 443 497 475 497 q 338 408 338 497 q 365 349 338 368 q 440 329 393 329 q 516 338 471 329 q 606 347 561 347 q 711 312 669 347 q 753 208 753 276 q 668 45 753 106 q 411 -15 583 -15 z "},"ć":{"ha":782,"x_min":21,"x_max":775,"o":"m 411 -15 q 115 85 210 -15 q 21 363 21 185 q 77 606 21 500 q 240 773 133 713 q 494 833 346 833 q 703 781 631 833 q 775 633 775 728 q 731 528 775 567 q 606 490 688 490 q 516 494 557 490 q 443 497 475 497 q 338 408 338 497 q 365 349 338 368 q 440 329 393 329 q 516 338 471 329 q 606 347 561 347 q 711 312 669 347 q 753 208 753 276 q 668 45 753 106 q 411 -15 583 -15 m 229 939 q 265 991 229 963 q 356 1053 300 1019 q 447 1098 404 1078 q 525 1118 489 1118 q 580 1097 557 1118 q 616 1046 603 1075 q 629 993 629 1017 q 603 946 629 964 q 521 915 578 928 q 435 902 482 907 q 347 895 389 897 q 278 893 304 893 q 242 907 256 893 q 229 939 229 921 z "},"č":{"ha":782,"x_min":21,"x_max":775,"o":"m 411 -15 q 115 85 210 -15 q 21 363 21 185 q 77 606 21 500 q 240 773 133 713 q 494 833 346 833 q 703 781 631 833 q 775 633 775 728 q 731 528 775 567 q 606 490 688 490 q 516 494 557 490 q 443 497 475 497 q 338 408 338 497 q 365 349 338 368 q 440 329 393 329 q 516 338 471 329 q 606 347 561 347 q 711 312 669 347 q 753 208 753 276 q 668 45 753 106 q 411 -15 583 -15 m 379 900 q 307 918 347 900 q 226 958 267 936 q 149 1017 179 989 q 118 1076 118 1046 q 140 1131 118 1108 q 197 1153 163 1153 q 274 1121 229 1153 q 364 1018 318 1089 q 438 1112 396 1078 q 518 1146 481 1146 q 597 1119 565 1146 q 629 1049 629 1093 q 601 996 629 1019 q 524 947 572 972 q 443 913 483 926 q 379 900 403 900 z "},"ç":{"ha":782,"x_min":21,"x_max":775,"o":"m 411 -15 q 115 85 210 -15 q 21 363 21 185 q 77 606 21 500 q 240 773 133 713 q 494 833 346 833 q 703 781 631 833 q 775 633 775 728 q 731 528 775 567 q 606 490 688 490 q 516 494 557 490 q 443 497 475 497 q 338 408 338 497 q 365 349 338 368 q 440 329 393 329 q 516 338 471 329 q 606 347 561 347 q 711 312 669 347 q 753 208 753 276 q 668 45 753 106 q 411 -15 583 -15 m 326 -289 q 242 -221 242 -289 q 263 -170 242 -186 q 310 -149 283 -154 q 391 -137 354 -139 q 450 -131 428 -136 q 463 -122 463 -131 q 442 -111 463 -115 q 314 -79 353 -93 q 275 -35 275 -65 q 294 4 275 -7 q 342 15 314 15 q 456 -2 399 15 q 551 -53 513 -19 q 589 -135 589 -86 q 554 -211 589 -176 q 460 -267 519 -246 q 326 -289 401 -289 z "},"ċ":{"ha":782,"x_min":21,"x_max":775,"o":"m 411 -15 q 115 85 210 -15 q 21 363 21 185 q 77 606 21 500 q 240 773 133 713 q 494 833 346 833 q 703 781 631 833 q 775 633 775 728 q 731 528 775 567 q 606 490 688 490 q 516 494 557 490 q 443 497 475 497 q 338 408 338 497 q 365 349 338 368 q 440 329 393 329 q 516 338 471 329 q 606 347 561 347 q 711 312 669 347 q 753 208 753 276 q 668 45 753 106 q 411 -15 583 -15 m 388 1163 q 510 1122 474 1163 q 547 1029 547 1082 q 501 930 547 965 q 374 894 456 894 q 253 933 293 894 q 214 1025 214 972 q 262 1128 214 1093 q 388 1163 310 1163 z "},"d":{"ha":878,"x_min":21,"x_max":850,"o":"m 300 -19 q 95 83 169 -19 q 21 394 21 185 q 92 699 21 603 q 293 796 163 796 q 419 771 364 796 q 518 700 474 746 q 500 842 507 769 q 493 954 493 915 q 524 1058 493 1021 q 618 1094 554 1094 q 803 901 757 1094 q 827 753 817 843 q 844 566 838 664 q 850 382 850 468 q 827 142 850 228 q 763 21 804 56 q 668 -14 722 -14 q 588 18 613 -14 q 556 122 563 50 q 449 19 514 57 q 300 -19 383 -19 m 440 228 q 513 269 482 228 q 543 397 543 310 q 519 519 543 472 q 438 567 494 567 q 362 525 390 567 q 333 399 333 483 q 363 276 333 324 q 440 228 392 228 z "},"ð":{"ha":857,"x_min":21,"x_max":836,"o":"m 428 -19 q 128 72 236 -19 q 21 353 21 164 q 63 557 21 478 q 177 674 106 636 q 335 713 249 713 q 425 700 383 713 q 501 665 467 688 q 438 735 471 700 q 371 807 406 771 q 256 754 303 774 q 176 742 204 736 q 132 774 147 749 q 126 826 117 800 q 178 878 136 851 q 256 924 210 897 q 229 996 229 960 q 260 1088 229 1053 q 354 1122 290 1122 q 433 1105 392 1122 q 514 1058 474 1088 q 576 1086 550 1075 q 696 1067 663 1121 q 702 1010 713 1039 q 643 951 692 982 q 635 946 639 949 q 650 929 642 938 q 785 712 733 833 q 836 451 836 590 q 726 94 836 208 q 428 -19 617 -19 m 440 228 q 513 259 482 228 q 543 356 543 290 q 519 448 543 413 q 438 483 494 483 q 362 452 390 483 q 333 357 333 421 q 363 265 333 301 q 440 228 392 228 z "},"ď":{"ha":878,"x_min":21,"x_max":1154,"o":"m 300 -19 q 95 83 169 -19 q 21 394 21 185 q 92 699 21 603 q 293 796 163 796 q 419 771 364 796 q 518 700 474 746 q 500 842 507 769 q 493 954 493 915 q 524 1058 493 1021 q 618 1094 554 1094 q 803 901 757 1094 q 827 753 817 843 q 844 566 838 664 q 850 382 850 468 q 827 142 850 228 q 763 21 804 56 q 668 -14 722 -14 q 588 18 613 -14 q 556 122 563 50 q 449 19 514 57 q 300 -19 383 -19 m 440 228 q 513 269 482 228 q 543 397 543 310 q 519 519 543 472 q 438 567 494 567 q 362 525 390 567 q 333 399 333 483 q 363 276 333 324 q 440 228 392 228 m 908 839 q 890 899 890 854 q 900 1007 890 943 q 922 1103 911 1060 q 956 1174 932 1147 q 1010 1200 976 1197 q 1076 1193 1043 1203 q 1129 1168 1110 1183 q 1153 1118 1154 1149 q 1125 1038 1153 1088 q 1082 965 1107 1003 q 1031 896 1057 928 q 985 844 1006 864 q 945 827 967 828 q 908 839 924 826 z "},"đ":{"ha":885,"x_min":21,"x_max":968,"o":"m 300 -19 q 95 83 169 -19 q 21 394 21 185 q 92 699 21 603 q 293 796 163 796 q 419 771 364 796 q 518 700 474 746 q 503 817 510 756 q 397 811 447 813 q 308 810 346 810 q 209 835 239 810 q 179 904 179 861 q 206 974 179 944 q 306 1018 233 1004 q 401 1031 347 1025 q 511 1040 454 1036 q 618 1094 542 1094 q 726 1054 683 1094 q 831 1056 783 1056 q 938 1028 908 1056 q 968 956 968 1001 q 940 884 968 913 q 849 844 911 856 q 814 840 833 842 q 833 699 825 778 q 845 537 840 619 q 850 382 850 454 q 827 142 850 228 q 763 21 804 56 q 668 -14 722 -14 q 588 18 613 -14 q 556 122 563 50 q 449 19 514 57 q 300 -19 383 -19 m 440 228 q 513 269 482 228 q 543 397 543 310 q 519 519 543 472 q 438 567 494 567 q 362 525 390 567 q 333 399 333 483 q 363 276 333 324 q 440 228 392 228 z "},"e":{"ha":894,"x_min":21,"x_max":888,"o":"m 485 -11 q 213 35 314 -11 q 66 167 111 81 q 21 372 21 253 q 84 630 21 524 q 258 793 147 736 q 508 850 368 850 q 753 784 675 850 q 831 611 831 718 q 784 464 831 526 q 655 368 738 401 q 464 335 572 335 q 385 339 424 335 q 313 351 346 343 q 363 282 319 303 q 476 261 406 261 q 604 277 551 261 q 697 309 657 293 q 774 325 738 325 q 825 313 799 325 q 869 274 851 300 q 888 203 888 247 q 785 50 888 111 q 485 -11 683 -11 m 404 474 q 519 506 471 474 q 568 586 568 539 q 546 636 568 617 q 485 656 524 656 q 403 639 442 656 q 342 596 365 622 q 318 538 318 569 q 341 490 318 507 q 404 474 364 474 z "},"é":{"ha":894,"x_min":21,"x_max":888,"o":"m 485 -11 q 213 35 314 -11 q 66 167 111 81 q 21 372 21 253 q 84 630 21 524 q 258 793 147 736 q 508 850 368 850 q 753 784 675 850 q 831 611 831 718 q 784 464 831 526 q 655 368 738 401 q 464 335 572 335 q 385 339 424 335 q 313 351 346 343 q 363 282 319 303 q 476 261 406 261 q 604 277 551 261 q 697 309 657 293 q 774 325 738 325 q 825 313 799 325 q 869 274 851 300 q 888 203 888 247 q 785 50 888 111 q 485 -11 683 -11 m 404 474 q 519 506 471 474 q 568 586 568 539 q 546 636 568 617 q 485 656 524 656 q 403 639 442 656 q 342 596 365 622 q 318 538 318 569 q 341 490 318 507 q 404 474 364 474 m 307 928 q 342 980 307 951 q 433 1042 378 1008 q 524 1087 482 1067 q 603 1107 567 1107 q 658 1085 635 1107 q 694 1035 681 1064 q 707 982 707 1006 q 681 935 707 953 q 599 904 656 917 q 513 891 560 896 q 424 884 467 886 q 356 882 382 882 q 320 896 333 882 q 307 928 307 910 z "},"ě":{"ha":894,"x_min":21,"x_max":888,"o":"m 485 -11 q 213 35 314 -11 q 66 167 111 81 q 21 372 21 253 q 84 630 21 524 q 258 793 147 736 q 508 850 368 850 q 753 784 675 850 q 831 611 831 718 q 784 464 831 526 q 655 368 738 401 q 464 335 572 335 q 385 339 424 335 q 313 351 346 343 q 363 282 319 303 q 476 261 406 261 q 604 277 551 261 q 697 309 657 293 q 774 325 738 325 q 825 313 799 325 q 869 274 851 300 q 888 203 888 247 q 785 50 888 111 q 485 -11 683 -11 m 404 474 q 519 506 471 474 q 568 586 568 539 q 546 636 568 617 q 485 656 524 656 q 403 639 442 656 q 342 596 365 622 q 318 538 318 569 q 341 490 318 507 q 404 474 364 474 m 457 889 q 385 907 425 889 q 304 947 344 925 q 226 1006 257 978 q 196 1065 196 1035 q 218 1119 196 1097 q 275 1142 240 1142 q 351 1110 307 1142 q 442 1007 396 1078 q 516 1101 474 1067 q 596 1135 558 1135 q 675 1108 643 1135 q 707 1038 707 1082 q 678 985 707 1008 q 601 936 650 961 q 521 902 561 915 q 457 889 481 889 z "},"ê":{"ha":894,"x_min":21,"x_max":888,"o":"m 485 -11 q 213 35 314 -11 q 66 167 111 81 q 21 372 21 253 q 84 630 21 524 q 258 793 147 736 q 508 850 368 850 q 753 784 675 850 q 831 611 831 718 q 784 464 831 526 q 655 368 738 401 q 464 335 572 335 q 385 339 424 335 q 313 351 346 343 q 363 282 319 303 q 476 261 406 261 q 604 277 551 261 q 697 309 657 293 q 774 325 738 325 q 825 313 799 325 q 869 274 851 300 q 888 203 888 247 q 785 50 888 111 q 485 -11 683 -11 m 404 474 q 519 506 471 474 q 568 586 568 539 q 546 636 568 617 q 485 656 524 656 q 403 639 442 656 q 342 596 365 622 q 318 538 318 569 q 341 490 318 507 q 404 474 364 474 m 457 1128 q 521 1115 481 1128 q 601 1081 561 1101 q 678 1032 650 1056 q 707 979 707 1008 q 675 908 707 935 q 596 882 643 882 q 516 916 558 882 q 442 1010 474 950 q 351 907 396 939 q 275 875 307 875 q 218 897 240 875 q 196 951 196 919 q 226 1011 196 983 q 304 1069 257 1039 q 385 1110 344 1093 q 457 1128 425 1128 z "},"ë":{"ha":894,"x_min":21,"x_max":888,"o":"m 485 -11 q 213 35 314 -11 q 66 167 111 81 q 21 372 21 253 q 84 630 21 524 q 258 793 147 736 q 508 850 368 850 q 753 784 675 850 q 831 611 831 718 q 784 464 831 526 q 655 368 738 401 q 464 335 572 335 q 385 339 424 335 q 313 351 346 343 q 363 282 319 303 q 476 261 406 261 q 604 277 551 261 q 697 309 657 293 q 774 325 738 325 q 825 313 799 325 q 869 274 851 300 q 888 203 888 247 q 785 50 888 111 q 485 -11 683 -11 m 404 474 q 519 506 471 474 q 568 586 568 539 q 546 636 568 617 q 485 656 524 656 q 403 639 442 656 q 342 596 365 622 q 318 538 318 569 q 341 490 318 507 q 404 474 364 474 m 608 1110 q 706 1076 676 1110 q 736 997 736 1042 q 699 913 736 942 q 594 883 663 883 q 499 916 531 883 q 467 993 467 949 q 506 1080 467 1050 q 608 1110 544 1110 m 289 876 q 196 908 225 876 q 167 979 167 939 q 206 1066 167 1036 q 314 1096 244 1096 q 406 1063 376 1096 q 436 983 436 1029 q 395 903 436 931 q 289 876 354 876 z "},"ė":{"ha":894,"x_min":21,"x_max":888,"o":"m 485 -11 q 213 35 314 -11 q 66 167 111 81 q 21 372 21 253 q 84 630 21 524 q 258 793 147 736 q 508 850 368 850 q 753 784 675 850 q 831 611 831 718 q 784 464 831 526 q 655 368 738 401 q 464 335 572 335 q 385 339 424 335 q 313 351 346 343 q 363 282 319 303 q 476 261 406 261 q 604 277 551 261 q 697 309 657 293 q 774 325 738 325 q 825 313 799 325 q 869 274 851 300 q 888 203 888 247 q 785 50 888 111 q 485 -11 683 -11 m 404 474 q 519 506 471 474 q 568 586 568 539 q 546 636 568 617 q 485 656 524 656 q 403 639 442 656 q 342 596 365 622 q 318 538 318 569 q 341 490 318 507 q 404 474 364 474 m 465 1151 q 588 1111 551 1151 q 625 1018 625 1071 q 579 919 625 954 q 451 883 533 883 q 331 922 371 883 q 292 1014 292 961 q 340 1117 292 1082 q 465 1151 388 1151 z "},"è":{"ha":894,"x_min":21,"x_max":888,"o":"m 485 -11 q 213 35 314 -11 q 66 167 111 81 q 21 372 21 253 q 84 630 21 524 q 258 793 147 736 q 508 850 368 850 q 753 784 675 850 q 831 611 831 718 q 784 464 831 526 q 655 368 738 401 q 464 335 572 335 q 385 339 424 335 q 313 351 346 343 q 363 282 319 303 q 476 261 406 261 q 604 277 551 261 q 697 309 657 293 q 774 325 738 325 q 825 313 799 325 q 869 274 851 300 q 888 203 888 247 q 785 50 888 111 q 485 -11 683 -11 m 404 474 q 519 506 471 474 q 568 586 568 539 q 546 636 568 617 q 485 656 524 656 q 403 639 442 656 q 342 596 365 622 q 318 538 318 569 q 341 490 318 507 q 404 474 364 474 m 596 928 q 583 896 596 910 q 547 882 571 882 q 478 884 521 882 q 390 891 436 886 q 304 904 344 896 q 222 935 247 917 q 196 982 196 953 q 209 1035 196 1006 q 246 1085 222 1064 q 300 1107 269 1107 q 379 1087 336 1107 q 469 1042 422 1067 q 561 980 526 1008 q 596 928 596 951 z "},"ē":{"ha":894,"x_min":21,"x_max":888,"o":"m 485 -11 q 213 35 314 -11 q 66 167 111 81 q 21 372 21 253 q 84 630 21 524 q 258 793 147 736 q 508 850 368 850 q 753 784 675 850 q 831 611 831 718 q 784 464 831 526 q 655 368 738 401 q 464 335 572 335 q 385 339 424 335 q 313 351 346 343 q 363 282 319 303 q 476 261 406 261 q 604 277 551 261 q 697 309 657 293 q 774 325 738 325 q 825 313 799 325 q 869 274 851 300 q 888 203 888 247 q 785 50 888 111 q 485 -11 683 -11 m 404 474 q 519 506 471 474 q 568 586 568 539 q 546 636 568 617 q 485 656 524 656 q 403 639 442 656 q 342 596 365 622 q 318 538 318 569 q 341 490 318 507 q 404 474 364 474 m 293 881 q 197 905 228 881 q 167 969 167 929 q 195 1031 167 1008 q 289 1069 224 1054 q 388 1087 333 1081 q 499 1096 443 1093 q 603 1099 556 1099 q 706 1074 675 1099 q 736 1006 736 1049 q 707 941 736 965 q 624 906 678 917 q 518 892 579 899 q 397 883 457 886 q 293 881 338 881 z "},"ę":{"ha":894,"x_min":21,"x_max":888,"o":"m 485 -11 q 213 35 314 -11 q 66 167 111 81 q 21 372 21 253 q 84 630 21 524 q 258 793 147 736 q 508 850 368 850 q 753 784 675 850 q 831 611 831 718 q 784 464 831 526 q 655 368 738 401 q 464 335 572 335 q 385 339 424 335 q 313 351 346 343 q 363 282 319 303 q 476 261 406 261 q 604 277 551 261 q 697 309 657 293 q 774 325 738 325 q 825 313 799 325 q 869 274 851 300 q 888 203 888 247 q 785 50 888 111 q 485 -11 683 -11 m 404 474 q 519 506 471 474 q 568 586 568 539 q 546 636 568 617 q 485 656 524 656 q 403 639 442 656 q 342 596 365 622 q 318 538 318 569 q 341 490 318 507 q 404 474 364 474 m 615 -293 q 477 -261 532 -293 q 422 -167 422 -229 q 467 -58 422 -106 q 614 39 511 -10 l 750 42 q 659 -43 693 1 q 625 -111 625 -87 q 644 -128 625 -128 q 671 -125 656 -128 q 701 -122 686 -122 q 753 -140 736 -122 q 769 -190 769 -158 q 729 -267 769 -242 q 615 -293 689 -293 z "},"f":{"ha":742,"x_min":7,"x_max":735,"o":"m 553 206 q 533 96 553 146 q 472 16 513 46 q 368 -14 431 -14 q 224 44 267 -14 q 181 190 181 103 q 195 356 181 261 q 238 542 210 450 q 156 526 203 526 q 46 560 85 526 q 7 661 7 593 q 50 772 7 733 q 165 811 93 811 q 242 800 206 811 q 231 892 231 849 q 293 1056 231 996 q 504 1117 356 1117 q 649 1085 604 1117 q 693 992 693 1053 q 585 876 693 888 q 511 856 531 871 q 490 800 492 842 q 575 818 529 818 q 691 785 647 818 q 735 675 735 753 q 689 564 735 601 q 574 526 643 526 q 535 529 556 526 q 494 538 515 532 q 537 370 521 461 q 553 206 553 279 z "},"g":{"ha":878,"x_min":21,"x_max":850,"o":"m 300 64 q 95 159 169 64 q 21 450 21 254 q 92 755 21 658 q 293 851 163 851 q 417 827 363 851 q 517 758 471 803 q 551 847 521 815 q 640 878 581 878 q 755 831 711 878 q 818 697 799 785 q 842 544 833 638 q 850 354 850 450 q 840 131 850 221 q 808 -19 831 40 q 750 -124 786 -79 q 577 -236 686 -200 q 329 -272 468 -272 q 163 -251 225 -272 q 72 -193 100 -229 q 44 -111 44 -157 q 72 -13 44 -53 q 154 26 99 26 q 263 21 206 26 q 385 15 319 15 q 524 50 483 15 q 565 150 565 85 q 563 206 565 174 q 455 102 522 140 q 300 64 388 64 m 440 297 q 513 335 482 297 q 543 467 543 372 q 519 589 543 542 q 438 636 494 636 q 362 594 390 636 q 333 468 333 553 q 363 342 333 388 q 440 297 392 297 z "},"ğ":{"ha":878,"x_min":21,"x_max":850,"o":"m 300 64 q 95 159 169 64 q 21 450 21 254 q 92 755 21 658 q 293 851 163 851 q 417 827 363 851 q 517 758 471 803 q 551 847 521 815 q 640 878 581 878 q 755 831 711 878 q 818 697 799 785 q 842 544 833 638 q 850 354 850 450 q 840 131 850 221 q 808 -19 831 40 q 750 -124 786 -79 q 577 -236 686 -200 q 329 -272 468 -272 q 163 -251 225 -272 q 72 -193 100 -229 q 44 -111 44 -157 q 72 -13 44 -53 q 154 26 99 26 q 263 21 206 26 q 385 15 319 15 q 524 50 483 15 q 565 150 565 85 q 563 206 565 174 q 455 102 522 140 q 300 64 388 64 m 440 297 q 513 335 482 297 q 543 467 543 372 q 519 589 543 542 q 438 636 494 636 q 362 594 390 636 q 333 468 333 553 q 363 342 333 388 q 440 297 392 297 m 453 894 q 294 942 351 894 q 236 1053 236 989 q 308 1124 236 1124 q 390 1057 375 1124 q 410 1014 397 1028 q 451 1000 422 1000 q 490 1012 478 1000 q 508 1049 503 1024 q 539 1114 519 1090 q 597 1138 558 1138 q 651 1117 633 1138 q 669 1060 669 1096 q 613 944 669 994 q 453 894 557 894 z "},"ģ":{"ha":878,"x_min":21,"x_max":850,"o":"m 300 64 q 95 159 169 64 q 21 450 21 254 q 92 755 21 658 q 293 851 163 851 q 417 827 363 851 q 517 758 471 803 q 551 847 521 815 q 640 878 581 878 q 755 831 711 878 q 818 697 799 785 q 842 544 833 638 q 850 354 850 450 q 840 131 850 221 q 808 -19 831 40 q 750 -124 786 -79 q 577 -236 686 -200 q 329 -272 468 -272 q 163 -251 225 -272 q 72 -193 100 -229 q 44 -111 44 -157 q 72 -13 44 -53 q 154 26 99 26 q 263 21 206 26 q 385 15 319 15 q 524 50 483 15 q 565 150 565 85 q 563 206 565 174 q 455 102 522 140 q 300 64 388 64 m 440 297 q 513 335 482 297 q 543 467 543 372 q 519 589 543 542 q 438 636 494 636 q 362 594 390 636 q 333 468 333 553 q 363 342 333 388 q 440 297 392 297 m 439 901 q 333 931 374 901 q 293 1022 293 960 q 308 1097 293 1057 q 353 1171 322 1138 q 450 1224 401 1224 q 482 1215 469 1224 q 494 1190 494 1207 q 485 1162 494 1181 q 447 1113 476 1143 q 557 1085 526 1111 q 588 1013 588 1058 q 574 962 588 988 q 528 919 561 936 q 439 901 496 901 z "},"ġ":{"ha":878,"x_min":21,"x_max":850,"o":"m 300 64 q 95 159 169 64 q 21 450 21 254 q 92 755 21 658 q 293 851 163 851 q 417 827 363 851 q 517 758 471 803 q 551 847 521 815 q 640 878 581 878 q 755 831 711 878 q 818 697 799 785 q 842 544 833 638 q 850 354 850 450 q 840 131 850 221 q 808 -19 831 40 q 750 -124 786 -79 q 577 -236 686 -200 q 329 -272 468 -272 q 163 -251 225 -272 q 72 -193 100 -229 q 44 -111 44 -157 q 72 -13 44 -53 q 154 26 99 26 q 263 21 206 26 q 385 15 319 15 q 524 50 483 15 q 565 150 565 85 q 563 206 565 174 q 455 102 522 140 q 300 64 388 64 m 440 297 q 513 335 482 297 q 543 467 543 372 q 519 589 543 542 q 438 636 494 636 q 362 594 390 636 q 333 468 333 553 q 363 342 333 388 q 440 297 392 297 m 467 1163 q 590 1122 553 1163 q 626 1029 626 1082 q 581 930 626 965 q 453 894 535 894 q 333 933 372 894 q 293 1025 293 972 q 341 1128 293 1093 q 467 1163 389 1163 z "},"h":{"ha":914,"x_min":28,"x_max":886,"o":"m 247 1100 q 355 1057 325 1100 q 385 929 385 1014 q 378 813 385 876 q 360 699 371 750 q 465 793 403 757 q 596 829 526 829 q 729 792 671 829 q 825 679 788 756 q 872 529 857 617 q 886 364 886 442 q 862 158 886 235 q 794 48 838 82 q 692 14 750 14 q 546 188 546 14 q 553 315 546 250 q 561 435 561 381 q 542 520 561 492 q 488 549 522 549 q 420 508 446 549 q 394 397 394 468 q 401 302 394 350 q 407 188 407 254 q 362 34 407 81 q 247 -12 317 -12 q 165 1 201 -12 q 103 58 128 15 q 64 183 78 100 q 49 300 56 233 q 38 440 43 367 q 31 581 33 513 q 28 703 28 650 q 84 1005 28 910 q 247 1100 140 1100 z "},"ħ":{"ha":969,"x_min":-49,"x_max":942,"o":"m 303 -12 q 220 1 257 -12 q 158 58 183 15 q 119 183 133 100 q 105 300 111 233 q 94 440 99 367 q 86 581 89 513 q 83 703 83 650 q 88 810 83 761 q 81 810 85 810 q -19 835 11 810 q -49 904 -49 861 q -22 974 -49 944 q 78 1018 6 1004 q 154 1028 113 1024 q 303 1100 208 1100 q 415 1050 383 1100 q 513 1054 465 1053 q 603 1056 561 1056 q 710 1028 681 1056 q 740 956 740 1001 q 712 884 740 913 q 621 844 683 856 q 537 835 585 840 q 435 826 489 831 q 427 760 432 793 q 415 699 422 726 q 520 793 458 757 q 651 829 582 829 q 785 792 726 829 q 881 679 843 756 q 927 529 913 617 q 942 364 942 442 q 917 158 942 235 q 849 48 893 82 q 747 14 806 14 q 601 188 601 14 q 609 315 601 250 q 617 435 617 381 q 597 520 617 492 q 543 549 578 549 q 476 508 501 549 q 450 397 450 468 q 456 302 450 350 q 463 188 463 254 q 417 34 463 81 q 303 -12 372 -12 z "},"i":{"ha":396,"x_min":28,"x_max":368,"o":"m 208 1065 q 331 1025 294 1065 q 368 932 368 985 q 322 833 368 868 q 194 797 276 797 q 74 836 114 797 q 35 928 35 875 q 83 1031 35 996 q 208 1065 131 1065 m 224 756 q 330 672 292 756 q 368 407 368 589 q 320 85 368 183 q 175 -14 272 -14 q 63 59 99 -14 q 28 314 28 132 q 82 647 28 538 q 224 756 136 756 z "},"ı":{"ha":382,"x_min":28,"x_max":354,"o":"m 217 756 q 318 672 282 756 q 354 407 354 589 q 308 85 354 183 q 168 -14 261 -14 q 62 59 96 -14 q 28 314 28 132 q 80 647 28 538 q 217 756 132 756 z "},"í":{"ha":382,"x_min":28,"x_max":447,"o":"m 217 756 q 318 672 282 756 q 354 407 354 589 q 308 85 354 183 q 168 -14 261 -14 q 62 59 96 -14 q 28 314 28 132 q 80 647 28 538 q 217 756 132 756 m 47 833 q 83 885 47 857 q 174 947 118 914 q 265 992 222 972 q 343 1013 307 1013 q 398 991 375 1013 q 434 940 421 969 q 447 888 447 911 q 422 840 447 858 q 339 810 396 822 q 253 797 300 801 q 165 790 207 792 q 96 788 122 788 q 60 801 74 788 q 47 833 47 815 z "},"î":{"ha":382,"x_min":-1,"x_max":385,"o":"m 217 756 q 318 672 282 756 q 354 407 354 589 q 308 85 354 183 q 168 -14 261 -14 q 62 59 96 -14 q 28 314 28 132 q 80 647 28 538 q 217 756 132 756 m 197 1033 q 251 1019 217 1033 q 321 982 286 1006 q 368 937 351 960 q 385 885 385 914 q 358 814 385 840 q 294 788 332 788 q 232 819 258 788 q 185 904 206 850 q 133 810 157 839 q 78 781 108 781 q 21 803 43 781 q -1 857 -1 825 q 17 915 -1 889 q 65 968 35 940 q 137 1018 104 1003 q 197 1033 169 1033 z "},"ï":{"ha":382,"x_min":-17,"x_max":400,"o":"m 217 756 q 318 672 282 756 q 354 407 354 589 q 308 85 354 183 q 168 -14 261 -14 q 62 59 96 -14 q 28 314 28 132 q 80 647 28 538 q 217 756 132 756 m 307 1015 q 378 981 356 1015 q 400 903 400 947 q 372 818 400 847 q 293 789 344 789 q 223 822 246 789 q 200 899 200 854 q 230 985 200 956 q 307 1015 260 1015 m 71 782 q 4 813 25 782 q -17 885 -17 844 q 13 972 -17 942 q 96 1001 43 1001 q 162 968 140 1001 q 183 889 183 935 q 152 809 183 836 q 71 782 121 782 z "},"ì":{"ha":382,"x_min":-64,"x_max":354,"o":"m 217 756 q 318 672 282 756 q 354 407 354 589 q 308 85 354 183 q 168 -14 261 -14 q 62 59 96 -14 q 28 314 28 132 q 80 647 28 538 q 217 756 132 756 m 336 833 q 324 801 336 815 q 288 788 311 788 q 219 790 261 788 q 131 797 176 792 q 44 810 85 801 q -38 840 -12 822 q -64 888 -64 858 q -51 940 -64 911 q -14 991 -37 969 q 40 1013 10 1013 q 119 992 76 1013 q 210 947 163 972 q 301 885 267 914 q 336 833 336 857 z "},"ĳ":{"ha":782,"x_min":28,"x_max":754,"o":"m 208 1065 q 331 1025 294 1065 q 368 932 368 985 q 322 833 368 868 q 194 797 276 797 q 74 836 114 797 q 35 928 35 875 q 83 1031 35 996 q 208 1065 131 1065 m 224 756 q 330 672 292 756 q 368 407 368 589 q 320 85 368 183 q 175 -14 272 -14 q 63 59 99 -14 q 28 314 28 132 q 82 647 28 538 q 224 756 136 756 m 547 813 q 452 839 488 813 q 417 918 417 865 q 459 1026 417 982 q 581 1069 501 1069 q 683 1038 649 1069 q 717 953 717 1006 q 669 849 717 886 q 547 813 621 813 m 482 -289 q 341 -242 392 -289 q 290 -132 290 -196 q 315 -51 290 -81 q 382 -22 340 -22 q 450 -42 417 -22 q 515 -110 483 -62 q 446 197 468 50 q 424 460 424 343 q 458 684 424 608 q 574 760 493 760 q 705 675 656 760 q 754 392 754 590 q 747 215 754 306 q 725 42 739 124 q 690 -100 711 -40 q 604 -244 656 -199 q 482 -289 553 -289 z "},"ī":{"ha":382,"x_min":-93,"x_max":476,"o":"m 217 756 q 318 672 282 756 q 354 407 354 589 q 308 85 354 183 q 168 -14 261 -14 q 62 59 96 -14 q 28 314 28 132 q 80 647 28 538 q 217 756 132 756 m 33 786 q -62 810 -32 786 q -93 875 -93 835 q -65 937 -93 914 q 29 975 -36 960 q 128 992 74 986 q 240 1001 183 999 q 343 1004 296 1004 q 446 979 415 1004 q 476 911 476 954 q 447 847 476 871 q 364 811 418 822 q 258 798 319 804 q 138 789 197 792 q 33 786 78 786 z "},"į":{"ha":382,"x_min":-49,"x_max":365,"o":"m 217 756 q 318 672 282 756 q 354 407 354 589 q 308 85 354 183 q 168 -14 261 -14 q 62 59 96 -14 q 28 314 28 132 q 80 647 28 538 q 217 756 132 756 m 206 1057 q 328 1017 292 1057 q 365 924 365 976 q 319 824 365 860 q 192 789 274 789 q 72 828 111 789 q 32 919 32 867 q 80 1022 32 988 q 206 1057 128 1057 m 144 -293 q 6 -261 61 -293 q -49 -167 -49 -229 q -4 -58 -49 -106 q 143 39 40 -10 l 279 42 q 188 -43 222 1 q 154 -111 154 -87 q 174 -128 154 -128 q 200 -125 185 -128 q 231 -122 215 -122 q 282 -140 265 -122 q 299 -190 299 -158 q 258 -267 299 -242 q 144 -293 218 -293 z "},"j":{"ha":386,"x_min":-106,"x_max":358,"o":"m 151 813 q 56 839 92 813 q 21 918 21 865 q 63 1026 21 982 q 185 1069 106 1069 q 287 1038 253 1069 q 321 953 321 1006 q 273 849 321 886 q 151 813 225 813 m 86 -289 q -55 -242 -4 -289 q -106 -132 -106 -196 q -81 -51 -106 -81 q -14 -22 -56 -22 q 54 -42 21 -22 q 119 -110 88 -62 q 50 197 72 50 q 28 460 28 343 q 63 684 28 608 q 178 760 97 760 q 309 675 260 760 q 358 392 358 590 q 351 215 358 306 q 329 42 343 124 q 294 -100 315 -40 q 208 -244 260 -199 q 86 -289 157 -289 z "},"ȷ":{"ha":386,"x_min":-106,"x_max":358,"o":"m 86 -289 q -55 -242 -4 -289 q -106 -132 -106 -196 q -81 -51 -106 -81 q -14 -22 -56 -22 q 54 -42 21 -22 q 119 -110 88 -62 q 50 197 72 50 q 28 460 28 343 q 63 684 28 608 q 178 760 97 760 q 309 675 260 760 q 358 392 358 590 q 351 215 358 306 q 329 42 343 124 q 294 -100 315 -40 q 208 -244 260 -199 q 86 -289 157 -289 z "},"k":{"ha":860,"x_min":28,"x_max":853,"o":"m 176 -14 q 57 69 82 -14 q 36 206 44 111 q 28 413 28 301 q 38 693 28 558 q 65 914 49 828 q 127 1051 83 1008 q 236 1094 171 1094 q 337 1045 301 1094 q 372 875 372 996 q 367 745 372 815 q 350 596 363 675 l 356 596 q 493 769 429 708 q 610 854 557 831 q 706 878 664 878 q 816 833 779 878 q 853 724 853 789 q 775 576 853 639 q 528 454 697 513 q 763 313 686 386 q 839 151 839 239 q 797 42 839 83 q 682 1 756 1 q 553 31 614 1 q 444 133 493 61 q 357 328 394 204 l 351 328 q 342 208 350 268 q 322 107 333 147 q 273 19 308 51 q 176 -14 238 -14 z "},"ķ":{"ha":860,"x_min":28,"x_max":853,"o":"m 176 -14 q 57 69 82 -14 q 36 206 44 111 q 28 413 28 301 q 38 693 28 558 q 65 914 49 828 q 127 1051 83 1008 q 236 1094 171 1094 q 337 1045 301 1094 q 372 875 372 996 q 367 745 372 815 q 350 596 363 675 l 356 596 q 493 769 429 708 q 610 854 557 831 q 706 878 664 878 q 816 833 779 878 q 853 724 853 789 q 775 576 853 639 q 528 454 697 513 q 763 313 686 386 q 839 151 839 239 q 797 42 839 83 q 682 1 756 1 q 553 31 614 1 q 444 133 493 61 q 357 328 394 204 l 351 328 q 342 208 350 268 q 322 107 333 147 q 273 19 308 51 q 176 -14 238 -14 m 496 -310 q 399 -362 447 -362 q 367 -354 379 -362 q 354 -329 354 -346 q 363 -301 354 -319 q 401 -251 372 -282 q 292 -224 322 -250 q 261 -151 261 -197 q 274 -100 261 -125 q 320 -58 288 -75 q 410 -40 353 -40 q 515 -69 475 -40 q 556 -161 556 -99 q 542 -236 556 -196 q 496 -310 528 -276 z "},"l":{"ha":488,"x_min":28,"x_max":481,"o":"m 235 -3 q 132 22 171 -3 q 71 106 93 46 q 38 269 49 164 q 28 522 28 374 q 35 703 28 611 q 56 870 43 794 q 85 983 69 946 q 143 1072 111 1046 q 222 1099 175 1099 q 306 1072 272 1099 q 354 982 339 1044 q 372 872 365 936 q 379 738 379 808 q 363 511 379 631 q 319 290 346 392 q 361 294 342 294 q 449 266 418 294 q 481 178 481 238 q 449 87 481 128 q 362 22 417 46 q 235 -3 307 -3 z "},"ĺ":{"ha":488,"x_min":28,"x_max":496,"o":"m 235 -3 q 132 22 171 -3 q 71 106 93 46 q 38 269 49 164 q 28 522 28 374 q 35 703 28 611 q 56 870 43 794 q 85 983 69 946 q 143 1072 111 1046 q 222 1099 175 1099 q 306 1072 272 1099 q 354 982 339 1044 q 372 872 365 936 q 379 738 379 808 q 363 511 379 631 q 319 290 346 392 q 361 294 342 294 q 449 266 418 294 q 481 178 481 238 q 449 87 481 128 q 362 22 417 46 q 235 -3 307 -3 m 96 1189 q 131 1241 96 1213 q 222 1303 167 1269 q 313 1348 271 1328 q 392 1368 356 1368 q 447 1347 424 1368 q 483 1296 469 1325 q 496 1243 496 1267 q 470 1196 496 1214 q 388 1165 444 1178 q 302 1152 349 1157 q 213 1145 256 1147 q 144 1143 171 1143 q 109 1157 122 1143 q 96 1189 96 1171 z "},"ľ":{"ha":488,"x_min":28,"x_max":697,"o":"m 235 -3 q 132 22 171 -3 q 71 106 93 46 q 38 269 49 164 q 28 522 28 374 q 35 703 28 611 q 56 870 43 794 q 85 983 69 946 q 143 1072 111 1046 q 222 1099 175 1099 q 306 1072 272 1099 q 354 982 339 1044 q 372 872 365 936 q 379 738 379 808 q 363 511 379 631 q 319 290 346 392 q 361 294 342 294 q 449 266 418 294 q 481 178 481 238 q 449 87 481 128 q 362 22 417 46 q 235 -3 307 -3 m 451 839 q 433 899 433 854 q 443 1007 433 943 q 465 1103 454 1060 q 499 1174 475 1147 q 553 1200 519 1197 q 619 1193 586 1203 q 672 1168 653 1183 q 697 1118 697 1149 q 668 1038 696 1088 q 625 965 650 1003 q 574 896 600 928 q 528 844 549 864 q 488 827 510 828 q 451 839 467 826 z "},"ļ":{"ha":488,"x_min":28,"x_max":481,"o":"m 235 -3 q 132 22 171 -3 q 71 106 93 46 q 38 269 49 164 q 28 522 28 374 q 35 703 28 611 q 56 870 43 794 q 85 983 69 946 q 143 1072 111 1046 q 222 1099 175 1099 q 306 1072 272 1099 q 354 982 339 1044 q 372 872 365 936 q 379 738 379 808 q 363 511 379 631 q 319 290 346 392 q 361 294 342 294 q 449 266 418 294 q 481 178 481 238 q 449 87 481 128 q 362 22 417 46 q 235 -3 307 -3 m 340 -310 q 243 -362 292 -362 q 211 -354 224 -362 q 199 -329 199 -346 q 208 -301 199 -319 q 246 -251 217 -282 q 136 -224 167 -250 q 106 -151 106 -197 q 119 -100 106 -125 q 165 -58 132 -75 q 254 -40 197 -40 q 360 -69 319 -40 q 400 -161 400 -99 q 386 -236 400 -196 q 340 -310 372 -276 z "},"ł":{"ha":632,"x_min":6,"x_max":676,"o":"m 363 -3 q 260 22 299 -3 q 199 106 221 46 q 167 261 178 161 q 90 236 124 232 q 32 269 57 240 q 7 342 6 301 q 56 438 8 382 q 156 547 93 482 q 165 719 157 632 q 185 876 172 806 q 213 983 197 947 q 271 1072 239 1046 q 350 1099 303 1099 q 433 1072 400 1099 q 482 982 467 1044 q 500 878 493 938 q 586 910 550 914 q 649 874 622 906 q 673 800 676 839 q 628 713 669 761 q 572 651 606 688 q 499 575 538 615 q 447 290 482 425 q 489 294 469 294 q 577 266 546 294 q 608 178 608 238 q 576 87 608 128 q 490 22 544 46 q 363 -3 435 -3 z "},"m":{"ha":1297,"x_min":28,"x_max":1269,"o":"m 1232 133 q 1170 32 1215 65 q 1060 -1 1125 -1 q 961 33 997 -1 q 925 132 925 68 q 932 197 925 156 q 947 285 939 238 q 963 377 956 332 q 969 453 969 422 q 953 522 969 497 q 908 546 938 546 q 846 496 869 546 q 817 351 822 446 q 806 224 813 279 q 786 131 800 168 q 734 53 768 79 q 643 28 700 28 q 543 63 581 28 q 503 174 506 99 q 502 272 501 215 q 503 385 503 329 q 501 476 504 440 q 432 576 496 576 q 378 540 397 576 q 351 439 358 504 q 350 360 350 407 q 351 266 350 313 q 350 188 351 219 q 308 44 347 88 q 200 1 269 1 q 85 44 122 1 q 39 183 47 88 q 31 292 33 238 q 28 400 28 346 q 32 516 28 454 q 42 633 36 578 q 87 788 53 726 q 197 850 121 850 q 297 810 267 850 q 328 689 328 771 q 422 813 360 768 q 557 857 483 857 q 699 809 644 857 q 771 675 754 761 q 864 792 800 746 q 1011 839 928 839 q 1144 804 1086 839 q 1236 690 1203 769 q 1269 479 1269 611 q 1264 349 1269 415 q 1250 227 1258 283 q 1232 133 1242 171 z "},"n":{"ha":893,"x_min":28,"x_max":865,"o":"m 226 864 q 323 828 296 864 q 350 721 350 792 q 350 706 350 713 q 449 828 385 785 q 583 871 513 871 q 740 819 678 871 q 834 672 803 767 q 865 447 865 576 q 853 258 865 349 q 819 117 842 167 q 756 40 797 65 q 657 14 714 14 q 559 56 593 14 q 525 174 525 99 q 529 272 525 215 q 537 385 533 329 q 540 476 540 440 q 472 590 540 590 q 408 554 435 590 q 374 453 382 518 q 367 369 369 419 q 363 270 365 319 q 358 188 361 221 q 309 44 350 88 q 199 1 268 1 q 71 49 114 1 q 28 211 28 97 q 31 342 28 269 q 38 487 33 414 q 50 619 43 560 q 106 799 64 733 q 226 864 147 864 z "},"ń":{"ha":893,"x_min":28,"x_max":865,"o":"m 226 864 q 323 828 296 864 q 350 721 350 792 q 350 706 350 713 q 449 828 385 785 q 583 871 513 871 q 740 819 678 871 q 834 672 803 767 q 865 447 865 576 q 853 258 865 349 q 819 117 842 167 q 756 40 797 65 q 657 14 714 14 q 559 56 593 14 q 525 174 525 99 q 529 272 525 215 q 537 385 533 329 q 540 476 540 440 q 472 590 540 590 q 408 554 435 590 q 374 453 382 518 q 367 369 369 419 q 363 270 365 319 q 358 188 361 221 q 309 44 350 88 q 199 1 268 1 q 71 49 114 1 q 28 211 28 97 q 31 342 28 269 q 38 487 33 414 q 50 619 43 560 q 106 799 64 733 q 226 864 147 864 m 285 946 q 320 998 285 969 q 411 1060 356 1026 q 502 1105 460 1085 q 581 1125 544 1125 q 635 1103 613 1125 q 672 1053 658 1082 q 685 1000 685 1024 q 659 953 685 971 q 576 922 633 935 q 491 909 538 914 q 402 902 444 904 q 333 900 360 900 q 298 914 311 900 q 285 946 285 928 z "},"ň":{"ha":893,"x_min":28,"x_max":865,"o":"m 226 864 q 323 828 296 864 q 350 721 350 792 q 350 706 350 713 q 449 828 385 785 q 583 871 513 871 q 740 819 678 871 q 834 672 803 767 q 865 447 865 576 q 853 258 865 349 q 819 117 842 167 q 756 40 797 65 q 657 14 714 14 q 559 56 593 14 q 525 174 525 99 q 529 272 525 215 q 537 385 533 329 q 540 476 540 440 q 472 590 540 590 q 408 554 435 590 q 374 453 382 518 q 367 369 369 419 q 363 270 365 319 q 358 188 361 221 q 309 44 350 88 q 199 1 268 1 q 71 49 114 1 q 28 211 28 97 q 31 342 28 269 q 38 487 33 414 q 50 619 43 560 q 106 799 64 733 q 226 864 147 864 m 435 907 q 363 925 403 907 q 282 965 322 943 q 204 1024 235 996 q 174 1083 174 1053 q 196 1138 174 1115 q 253 1160 218 1160 q 329 1128 285 1160 q 419 1025 374 1096 q 494 1119 451 1085 q 574 1153 536 1153 q 653 1126 621 1153 q 685 1056 685 1100 q 656 1003 685 1026 q 579 954 628 979 q 499 920 539 933 q 435 907 458 907 z "},"ņ":{"ha":893,"x_min":28,"x_max":865,"o":"m 226 864 q 323 828 296 864 q 350 721 350 792 q 350 706 350 713 q 449 828 385 785 q 583 871 513 871 q 740 819 678 871 q 834 672 803 767 q 865 447 865 576 q 853 258 865 349 q 819 117 842 167 q 756 40 797 65 q 657 14 714 14 q 559 56 593 14 q 525 174 525 99 q 529 272 525 215 q 537 385 533 329 q 540 476 540 440 q 472 590 540 590 q 408 554 435 590 q 374 453 382 518 q 367 369 369 419 q 363 270 365 319 q 358 188 361 221 q 309 44 350 88 q 199 1 268 1 q 71 49 114 1 q 28 211 28 97 q 31 342 28 269 q 38 487 33 414 q 50 619 43 560 q 106 799 64 733 q 226 864 147 864 m 529 -310 q 432 -362 481 -362 q 400 -354 413 -362 q 388 -329 388 -346 q 397 -301 388 -319 q 435 -251 406 -282 q 325 -224 356 -250 q 294 -151 294 -197 q 308 -100 294 -125 q 353 -58 321 -75 q 443 -40 386 -40 q 549 -69 508 -40 q 589 -161 589 -99 q 575 -236 589 -196 q 529 -310 561 -276 z "},"ñ":{"ha":893,"x_min":28,"x_max":865,"o":"m 226 864 q 323 828 296 864 q 350 721 350 792 q 350 706 350 713 q 449 828 385 785 q 583 871 513 871 q 740 819 678 871 q 834 672 803 767 q 865 447 865 576 q 853 258 865 349 q 819 117 842 167 q 756 40 797 65 q 657 14 714 14 q 559 56 593 14 q 525 174 525 99 q 529 272 525 215 q 537 385 533 329 q 540 476 540 440 q 472 590 540 590 q 408 554 435 590 q 374 453 382 518 q 367 369 369 419 q 363 270 365 319 q 358 188 361 221 q 309 44 350 88 q 199 1 268 1 q 71 49 114 1 q 28 211 28 97 q 31 342 28 269 q 38 487 33 414 q 50 619 43 560 q 106 799 64 733 q 226 864 147 864 m 338 1110 q 517 1039 442 1110 q 542 1042 535 1022 q 574 1109 553 1088 q 633 1131 594 1131 q 706 1060 706 1131 q 687 994 706 1032 q 629 929 668 957 q 526 901 590 901 q 431 926 471 901 q 354 994 390 950 q 325 983 333 1022 q 293 913 315 935 q 231 892 271 892 q 174 914 196 892 q 151 967 151 936 q 176 1037 151 1004 q 242 1090 200 1069 q 338 1110 283 1110 z "},"ŋ":{"ha":893,"x_min":28,"x_max":865,"o":"m 540 -300 q 463 -285 500 -300 q 402 -242 425 -271 q 379 -167 379 -212 q 404 -88 379 -122 q 479 -54 429 -54 q 524 -59 501 -54 q 575 -89 546 -64 q 536 -10 549 -51 q 523 86 524 31 q 528 219 522 142 q 537 353 533 285 q 540 476 540 421 q 472 590 540 590 q 408 554 435 590 q 374 453 382 518 q 367 369 369 419 q 363 270 365 319 q 358 188 361 221 q 309 44 350 88 q 199 1 268 1 q 71 49 114 1 q 28 211 28 97 q 31 342 28 269 q 38 487 33 414 q 50 619 43 560 q 106 799 64 733 q 226 864 147 864 q 324 828 296 864 q 350 721 353 792 l 350 706 q 449 827 385 783 q 583 871 513 871 q 740 819 678 871 q 834 672 803 767 q 865 447 865 576 q 860 316 865 392 q 840 156 854 240 q 803 -9 826 72 q 743 -156 779 -90 q 657 -260 707 -221 q 540 -300 607 -300 z "},"o":{"ha":894,"x_min":21,"x_max":874,"o":"m 432 -4 q 215 45 307 -4 q 72 186 122 94 q 21 404 21 278 q 72 635 21 536 q 217 789 124 733 q 436 844 311 844 q 667 791 569 844 q 819 642 765 738 q 874 418 874 546 q 819 193 874 288 q 665 47 764 99 q 432 -4 567 -4 m 451 282 q 538 324 506 282 q 571 435 571 365 q 538 546 571 504 q 451 588 506 588 q 363 546 396 588 q 331 435 331 504 q 363 324 331 365 q 451 282 396 282 z "},"ó":{"ha":894,"x_min":21,"x_max":874,"o":"m 432 -4 q 215 45 307 -4 q 72 186 122 94 q 21 404 21 278 q 72 635 21 536 q 217 789 124 733 q 436 844 311 844 q 667 791 569 844 q 819 642 765 738 q 874 418 874 546 q 819 193 874 288 q 665 47 764 99 q 432 -4 567 -4 m 451 282 q 538 324 506 282 q 571 435 571 365 q 538 546 571 504 q 451 588 506 588 q 363 546 396 588 q 331 435 331 504 q 363 324 331 365 q 451 282 396 282 m 303 922 q 338 974 303 946 q 429 1036 374 1003 q 520 1081 478 1061 q 599 1101 563 1101 q 653 1080 631 1101 q 690 1029 676 1058 q 703 976 703 1000 q 677 929 703 947 q 594 899 651 911 q 509 885 556 890 q 420 878 463 881 q 351 876 378 876 q 316 890 329 876 q 303 922 303 904 z "},"ô":{"ha":894,"x_min":21,"x_max":874,"o":"m 432 -4 q 215 45 307 -4 q 72 186 122 94 q 21 404 21 278 q 72 635 21 536 q 217 789 124 733 q 436 844 311 844 q 667 791 569 844 q 819 642 765 738 q 874 418 874 546 q 819 193 874 288 q 665 47 764 99 q 432 -4 567 -4 m 451 282 q 538 324 506 282 q 571 435 571 365 q 538 546 571 504 q 451 588 506 588 q 363 546 396 588 q 331 435 331 504 q 363 324 331 365 q 451 282 396 282 m 453 1122 q 517 1109 476 1122 q 597 1075 557 1096 q 674 1026 646 1050 q 703 974 703 1003 q 671 903 703 929 q 592 876 639 876 q 512 910 554 876 q 438 1004 469 944 q 347 901 392 933 q 271 869 303 869 q 214 892 236 869 q 192 946 192 914 q 222 1006 192 978 q 300 1064 253 1033 q 381 1105 340 1088 q 453 1122 421 1122 z "},"ö":{"ha":894,"x_min":21,"x_max":874,"o":"m 432 -4 q 215 45 307 -4 q 72 186 122 94 q 21 404 21 278 q 72 635 21 536 q 217 789 124 733 q 436 844 311 844 q 667 791 569 844 q 819 642 765 738 q 874 418 874 546 q 819 193 874 288 q 665 47 764 99 q 432 -4 567 -4 m 451 282 q 538 324 506 282 q 571 435 571 365 q 538 546 571 504 q 451 588 506 588 q 363 546 396 588 q 331 435 331 504 q 363 324 331 365 q 451 282 396 282 m 604 1104 q 702 1070 672 1104 q 732 992 732 1036 q 695 907 732 936 q 590 878 658 878 q 494 910 526 878 q 463 988 463 943 q 501 1074 463 1044 q 604 1104 540 1104 m 285 871 q 192 902 221 871 q 163 974 163 933 q 201 1060 163 1031 q 310 1090 240 1090 q 402 1057 372 1090 q 432 978 432 1024 q 391 898 432 925 q 285 871 350 871 z "},"ò":{"ha":894,"x_min":21,"x_max":874,"o":"m 432 -4 q 215 45 307 -4 q 72 186 122 94 q 21 404 21 278 q 72 635 21 536 q 217 789 124 733 q 436 844 311 844 q 667 791 569 844 q 819 642 765 738 q 874 418 874 546 q 819 193 874 288 q 665 47 764 99 q 432 -4 567 -4 m 451 282 q 538 324 506 282 q 571 435 571 365 q 538 546 571 504 q 451 588 506 588 q 363 546 396 588 q 331 435 331 504 q 363 324 331 365 q 451 282 396 282 m 592 922 q 579 890 592 904 q 543 876 567 876 q 474 878 517 876 q 386 885 432 881 q 300 899 340 890 q 217 929 243 911 q 192 976 192 947 q 205 1029 192 1000 q 242 1080 218 1058 q 296 1101 265 1101 q 375 1081 332 1101 q 465 1036 418 1061 q 557 974 522 1003 q 592 922 592 946 z "},"ő":{"ha":894,"x_min":21,"x_max":874,"o":"m 432 -4 q 215 45 307 -4 q 72 186 122 94 q 21 404 21 278 q 72 635 21 536 q 217 789 124 733 q 436 844 311 844 q 667 791 569 844 q 819 642 765 738 q 874 418 874 546 q 819 193 874 288 q 665 47 764 99 q 432 -4 567 -4 m 451 282 q 538 324 506 282 q 571 435 571 365 q 538 546 571 504 q 451 588 506 588 q 363 546 396 588 q 331 435 331 504 q 363 324 331 365 q 451 282 396 282 m 556 874 q 528 884 539 874 q 517 913 517 894 q 531 966 517 932 q 568 1040 544 1000 q 632 1135 601 1093 q 706 1178 663 1178 q 753 1165 728 1178 q 795 1132 778 1151 q 813 1093 813 1113 q 757 1007 813 1058 q 697 958 731 983 q 631 913 663 933 q 581 881 600 893 q 556 874 571 874 m 258 872 q 231 883 243 872 q 219 911 219 894 q 234 965 219 932 q 271 1039 249 999 q 335 1134 304 1092 q 408 1176 365 1176 q 457 1164 432 1176 q 499 1132 482 1151 q 517 1092 517 1113 q 461 1006 517 1060 q 399 957 433 982 q 334 912 365 932 q 282 879 303 892 q 258 872 272 872 z "},"ō":{"ha":894,"x_min":21,"x_max":874,"o":"m 432 -4 q 215 45 307 -4 q 72 186 122 94 q 21 404 21 278 q 72 635 21 536 q 217 789 124 733 q 436 844 311 844 q 667 791 569 844 q 819 642 765 738 q 874 418 874 546 q 819 193 874 288 q 665 47 764 99 q 432 -4 567 -4 m 451 282 q 538 324 506 282 q 571 435 571 365 q 538 546 571 504 q 451 588 506 588 q 363 546 396 588 q 331 435 331 504 q 363 324 331 365 q 451 282 396 282 m 289 875 q 193 899 224 875 q 163 964 163 924 q 191 1026 163 1003 q 285 1064 219 1049 q 384 1081 329 1075 q 495 1090 439 1088 q 599 1093 551 1093 q 701 1068 671 1093 q 732 1000 732 1043 q 703 935 732 960 q 619 900 674 911 q 514 887 575 893 q 393 878 453 881 q 289 875 333 875 z "},"ø":{"ha":894,"x_min":21,"x_max":874,"o":"m 432 -4 q 296 14 360 -4 q 228 -53 257 -43 q 174 -51 199 -64 q 142 -8 147 -39 q 164 78 138 22 q 58 213 96 131 q 21 404 21 296 q 72 635 21 536 q 217 789 124 733 q 436 844 311 844 q 579 825 513 844 q 589 840 585 833 q 653 906 624 893 q 711 906 683 919 q 746 858 740 892 q 719 761 751 825 l 718 758 q 833 615 792 701 q 874 418 874 528 q 819 193 874 288 q 665 47 764 99 q 432 -4 567 -4 m 303 435 q 313 363 303 396 q 454 615 382 490 l 451 615 q 343 566 383 615 q 303 435 303 517 m 451 254 q 558 303 518 254 q 599 435 599 353 q 588 510 599 475 q 516 380 553 444 q 444 254 479 315 l 451 254 z "},"õ":{"ha":894,"x_min":21,"x_max":874,"o":"m 432 -4 q 215 45 307 -4 q 72 186 122 94 q 21 404 21 278 q 72 635 21 536 q 217 789 124 733 q 436 844 311 844 q 667 791 569 844 q 819 642 765 738 q 874 418 874 546 q 819 193 874 288 q 665 47 764 99 q 432 -4 567 -4 m 451 282 q 538 324 506 282 q 571 435 571 365 q 538 546 571 504 q 451 588 506 588 q 363 546 396 588 q 331 435 331 504 q 363 324 331 365 q 451 282 396 282 m 356 1086 q 535 1015 460 1086 q 560 1018 553 999 q 592 1085 571 1064 q 651 1107 613 1107 q 724 1036 724 1107 q 705 971 724 1008 q 647 906 686 933 q 544 878 608 878 q 449 902 489 878 q 372 971 408 926 q 343 960 351 999 q 311 890 333 911 q 249 868 289 868 q 192 890 214 868 q 169 943 169 913 q 194 1013 169 981 q 260 1066 218 1046 q 356 1086 301 1086 z "},"œ":{"ha":1418,"x_min":21,"x_max":1411,"o":"m 432 -4 q 215 45 307 -4 q 72 186 122 94 q 21 404 21 278 q 72 635 21 536 q 217 789 124 733 q 436 844 311 844 q 598 819 525 844 q 725 744 671 793 q 1032 850 847 850 q 1276 784 1199 850 q 1354 611 1354 718 q 1311 464 1354 526 q 1192 368 1268 401 q 1015 335 1115 335 q 936 339 975 335 q 864 351 897 343 q 914 282 871 303 q 1028 261 957 261 q 1144 277 1096 261 q 1228 309 1192 293 q 1297 325 1265 325 q 1349 313 1322 325 q 1393 274 1375 300 q 1411 203 1411 247 q 1316 50 1411 111 q 1036 -11 1221 -11 q 838 10 921 -11 q 700 72 754 32 q 432 -4 590 -4 m 956 474 q 1051 506 1011 474 q 1092 586 1092 539 q 1069 636 1092 617 q 1008 656 1047 656 q 940 639 972 656 q 889 596 908 622 q 869 538 869 569 q 892 490 869 507 q 956 474 915 474 m 451 282 q 538 324 506 282 q 571 435 571 365 q 538 546 571 504 q 451 588 506 588 q 363 546 396 588 q 331 435 331 504 q 363 324 331 365 q 451 282 396 282 z "},"p":{"ha":874,"x_min":28,"x_max":853,"o":"m 179 861 q 263 824 229 861 q 315 710 297 788 q 410 816 349 779 q 549 853 471 853 q 706 808 638 853 q 813 674 774 764 q 853 450 853 585 q 772 128 853 232 q 553 25 690 25 q 432 51 481 25 q 357 117 383 76 q 370 -5 365 54 q 375 -110 375 -64 q 339 -230 375 -181 q 225 -279 303 -279 q 115 -233 153 -279 q 63 -106 76 -186 q 46 40 54 -49 q 33 231 38 128 q 28 433 28 333 q 35 619 28 532 q 54 760 43 706 q 99 836 67 811 q 179 861 132 861 m 440 619 q 358 568 389 619 q 326 435 326 517 q 357 308 326 350 q 438 267 388 267 q 524 314 499 267 q 550 436 550 361 q 517 575 550 531 q 440 619 485 619 z "},"þ":{"ha":874,"x_min":28,"x_max":853,"o":"m 225 -279 q 115 -233 153 -279 q 63 -106 76 -186 q 46 40 54 -49 q 33 231 38 128 q 28 433 28 333 q 36 642 28 540 q 58 829 44 743 q 83 974 71 915 q 221 1117 114 1117 q 303 1074 271 1117 q 336 938 336 1031 q 317 714 336 829 q 412 817 351 782 q 549 853 472 853 q 706 808 638 853 q 813 674 774 764 q 853 450 853 585 q 772 128 853 232 q 553 25 690 25 q 432 51 481 25 q 357 117 383 76 q 370 -5 365 54 q 375 -110 375 -64 q 339 -230 375 -181 q 225 -279 303 -279 m 438 267 q 524 314 499 267 q 550 436 550 361 q 517 575 550 531 q 440 619 485 619 q 358 568 389 619 q 326 435 326 517 q 357 308 326 350 q 438 267 388 267 z "},"q":{"ha":911,"x_min":21,"x_max":883,"o":"m 693 -272 q 598 -233 629 -272 q 567 -131 567 -194 q 571 5 567 -68 q 582 144 575 78 q 475 29 544 71 q 304 -12 406 -12 q 159 28 224 -12 q 58 156 94 69 q 21 378 21 242 q 60 649 21 546 q 164 799 99 751 q 310 846 229 846 q 443 811 385 846 q 542 701 501 776 q 576 824 546 782 q 671 867 606 867 q 788 823 743 867 q 850 699 832 779 q 868 581 861 654 q 879 419 875 508 q 883 235 883 329 q 879 45 883 135 q 864 -106 875 -44 q 807 -228 850 -185 q 693 -272 764 -272 m 454 228 q 541 276 504 228 q 578 413 578 324 q 547 549 578 501 q 460 596 517 596 q 371 551 400 596 q 342 399 342 506 q 372 269 342 310 q 454 228 403 228 z "},"r":{"ha":676,"x_min":28,"x_max":669,"o":"m 28 574 q 68 806 28 735 q 181 878 108 878 q 253 852 225 878 q 296 788 282 826 q 313 707 310 749 q 383 824 338 776 q 493 872 429 872 q 626 801 583 872 q 669 624 669 731 q 626 427 669 483 q 510 371 582 371 q 407 497 399 371 q 403 562 410 544 q 385 579 397 579 q 358 559 367 579 q 350 503 350 539 q 361 405 350 467 q 383 276 372 343 q 394 156 394 210 q 353 33 394 69 q 236 -3 311 -3 q 120 33 165 -3 q 60 151 75 69 q 44 276 51 201 q 32 431 36 351 q 28 574 28 511 z "},"ŕ":{"ha":676,"x_min":28,"x_max":669,"o":"m 28 574 q 68 806 28 735 q 181 878 108 878 q 253 852 225 878 q 296 788 282 826 q 313 707 310 749 q 383 824 338 776 q 493 872 429 872 q 626 801 583 872 q 669 624 669 731 q 626 427 669 483 q 510 371 582 371 q 407 497 399 371 q 403 562 410 544 q 385 579 397 579 q 358 559 367 579 q 350 503 350 539 q 361 405 350 467 q 383 276 372 343 q 394 156 394 210 q 353 33 394 69 q 236 -3 311 -3 q 120 33 165 -3 q 60 151 75 69 q 44 276 51 201 q 32 431 36 351 q 28 574 28 511 m 194 939 q 230 991 194 963 q 321 1053 265 1019 q 412 1098 369 1078 q 490 1118 454 1118 q 545 1097 522 1118 q 581 1046 568 1075 q 594 993 594 1017 q 569 946 594 964 q 486 915 543 928 q 401 902 447 907 q 312 895 354 897 q 243 893 269 893 q 208 907 221 893 q 194 939 194 921 z "},"ř":{"ha":676,"x_min":28,"x_max":669,"o":"m 28 574 q 68 806 28 735 q 181 878 108 878 q 253 852 225 878 q 296 788 282 826 q 313 707 310 749 q 383 824 338 776 q 493 872 429 872 q 626 801 583 872 q 669 624 669 731 q 626 427 669 483 q 510 371 582 371 q 407 497 399 371 q 403 562 410 544 q 385 579 397 579 q 358 559 367 579 q 350 503 350 539 q 361 405 350 467 q 383 276 372 343 q 394 156 394 210 q 353 33 394 69 q 236 -3 311 -3 q 120 33 165 -3 q 60 151 75 69 q 44 276 51 201 q 32 431 36 351 q 28 574 28 511 m 344 900 q 272 918 313 900 q 192 958 232 936 q 114 1017 144 989 q 83 1076 83 1046 q 106 1131 83 1108 q 163 1153 128 1153 q 239 1121 194 1153 q 329 1018 283 1089 q 403 1112 361 1078 q 483 1146 446 1146 q 563 1119 531 1146 q 594 1049 594 1093 q 566 996 594 1019 q 489 947 538 972 q 408 913 449 926 q 344 900 368 900 z "},"ŗ":{"ha":676,"x_min":28,"x_max":669,"o":"m 28 574 q 68 806 28 735 q 181 878 108 878 q 253 852 225 878 q 296 788 282 826 q 313 707 310 749 q 383 824 338 776 q 493 872 429 872 q 626 801 583 872 q 669 624 669 731 q 626 427 669 483 q 510 371 582 371 q 407 497 399 371 q 403 562 410 544 q 385 579 397 579 q 358 559 367 579 q 350 503 350 539 q 361 405 350 467 q 383 276 372 343 q 394 156 394 210 q 353 33 394 69 q 236 -3 311 -3 q 120 33 165 -3 q 60 151 75 69 q 44 276 51 201 q 32 431 36 351 q 28 574 28 511 m 439 -310 q 342 -362 390 -362 q 310 -354 322 -362 q 297 -329 297 -346 q 306 -301 297 -319 q 344 -251 315 -282 q 235 -224 265 -250 q 204 -151 204 -197 q 217 -100 204 -125 q 263 -58 231 -75 q 353 -40 296 -40 q 458 -69 418 -40 q 499 -161 499 -99 q 485 -236 499 -196 q 439 -310 471 -276 z "},"s":{"ha":763,"x_min":21,"x_max":742,"o":"m 442 869 q 658 817 592 869 q 724 683 724 765 q 690 599 724 632 q 594 565 656 565 q 499 580 550 565 q 383 594 449 594 q 337 583 353 594 q 321 554 321 572 q 338 524 321 536 q 415 506 356 513 q 594 472 521 497 q 704 395 667 447 q 742 251 742 343 q 641 56 742 117 q 361 -6 540 -6 q 163 19 238 -6 q 54 87 88 43 q 21 188 21 131 q 58 274 21 243 q 144 306 94 306 q 213 297 176 306 q 289 278 249 288 q 371 268 329 268 q 426 300 426 268 q 410 328 426 315 q 332 349 394 342 q 171 382 239 360 q 65 451 103 404 q 28 578 28 497 q 136 789 28 708 q 442 869 244 869 z "},"ś":{"ha":763,"x_min":21,"x_max":742,"o":"m 442 869 q 658 817 592 869 q 724 683 724 765 q 690 599 724 632 q 594 565 656 565 q 499 580 550 565 q 383 594 449 594 q 337 583 353 594 q 321 554 321 572 q 338 524 321 536 q 415 506 356 513 q 594 472 521 497 q 704 395 667 447 q 742 251 742 343 q 641 56 742 117 q 361 -6 540 -6 q 163 19 238 -6 q 54 87 88 43 q 21 188 21 131 q 58 274 21 243 q 144 306 94 306 q 213 297 176 306 q 289 278 249 288 q 371 268 329 268 q 426 300 426 268 q 410 328 426 315 q 332 349 394 342 q 171 382 239 360 q 65 451 103 404 q 28 578 28 497 q 136 789 28 708 q 442 869 244 869 m 224 939 q 259 991 224 963 q 350 1053 294 1019 q 441 1098 399 1078 q 519 1118 483 1118 q 574 1097 551 1118 q 610 1046 597 1075 q 624 993 624 1017 q 598 946 624 964 q 515 915 572 928 q 430 902 476 907 q 341 895 383 897 q 272 893 299 893 q 237 907 250 893 q 224 939 224 921 z "},"š":{"ha":763,"x_min":21,"x_max":742,"o":"m 442 869 q 658 817 592 869 q 724 683 724 765 q 690 599 724 632 q 594 565 656 565 q 499 580 550 565 q 383 594 449 594 q 337 583 353 594 q 321 554 321 572 q 338 524 321 536 q 415 506 356 513 q 594 472 521 497 q 704 395 667 447 q 742 251 742 343 q 641 56 742 117 q 361 -6 540 -6 q 163 19 238 -6 q 54 87 88 43 q 21 188 21 131 q 58 274 21 243 q 144 306 94 306 q 213 297 176 306 q 289 278 249 288 q 371 268 329 268 q 426 300 426 268 q 410 328 426 315 q 332 349 394 342 q 171 382 239 360 q 65 451 103 404 q 28 578 28 497 q 136 789 28 708 q 442 869 244 869 m 374 900 q 301 918 342 900 q 221 958 261 936 q 143 1017 174 989 q 113 1076 113 1046 q 135 1131 113 1108 q 192 1153 157 1153 q 268 1121 224 1153 q 358 1018 313 1089 q 433 1112 390 1078 q 513 1146 475 1146 q 592 1119 560 1146 q 624 1049 624 1093 q 595 996 624 1019 q 518 947 567 972 q 438 913 478 926 q 374 900 397 900 z "},"ş":{"ha":763,"x_min":21,"x_max":742,"o":"m 442 869 q 658 817 592 869 q 724 683 724 765 q 690 599 724 632 q 594 565 656 565 q 499 580 550 565 q 383 594 449 594 q 337 583 353 594 q 321 554 321 572 q 338 524 321 536 q 415 506 356 513 q 594 472 521 497 q 704 395 667 447 q 742 251 742 343 q 641 56 742 117 q 361 -6 540 -6 q 163 19 238 -6 q 54 87 88 43 q 21 188 21 131 q 58 274 21 243 q 144 306 94 306 q 213 297 176 306 q 289 278 249 288 q 371 268 329 268 q 426 300 426 268 q 410 328 426 315 q 332 349 394 342 q 171 382 239 360 q 65 451 103 404 q 28 578 28 497 q 136 789 28 708 q 442 869 244 869 m 321 -289 q 236 -221 236 -289 q 257 -170 236 -186 q 304 -149 278 -154 q 385 -137 349 -139 q 444 -131 422 -136 q 457 -122 457 -131 q 436 -111 457 -115 q 308 -79 347 -93 q 269 -35 269 -65 q 289 4 269 -7 q 336 15 308 15 q 450 -2 393 15 q 545 -53 507 -19 q 583 -135 583 -86 q 549 -211 583 -176 q 455 -267 514 -246 q 321 -289 396 -289 z "},"ș":{"ha":763,"x_min":21,"x_max":742,"o":"m 442 869 q 658 817 592 869 q 724 683 724 765 q 690 599 724 632 q 594 565 656 565 q 499 580 550 565 q 383 594 449 594 q 337 583 353 594 q 321 554 321 572 q 338 524 321 536 q 415 506 356 513 q 594 472 521 497 q 704 395 667 447 q 742 251 742 343 q 641 56 742 117 q 361 -6 540 -6 q 163 19 238 -6 q 54 87 88 43 q 21 188 21 131 q 58 274 21 243 q 144 306 94 306 q 213 297 176 306 q 289 278 249 288 q 371 268 329 268 q 426 300 426 268 q 410 328 426 315 q 332 349 394 342 q 171 382 239 360 q 65 451 103 404 q 28 578 28 497 q 136 789 28 708 q 442 869 244 869 m 468 -310 q 371 -362 419 -362 q 339 -354 351 -362 q 326 -329 326 -346 q 335 -301 326 -319 q 374 -251 344 -282 q 264 -224 294 -250 q 233 -151 233 -197 q 247 -100 233 -125 q 292 -58 260 -75 q 382 -40 325 -40 q 488 -69 447 -40 q 528 -161 528 -99 q 514 -236 528 -196 q 468 -310 500 -276 z "},"ß":{"ha":906,"x_min":28,"x_max":885,"o":"m 601 700 q 572 751 601 732 q 490 771 542 771 q 376 727 413 771 q 339 593 339 683 q 341 483 339 546 q 346 353 343 421 q 351 224 349 286 q 356 113 354 161 q 358 43 358 65 q 319 -87 358 -33 q 197 -140 279 -140 q 74 -88 121 -140 q 28 61 28 -36 q 30 171 28 107 q 35 306 32 235 q 44 445 39 376 q 54 572 49 514 q 196 896 72 792 q 524 1000 319 1000 q 699 969 622 1000 q 820 878 776 939 q 864 731 864 818 q 809 596 864 653 q 656 507 754 539 q 827 411 769 469 q 885 263 885 353 q 847 123 885 183 q 743 28 810 63 q 588 -6 676 -6 q 445 38 490 -6 q 400 147 400 82 q 435 239 400 210 q 529 279 469 268 q 590 321 590 289 q 576 349 590 338 q 525 375 561 361 q 457 415 479 393 q 435 481 435 438 q 451 542 435 518 q 493 584 468 567 q 543 617 518 601 q 585 653 568 633 q 601 700 601 672 z "},"t":{"ha":769,"x_min":7,"x_max":763,"o":"m 574 178 q 530 38 574 89 q 396 -14 486 -14 q 280 20 322 -14 q 219 113 238 54 q 201 246 201 171 q 214 385 201 306 q 250 543 226 464 q 169 526 215 526 q 50 565 93 526 q 7 682 7 603 q 53 808 7 764 q 179 853 100 853 q 251 842 217 853 q 256 955 244 901 q 303 1042 267 1008 q 407 1075 340 1075 q 508 1043 476 1075 q 540 954 540 1011 q 514 842 540 890 q 603 860 556 860 q 719 826 675 860 q 763 710 763 792 q 713 594 763 633 q 588 554 663 554 q 540 557 565 554 q 489 565 514 560 q 531 440 511 510 q 562 300 550 369 q 574 178 574 231 z "},"ť":{"ha":769,"x_min":7,"x_max":886,"o":"m 574 178 q 530 38 574 89 q 396 -14 486 -14 q 280 20 322 -14 q 219 113 238 54 q 201 246 201 171 q 214 385 201 306 q 250 543 226 464 q 169 526 215 526 q 50 565 93 526 q 7 682 7 603 q 53 808 7 764 q 179 853 100 853 q 251 842 217 853 q 256 955 244 901 q 303 1042 267 1008 q 407 1075 340 1075 q 508 1043 476 1075 q 540 954 540 1011 q 514 842 540 890 q 603 860 556 860 q 719 826 675 860 q 763 710 763 792 q 713 594 763 633 q 588 554 663 554 q 540 557 565 554 q 489 565 514 560 q 531 440 511 510 q 562 300 550 369 q 574 178 574 231 m 640 936 q 622 996 622 951 q 632 1104 622 1040 q 653 1201 643 1157 q 688 1271 664 1244 q 742 1297 708 1294 q 808 1290 775 1300 q 861 1265 842 1281 q 885 1215 886 1246 q 857 1135 885 1185 q 814 1063 839 1100 q 763 993 789 1025 q 717 942 738 961 q 677 924 699 925 q 640 936 656 924 z "},"ț":{"ha":769,"x_min":7,"x_max":763,"o":"m 574 178 q 530 38 574 89 q 396 -14 486 -14 q 280 20 322 -14 q 219 113 238 54 q 201 246 201 171 q 214 385 201 306 q 250 543 226 464 q 169 526 215 526 q 50 565 93 526 q 7 682 7 603 q 53 808 7 764 q 179 853 100 853 q 251 842 217 853 q 256 955 244 901 q 303 1042 267 1008 q 407 1075 340 1075 q 508 1043 476 1075 q 540 954 540 1011 q 514 842 540 890 q 603 860 556 860 q 719 826 675 860 q 763 710 763 792 q 713 594 763 633 q 588 554 663 554 q 540 557 565 554 q 489 565 514 560 q 531 440 511 510 q 562 300 550 369 q 574 178 574 231 m 485 -310 q 388 -362 436 -362 q 356 -354 368 -362 q 343 -329 343 -346 q 352 -301 343 -319 q 390 -251 361 -282 q 281 -224 311 -250 q 250 -151 250 -197 q 263 -100 250 -125 q 309 -58 276 -75 q 399 -40 342 -40 q 504 -69 464 -40 q 544 -161 544 -99 q 531 -236 544 -196 q 485 -310 517 -276 z "},"u":{"ha":897,"x_min":28,"x_max":869,"o":"m 718 8 q 633 32 663 8 q 592 94 604 56 q 579 176 581 132 q 470 47 543 93 q 319 1 397 1 q 182 37 238 1 q 92 150 126 72 q 45 325 63 215 q 28 553 28 435 q 33 652 28 607 q 47 728 38 697 q 103 806 64 781 q 199 831 143 831 q 302 788 264 831 q 347 671 340 746 q 354 576 351 629 q 360 471 357 522 q 365 382 363 419 q 444 282 375 282 q 506 322 485 282 q 528 431 528 361 q 524 515 528 468 q 518 608 521 563 q 515 682 515 653 q 552 817 515 776 q 656 857 589 857 q 806 768 767 857 q 839 658 825 728 q 861 502 853 589 q 869 318 869 415 q 836 85 869 163 q 718 8 803 8 z "},"ú":{"ha":897,"x_min":28,"x_max":869,"o":"m 718 8 q 633 32 663 8 q 592 94 604 56 q 579 176 581 132 q 470 47 543 93 q 319 1 397 1 q 182 37 238 1 q 92 150 126 72 q 45 325 63 215 q 28 553 28 435 q 33 652 28 607 q 47 728 38 697 q 103 806 64 781 q 199 831 143 831 q 302 788 264 831 q 347 671 340 746 q 354 576 351 629 q 360 471 357 522 q 365 382 363 419 q 444 282 375 282 q 506 322 485 282 q 528 431 528 361 q 524 515 528 468 q 518 608 521 563 q 515 682 515 653 q 552 817 515 776 q 656 857 589 857 q 806 768 767 857 q 839 658 825 728 q 861 502 853 589 q 869 318 869 415 q 836 85 869 163 q 718 8 803 8 m 294 924 q 330 976 294 947 q 421 1038 365 1004 q 512 1083 469 1063 q 590 1103 554 1103 q 645 1081 622 1103 q 681 1031 668 1060 q 694 978 694 1001 q 669 931 694 949 q 586 900 643 913 q 501 887 547 892 q 412 880 454 882 q 343 878 369 878 q 308 892 321 878 q 294 924 294 906 z "},"ŭ":{"ha":897,"x_min":28,"x_max":869,"o":"m 718 8 q 633 32 663 8 q 592 94 604 56 q 579 176 581 132 q 470 47 543 93 q 319 1 397 1 q 182 37 238 1 q 92 150 126 72 q 45 325 63 215 q 28 553 28 435 q 33 652 28 607 q 47 728 38 697 q 103 806 64 781 q 199 831 143 831 q 302 788 264 831 q 347 671 340 746 q 354 576 351 629 q 360 471 357 522 q 365 382 363 419 q 444 282 375 282 q 506 322 485 282 q 528 431 528 361 q 524 515 528 468 q 518 608 521 563 q 515 682 515 653 q 552 817 515 776 q 656 857 589 857 q 806 768 767 857 q 839 658 825 728 q 861 502 853 589 q 869 318 869 415 q 836 85 869 163 q 718 8 803 8 m 439 879 q 280 926 338 879 q 222 1038 222 974 q 294 1108 222 1108 q 376 1042 361 1108 q 396 999 383 1013 q 438 985 408 985 q 476 997 464 985 q 494 1033 489 1008 q 525 1099 506 1075 q 583 1122 544 1122 q 638 1101 619 1122 q 656 1044 656 1081 q 599 929 656 979 q 439 879 543 879 z "},"û":{"ha":897,"x_min":28,"x_max":869,"o":"m 718 8 q 633 32 663 8 q 592 94 604 56 q 579 176 581 132 q 470 47 543 93 q 319 1 397 1 q 182 37 238 1 q 92 150 126 72 q 45 325 63 215 q 28 553 28 435 q 33 652 28 607 q 47 728 38 697 q 103 806 64 781 q 199 831 143 831 q 302 788 264 831 q 347 671 340 746 q 354 576 351 629 q 360 471 357 522 q 365 382 363 419 q 444 282 375 282 q 506 322 485 282 q 528 431 528 361 q 524 515 528 468 q 518 608 521 563 q 515 682 515 653 q 552 817 515 776 q 656 857 589 857 q 806 768 767 857 q 839 658 825 728 q 861 502 853 589 q 869 318 869 415 q 836 85 869 163 q 718 8 803 8 m 444 1124 q 508 1110 468 1124 q 589 1076 549 1097 q 666 1028 638 1051 q 694 975 694 1004 q 663 904 694 931 q 583 878 631 878 q 503 912 546 878 q 429 1006 461 946 q 339 903 383 935 q 263 871 294 871 q 206 893 228 871 q 183 947 183 915 q 214 1007 183 979 q 292 1065 244 1035 q 372 1106 332 1089 q 444 1124 413 1124 z "},"ü":{"ha":897,"x_min":28,"x_max":869,"o":"m 718 8 q 633 32 663 8 q 592 94 604 56 q 579 176 581 132 q 470 47 543 93 q 319 1 397 1 q 182 37 238 1 q 92 150 126 72 q 45 325 63 215 q 28 553 28 435 q 33 652 28 607 q 47 728 38 697 q 103 806 64 781 q 199 831 143 831 q 302 788 264 831 q 347 671 340 746 q 354 576 351 629 q 360 471 357 522 q 365 382 363 419 q 444 282 375 282 q 506 322 485 282 q 528 431 528 361 q 524 515 528 468 q 518 608 521 563 q 515 682 515 653 q 552 817 515 776 q 656 857 589 857 q 806 768 767 857 q 839 658 825 728 q 861 502 853 589 q 869 318 869 415 q 836 85 869 163 q 718 8 803 8 m 596 1106 q 694 1072 664 1106 q 724 993 724 1038 q 687 908 724 938 q 582 879 650 879 q 486 912 518 879 q 454 989 454 944 q 493 1076 454 1046 q 596 1106 532 1106 m 276 872 q 183 903 213 872 q 154 975 154 935 q 193 1062 154 1032 q 301 1092 232 1092 q 394 1058 364 1092 q 424 979 424 1025 q 383 899 424 926 q 276 872 342 872 z "},"ù":{"ha":897,"x_min":28,"x_max":869,"o":"m 718 8 q 633 32 663 8 q 592 94 604 56 q 579 176 581 132 q 470 47 543 93 q 319 1 397 1 q 182 37 238 1 q 92 150 126 72 q 45 325 63 215 q 28 553 28 435 q 33 652 28 607 q 47 728 38 697 q 103 806 64 781 q 199 831 143 831 q 302 788 264 831 q 347 671 340 746 q 354 576 351 629 q 360 471 357 522 q 365 382 363 419 q 444 282 375 282 q 506 322 485 282 q 528 431 528 361 q 524 515 528 468 q 518 608 521 563 q 515 682 515 653 q 552 817 515 776 q 656 857 589 857 q 806 768 767 857 q 839 658 825 728 q 861 502 853 589 q 869 318 869 415 q 836 85 869 163 q 718 8 803 8 m 583 924 q 571 892 583 906 q 535 878 558 878 q 466 880 508 878 q 378 887 424 882 q 292 900 332 892 q 209 931 235 913 q 183 978 183 949 q 197 1031 183 1001 q 233 1081 210 1060 q 288 1103 257 1103 q 367 1083 324 1103 q 457 1038 410 1063 q 549 976 514 1004 q 583 924 583 947 z "},"ű":{"ha":897,"x_min":28,"x_max":869,"o":"m 718 8 q 633 32 663 8 q 592 94 604 56 q 579 176 581 132 q 470 47 543 93 q 319 1 397 1 q 182 37 238 1 q 92 150 126 72 q 45 325 63 215 q 28 553 28 435 q 33 652 28 607 q 47 728 38 697 q 103 806 64 781 q 199 831 143 831 q 302 788 264 831 q 347 671 340 746 q 354 576 351 629 q 360 471 357 522 q 365 382 363 419 q 444 282 375 282 q 506 322 485 282 q 528 431 528 361 q 524 515 528 468 q 518 608 521 563 q 515 682 515 653 q 552 817 515 776 q 656 857 589 857 q 806 768 767 857 q 839 658 825 728 q 861 502 853 589 q 869 318 869 415 q 836 85 869 163 q 718 8 803 8 m 547 875 q 519 885 531 875 q 508 914 508 896 q 522 967 508 933 q 560 1042 536 1001 q 624 1137 593 1094 q 697 1179 654 1179 q 744 1166 719 1179 q 787 1133 769 1153 q 804 1094 804 1114 q 749 1008 804 1060 q 688 960 722 985 q 623 915 654 935 q 572 882 592 894 q 547 875 563 875 m 250 874 q 223 885 235 874 q 211 913 211 896 q 226 967 211 933 q 263 1040 240 1000 q 326 1135 296 1093 q 400 1178 357 1178 q 449 1165 424 1178 q 491 1133 474 1153 q 508 1093 508 1114 q 453 1007 508 1061 q 391 958 425 983 q 326 913 357 933 q 274 881 294 893 q 250 874 264 874 z "},"ū":{"ha":897,"x_min":28,"x_max":869,"o":"m 718 8 q 633 32 663 8 q 592 94 604 56 q 579 176 581 132 q 470 47 543 93 q 319 1 397 1 q 182 37 238 1 q 92 150 126 72 q 45 325 63 215 q 28 553 28 435 q 33 652 28 607 q 47 728 38 697 q 103 806 64 781 q 199 831 143 831 q 302 788 264 831 q 347 671 340 746 q 354 576 351 629 q 360 471 357 522 q 365 382 363 419 q 444 282 375 282 q 506 322 485 282 q 528 431 528 361 q 524 515 528 468 q 518 608 521 563 q 515 682 515 653 q 552 817 515 776 q 656 857 589 857 q 806 768 767 857 q 839 658 825 728 q 861 502 853 589 q 869 318 869 415 q 836 85 869 163 q 718 8 803 8 m 281 876 q 185 901 215 876 q 154 965 154 925 q 183 1027 154 1004 q 276 1065 211 1050 q 376 1083 321 1076 q 487 1092 431 1089 q 590 1094 543 1094 q 693 1069 663 1094 q 724 1001 724 1044 q 694 937 724 961 q 611 901 665 913 q 506 888 567 894 q 385 879 444 882 q 281 876 325 876 z "},"ų":{"ha":897,"x_min":28,"x_max":869,"o":"m 718 8 q 633 32 663 8 q 592 94 604 56 q 579 176 581 132 q 470 47 543 93 q 319 1 397 1 q 182 37 238 1 q 92 150 126 72 q 45 325 63 215 q 28 553 28 435 q 33 652 28 607 q 47 728 38 697 q 103 806 64 781 q 199 831 143 831 q 302 788 264 831 q 347 671 340 746 q 354 576 351 629 q 360 471 357 522 q 365 382 363 419 q 444 282 375 282 q 506 322 485 282 q 528 431 528 361 q 524 515 528 468 q 518 608 521 563 q 515 682 515 653 q 552 817 515 776 q 656 857 589 857 q 806 768 767 857 q 839 658 825 728 q 861 502 853 589 q 869 318 869 415 q 836 85 869 163 q 718 8 803 8 m 665 -293 q 527 -261 582 -293 q 472 -167 472 -229 q 517 -58 472 -106 q 664 39 561 -10 l 800 42 q 709 -43 743 1 q 675 -111 675 -87 q 694 -128 675 -128 q 721 -125 706 -128 q 751 -122 736 -122 q 803 -140 786 -122 q 819 -190 819 -158 q 779 -267 819 -242 q 665 -293 739 -293 z "},"ů":{"ha":897,"x_min":28,"x_max":869,"o":"m 718 8 q 633 32 663 8 q 592 94 604 56 q 579 176 581 132 q 470 47 543 93 q 319 1 397 1 q 182 37 238 1 q 92 150 126 72 q 45 325 63 215 q 28 553 28 435 q 33 652 28 607 q 47 728 38 697 q 103 806 64 781 q 199 831 143 831 q 302 788 264 831 q 347 671 340 746 q 354 576 351 629 q 360 471 357 522 q 365 382 363 419 q 444 282 375 282 q 506 322 485 282 q 528 431 528 361 q 524 515 528 468 q 518 608 521 563 q 515 682 515 653 q 552 817 515 776 q 656 857 589 857 q 806 768 767 857 q 839 658 825 728 q 861 502 853 589 q 869 318 869 415 q 836 85 869 163 q 718 8 803 8 m 436 875 q 303 905 356 875 q 250 997 250 935 q 302 1102 250 1061 q 453 1143 354 1143 q 585 1105 543 1143 q 626 1014 626 1067 q 576 914 626 953 q 436 875 525 875 m 428 960 q 499 972 469 960 q 528 1008 528 985 q 506 1047 528 1032 q 439 1061 485 1061 q 371 1044 393 1061 q 349 1007 349 1026 q 371 973 349 986 q 428 960 393 960 z "},"v":{"ha":824,"x_min":14,"x_max":810,"o":"m 168 874 q 284 833 244 874 q 343 704 324 792 q 372 581 356 656 q 403 424 388 506 q 428 276 418 343 l 433 276 q 458 419 446 344 q 481 562 471 494 q 496 672 490 629 q 538 809 506 768 q 639 850 571 850 q 765 801 719 850 q 810 649 810 753 q 798 510 810 583 q 765 367 786 438 q 715 236 743 296 q 586 56 661 121 q 407 -10 511 -10 q 262 35 326 -10 q 140 186 197 81 q 71 349 99 264 q 28 516 43 433 q 14 667 14 599 q 50 822 14 769 q 168 874 86 874 z "},"w":{"ha":1094,"x_min":14,"x_max":1081,"o":"m 14 564 q 63 772 14 708 q 194 836 113 836 q 278 806 249 836 q 320 726 308 776 q 332 614 332 676 q 328 490 332 564 q 319 354 325 417 l 325 354 q 394 584 358 501 q 467 701 431 667 q 538 735 504 735 q 612 701 575 735 q 686 587 649 667 q 760 368 724 507 l 765 368 q 756 518 760 439 q 751 661 751 597 q 793 818 751 768 q 910 868 835 868 q 1040 806 1000 868 q 1081 640 1081 744 q 1072 477 1081 564 q 1047 310 1063 390 q 1011 169 1032 229 q 935 35 981 81 q 821 -11 890 -11 q 720 21 772 -11 q 622 137 668 53 q 547 374 576 221 l 542 374 q 466 151 514 229 q 363 42 418 72 q 258 11 308 11 q 135 62 186 11 q 57 221 83 113 q 34 337 43 275 q 19 458 25 399 q 14 564 14 518 z "},"ẃ":{"ha":1094,"x_min":14,"x_max":1081,"o":"m 14 564 q 63 772 14 708 q 194 836 113 836 q 278 806 249 836 q 320 726 308 776 q 332 614 332 676 q 328 490 332 564 q 319 354 325 417 l 325 354 q 394 584 358 501 q 467 701 431 667 q 538 735 504 735 q 612 701 575 735 q 686 587 649 667 q 760 368 724 507 l 765 368 q 756 518 760 439 q 751 661 751 597 q 793 818 751 768 q 910 868 835 868 q 1040 806 1000 868 q 1081 640 1081 744 q 1072 477 1081 564 q 1047 310 1063 390 q 1011 169 1032 229 q 935 35 981 81 q 821 -11 890 -11 q 720 21 772 -11 q 622 137 668 53 q 547 374 576 221 l 542 374 q 466 151 514 229 q 363 42 418 72 q 258 11 308 11 q 135 62 186 11 q 57 221 83 113 q 34 337 43 275 q 19 458 25 399 q 14 564 14 518 m 403 939 q 438 991 403 963 q 529 1053 474 1019 q 620 1098 578 1078 q 699 1118 663 1118 q 753 1097 731 1118 q 790 1046 776 1075 q 803 993 803 1017 q 777 946 803 964 q 694 915 751 928 q 609 902 656 907 q 520 895 563 897 q 451 893 478 893 q 416 907 429 893 q 403 939 403 921 z "},"ŵ":{"ha":1094,"x_min":14,"x_max":1081,"o":"m 14 564 q 63 772 14 708 q 194 836 113 836 q 278 806 249 836 q 320 726 308 776 q 332 614 332 676 q 328 490 332 564 q 319 354 325 417 l 325 354 q 394 584 358 501 q 467 701 431 667 q 538 735 504 735 q 612 701 575 735 q 686 587 649 667 q 760 368 724 507 l 765 368 q 756 518 760 439 q 751 661 751 597 q 793 818 751 768 q 910 868 835 868 q 1040 806 1000 868 q 1081 640 1081 744 q 1072 477 1081 564 q 1047 310 1063 390 q 1011 169 1032 229 q 935 35 981 81 q 821 -11 890 -11 q 720 21 772 -11 q 622 137 668 53 q 547 374 576 221 l 542 374 q 466 151 514 229 q 363 42 418 72 q 258 11 308 11 q 135 62 186 11 q 57 221 83 113 q 34 337 43 275 q 19 458 25 399 q 14 564 14 518 m 553 1139 q 617 1126 576 1139 q 697 1092 657 1113 q 774 1043 746 1067 q 803 990 803 1019 q 771 919 803 946 q 692 893 739 893 q 612 927 654 893 q 538 1021 569 961 q 447 918 492 950 q 371 886 403 886 q 314 908 336 886 q 292 963 292 931 q 322 1022 292 994 q 400 1081 353 1050 q 481 1122 440 1104 q 553 1139 521 1139 z "},"ẅ":{"ha":1094,"x_min":14,"x_max":1081,"o":"m 14 564 q 63 772 14 708 q 194 836 113 836 q 278 806 249 836 q 320 726 308 776 q 332 614 332 676 q 328 490 332 564 q 319 354 325 417 l 325 354 q 394 584 358 501 q 467 701 431 667 q 538 735 504 735 q 612 701 575 735 q 686 587 649 667 q 760 368 724 507 l 765 368 q 756 518 760 439 q 751 661 751 597 q 793 818 751 768 q 910 868 835 868 q 1040 806 1000 868 q 1081 640 1081 744 q 1072 477 1081 564 q 1047 310 1063 390 q 1011 169 1032 229 q 935 35 981 81 q 821 -11 890 -11 q 720 21 772 -11 q 622 137 668 53 q 547 374 576 221 l 542 374 q 466 151 514 229 q 363 42 418 72 q 258 11 308 11 q 135 62 186 11 q 57 221 83 113 q 34 337 43 275 q 19 458 25 399 q 14 564 14 518 m 704 1121 q 802 1087 772 1121 q 832 1008 832 1053 q 795 924 832 953 q 690 894 758 894 q 594 927 626 894 q 563 1004 563 960 q 601 1091 563 1061 q 704 1121 640 1121 m 385 888 q 292 919 321 888 q 263 990 263 950 q 301 1077 263 1047 q 410 1107 340 1107 q 502 1074 472 1107 q 532 994 532 1040 q 491 915 532 942 q 385 888 450 888 z "},"ẁ":{"ha":1094,"x_min":14,"x_max":1081,"o":"m 14 564 q 63 772 14 708 q 194 836 113 836 q 278 806 249 836 q 320 726 308 776 q 332 614 332 676 q 328 490 332 564 q 319 354 325 417 l 325 354 q 394 584 358 501 q 467 701 431 667 q 538 735 504 735 q 612 701 575 735 q 686 587 649 667 q 760 368 724 507 l 765 368 q 756 518 760 439 q 751 661 751 597 q 793 818 751 768 q 910 868 835 868 q 1040 806 1000 868 q 1081 640 1081 744 q 1072 477 1081 564 q 1047 310 1063 390 q 1011 169 1032 229 q 935 35 981 81 q 821 -11 890 -11 q 720 21 772 -11 q 622 137 668 53 q 547 374 576 221 l 542 374 q 466 151 514 229 q 363 42 418 72 q 258 11 308 11 q 135 62 186 11 q 57 221 83 113 q 34 337 43 275 q 19 458 25 399 q 14 564 14 518 m 692 939 q 679 907 692 921 q 643 893 667 893 q 574 895 617 893 q 486 902 532 897 q 400 915 440 907 q 317 946 343 928 q 292 993 292 964 q 305 1046 292 1017 q 342 1097 318 1075 q 396 1118 365 1118 q 475 1098 432 1118 q 565 1053 518 1078 q 657 991 622 1019 q 692 939 692 963 z "},"x":{"ha":903,"x_min":8,"x_max":896,"o":"m 185 -12 q 58 38 108 -12 q 8 165 8 89 q 86 316 8 251 q 303 413 164 381 l 303 418 q 80 533 151 461 q 8 689 8 604 q 35 778 8 740 q 104 838 61 817 q 194 858 147 858 q 317 820 263 858 q 408 715 371 782 q 463 563 446 649 l 468 563 q 575 795 506 719 q 729 871 644 871 q 853 824 810 871 q 896 703 896 776 q 828 549 896 621 q 624 435 760 476 l 624 429 q 813 327 756 390 q 871 182 871 264 q 822 59 871 106 q 707 13 772 13 q 598 51 644 13 q 520 153 551 89 q 469 297 489 218 l 464 297 q 396 124 440 193 q 297 22 351 56 q 185 -12 242 -12 z "},"y":{"ha":865,"x_min":14,"x_max":851,"o":"m 238 -276 q 126 -149 126 -276 q 152 -42 126 -101 q 222 78 178 18 q 324 188 267 139 q 92 430 171 315 q 14 660 14 544 q 58 795 14 747 q 179 843 103 843 q 351 731 279 843 q 457 397 424 619 l 463 397 q 558 746 488 633 q 726 858 629 858 q 819 821 788 858 q 851 714 851 783 q 826 563 851 654 q 753 363 800 471 q 640 143 706 254 q 420 -176 514 -75 q 238 -276 326 -276 z "},"ý":{"ha":865,"x_min":14,"x_max":851,"o":"m 238 -276 q 126 -149 126 -276 q 152 -42 126 -101 q 222 78 178 18 q 324 188 267 139 q 92 430 171 315 q 14 660 14 544 q 58 795 14 747 q 179 843 103 843 q 351 731 279 843 q 457 397 424 619 l 463 397 q 558 746 488 633 q 726 858 629 858 q 819 821 788 858 q 851 714 851 783 q 826 563 851 654 q 753 363 800 471 q 640 143 706 254 q 420 -176 514 -75 q 238 -276 326 -276 m 275 928 q 310 980 275 951 q 401 1042 346 1008 q 492 1087 450 1067 q 571 1107 535 1107 q 626 1085 603 1107 q 662 1035 649 1064 q 675 982 675 1006 q 649 935 675 953 q 567 904 624 917 q 481 891 528 896 q 392 884 435 886 q 324 882 350 882 q 288 896 301 882 q 275 928 275 910 z "},"ŷ":{"ha":865,"x_min":14,"x_max":851,"o":"m 238 -276 q 126 -149 126 -276 q 152 -42 126 -101 q 222 78 178 18 q 324 188 267 139 q 92 430 171 315 q 14 660 14 544 q 58 795 14 747 q 179 843 103 843 q 351 731 279 843 q 457 397 424 619 l 463 397 q 558 746 488 633 q 726 858 629 858 q 819 821 788 858 q 851 714 851 783 q 826 563 851 654 q 753 363 800 471 q 640 143 706 254 q 420 -176 514 -75 q 238 -276 326 -276 m 425 1128 q 489 1115 449 1128 q 569 1081 529 1101 q 647 1032 618 1056 q 675 979 675 1008 q 643 908 675 935 q 564 882 611 882 q 484 916 526 882 q 410 1010 442 950 q 319 907 364 939 q 243 875 275 875 q 186 897 208 875 q 164 951 164 919 q 194 1011 164 983 q 272 1069 225 1039 q 353 1110 313 1093 q 425 1128 393 1128 z "},"ÿ":{"ha":865,"x_min":14,"x_max":851,"o":"m 238 -276 q 126 -149 126 -276 q 152 -42 126 -101 q 222 78 178 18 q 324 188 267 139 q 92 430 171 315 q 14 660 14 544 q 58 795 14 747 q 179 843 103 843 q 351 731 279 843 q 457 397 424 619 l 463 397 q 558 746 488 633 q 726 858 629 858 q 819 821 788 858 q 851 714 851 783 q 826 563 851 654 q 753 363 800 471 q 640 143 706 254 q 420 -176 514 -75 q 238 -276 326 -276 m 576 1110 q 674 1076 644 1110 q 704 997 704 1042 q 667 913 704 942 q 563 883 631 883 q 467 916 499 883 q 435 993 435 949 q 474 1080 435 1050 q 576 1110 513 1110 m 257 876 q 164 908 193 876 q 135 979 135 939 q 174 1066 135 1036 q 282 1096 213 1096 q 374 1063 344 1096 q 404 983 404 1029 q 363 903 404 931 q 257 876 322 876 z "},"ỳ":{"ha":865,"x_min":14,"x_max":851,"o":"m 238 -276 q 126 -149 126 -276 q 152 -42 126 -101 q 222 78 178 18 q 324 188 267 139 q 92 430 171 315 q 14 660 14 544 q 58 795 14 747 q 179 843 103 843 q 351 731 279 843 q 457 397 424 619 l 463 397 q 558 746 488 633 q 726 858 629 858 q 819 821 788 858 q 851 714 851 783 q 826 563 851 654 q 753 363 800 471 q 640 143 706 254 q 420 -176 514 -75 q 238 -276 326 -276 m 564 928 q 551 896 564 910 q 515 882 539 882 q 447 884 489 882 q 358 891 404 886 q 272 904 313 896 q 190 935 215 917 q 164 982 164 953 q 177 1035 164 1006 q 214 1085 190 1064 q 268 1107 238 1107 q 347 1087 304 1107 q 438 1042 390 1067 q 529 980 494 1008 q 564 928 564 951 z "},"z":{"ha":822,"x_min":28,"x_max":794,"o":"m 28 194 q 72 322 28 260 q 215 449 115 383 q 478 592 314 515 l 478 597 q 379 576 433 586 q 276 562 325 567 q 193 557 226 557 q 69 588 108 557 q 29 679 29 619 q 59 766 29 729 q 140 821 89 803 q 237 849 181 838 q 356 865 293 860 q 479 871 419 871 q 655 856 585 871 q 760 800 725 842 q 794 678 794 758 q 773 594 794 636 q 696 506 751 553 q 540 400 640 458 q 283 267 440 342 l 283 261 q 428 294 342 281 q 593 307 515 307 q 739 278 694 307 q 783 179 783 249 q 688 44 783 99 q 407 -10 592 -10 q 121 44 214 -10 q 28 194 28 99 z "},"ź":{"ha":822,"x_min":28,"x_max":794,"o":"m 28 194 q 72 322 28 260 q 215 449 115 383 q 478 592 314 515 l 478 597 q 379 576 433 586 q 276 562 325 567 q 193 557 226 557 q 69 588 108 557 q 29 679 29 619 q 59 766 29 729 q 140 821 89 803 q 237 849 181 838 q 356 865 293 860 q 479 871 419 871 q 655 856 585 871 q 760 800 725 842 q 794 678 794 758 q 773 594 794 636 q 696 506 751 553 q 540 400 640 458 q 283 267 440 342 l 283 261 q 428 294 342 281 q 593 307 515 307 q 739 278 694 307 q 783 179 783 249 q 688 44 783 99 q 407 -10 592 -10 q 121 44 214 -10 q 28 194 28 99 m 239 939 q 274 991 239 963 q 365 1053 310 1019 q 456 1098 414 1078 q 535 1118 499 1118 q 590 1097 567 1118 q 626 1046 613 1075 q 639 993 639 1017 q 613 946 639 964 q 531 915 588 928 q 445 902 492 907 q 356 895 399 897 q 288 893 314 893 q 252 907 265 893 q 239 939 239 921 z "},"ž":{"ha":822,"x_min":28,"x_max":794,"o":"m 28 194 q 72 322 28 260 q 215 449 115 383 q 478 592 314 515 l 478 597 q 379 576 433 586 q 276 562 325 567 q 193 557 226 557 q 69 588 108 557 q 29 679 29 619 q 59 766 29 729 q 140 821 89 803 q 237 849 181 838 q 356 865 293 860 q 479 871 419 871 q 655 856 585 871 q 760 800 725 842 q 794 678 794 758 q 773 594 794 636 q 696 506 751 553 q 540 400 640 458 q 283 267 440 342 l 283 261 q 428 294 342 281 q 593 307 515 307 q 739 278 694 307 q 783 179 783 249 q 688 44 783 99 q 407 -10 592 -10 q 121 44 214 -10 q 28 194 28 99 m 389 900 q 317 918 357 900 q 236 958 276 936 q 158 1017 189 989 q 128 1076 128 1046 q 150 1131 128 1108 q 207 1153 172 1153 q 283 1121 239 1153 q 374 1018 328 1089 q 448 1112 406 1078 q 528 1146 490 1146 q 607 1119 575 1146 q 639 1049 639 1093 q 610 996 639 1019 q 533 947 582 972 q 453 913 493 926 q 389 900 413 900 z "},"ż":{"ha":822,"x_min":28,"x_max":794,"o":"m 28 194 q 72 322 28 260 q 215 449 115 383 q 478 592 314 515 l 478 597 q 379 576 433 586 q 276 562 325 567 q 193 557 226 557 q 69 588 108 557 q 29 679 29 619 q 59 766 29 729 q 140 821 89 803 q 237 849 181 838 q 356 865 293 860 q 479 871 419 871 q 655 856 585 871 q 760 800 725 842 q 794 678 794 758 q 773 594 794 636 q 696 506 751 553 q 540 400 640 458 q 283 267 440 342 l 283 261 q 428 294 342 281 q 593 307 515 307 q 739 278 694 307 q 783 179 783 249 q 688 44 783 99 q 407 -10 592 -10 q 121 44 214 -10 q 28 194 28 99 m 397 1163 q 520 1122 483 1163 q 557 1029 557 1082 q 511 930 557 965 q 383 894 465 894 q 263 933 303 894 q 224 1025 224 972 q 272 1128 224 1093 q 397 1163 319 1163 z "},"ª":{"ha":578,"x_min":11,"x_max":556,"o":"m 446 544 q 385 559 406 544 q 360 603 365 574 q 197 542 306 542 q 57 588 103 542 q 11 696 11 633 q 67 809 11 767 q 214 851 122 851 q 285 843 253 851 q 343 821 317 835 q 313 883 336 865 q 251 901 290 901 q 181 889 221 901 q 104 876 142 876 q 46 897 67 876 q 25 947 25 917 q 60 1019 25 988 q 153 1068 96 1050 q 276 1086 210 1086 q 428 1055 364 1086 q 519 958 493 1024 q 547 853 539 911 q 556 731 556 796 q 530 583 556 621 q 446 544 504 544 m 275 678 q 323 688 300 678 q 346 718 346 699 q 328 746 346 738 q 282 754 310 754 q 232 743 250 754 q 214 714 214 732 q 275 678 214 678 z "},"º":{"ha":568,"x_min":3,"x_max":551,"o":"m 268 540 q 75 608 147 540 q 3 792 3 675 q 36 933 3 872 q 130 1027 69 993 q 271 1061 190 1061 q 419 1028 356 1061 q 517 937 482 996 q 551 800 551 878 q 474 610 551 681 q 268 540 397 540 m 281 724 q 331 747 313 724 q 350 810 350 769 q 331 873 350 850 q 281 896 313 896 q 228 873 247 896 q 210 810 210 850 q 228 747 210 769 q 281 724 247 724 z "},"₀":{"ha":611,"x_min":15,"x_max":596,"o":"m 294 -278 q 92 -202 168 -278 q 15 4 15 -126 q 51 165 15 96 q 153 272 88 233 q 306 310 218 310 q 459 274 394 310 q 560 173 524 238 q 596 22 596 108 q 514 -197 596 -117 q 294 -278 432 -278 m 308 -96 q 372 -68 349 -96 q 396 19 396 -40 q 372 101 396 75 q 308 126 349 126 q 246 101 269 126 q 222 19 222 75 q 246 -68 222 -40 q 308 -96 269 -96 z "},"₁":{"ha":360,"x_min":6,"x_max":333,"o":"m 210 304 q 267 289 243 304 q 306 236 290 274 q 325 153 317 206 q 333 25 333 100 q 322 -115 333 -44 q 296 -219 310 -186 q 260 -276 281 -258 q 208 -293 239 -293 q 119 -218 139 -293 q 111 -167 114 -196 q 108 -104 108 -137 q 116 -3 108 -56 q 138 99 124 50 q 68 74 103 74 q 22 92 39 74 q 6 140 6 110 q 37 216 6 178 q 115 279 68 254 q 210 304 163 304 z "},"₂":{"ha":486,"x_min":15,"x_max":471,"o":"m 243 300 q 414 253 357 300 q 471 131 471 206 q 422 2 471 58 q 276 -100 372 -54 q 408 -127 368 -101 q 449 -199 449 -153 q 317 -294 449 -294 q 206 -289 269 -294 q 93 -269 142 -283 q 33 -237 51 -258 q 15 -178 15 -217 q 50 -100 15 -133 q 157 -21 85 -67 q 250 42 222 21 q 278 86 278 64 q 266 107 278 100 q 225 114 254 114 q 199 112 213 114 q 172 107 186 110 q 138 101 156 104 q 99 99 119 99 q 18 167 18 99 q 80 260 18 221 q 243 300 142 300 z "},"₃":{"ha":496,"x_min":14,"x_max":475,"o":"m 251 308 q 408 269 346 308 q 471 151 471 231 q 442 65 471 104 q 357 4 414 26 q 445 -43 415 -10 q 475 -125 475 -76 q 411 -244 475 -196 q 222 -293 347 -293 q 59 -261 104 -293 q 14 -183 14 -229 q 35 -127 14 -150 q 96 -104 57 -104 q 124 -106 110 -104 q 154 -111 139 -108 q 182 -117 168 -114 q 208 -119 196 -119 q 260 -96 260 -119 q 247 -76 260 -83 q 189 -61 233 -68 q 131 -42 151 -54 q 111 -6 111 -31 q 133 38 111 21 q 193 65 154 54 q 245 88 229 78 q 261 111 261 99 q 218 131 261 131 q 190 128 204 131 q 161 122 176 125 q 131 117 147 119 q 99 115 115 115 q 18 183 18 115 q 83 272 18 235 q 251 308 149 308 z "},"₄":{"ha":543,"x_min":6,"x_max":538,"o":"m 304 -299 q 201 -218 201 -299 q 217 -160 201 -192 q 115 -172 168 -172 q 6 -68 6 -172 q 17 9 6 -35 q 50 99 29 53 q 94 182 71 144 q 189 285 138 249 q 317 321 240 321 q 429 286 396 321 q 463 186 463 251 q 455 106 463 151 q 433 13 447 60 q 451 14 443 14 q 538 -71 538 14 q 511 -137 538 -114 q 442 -160 485 -160 q 415 -157 429 -160 q 422 -203 422 -181 q 391 -274 422 -250 q 304 -299 360 -299 m 183 -8 q 242 27 219 -8 q 264 122 264 63 q 246 160 264 160 q 203 140 224 160 q 169 90 182 119 q 156 31 156 60 q 163 0 156 8 q 183 -8 169 -8 z "},"₅":{"ha":488,"x_min":14,"x_max":467,"o":"m 467 199 q 438 131 467 157 q 356 106 408 106 q 289 108 328 106 q 215 117 250 111 q 206 60 213 86 q 238 61 222 61 q 409 15 353 61 q 465 -108 465 -31 q 404 -240 465 -186 q 222 -293 343 -293 q 59 -261 104 -293 q 14 -183 14 -229 q 38 -127 14 -150 q 104 -104 61 -104 q 161 -112 128 -104 q 218 -119 194 -119 q 268 -92 268 -119 q 197 -60 268 -60 q 172 -60 189 -60 q 140 -61 156 -61 q 119 -61 124 -61 q 60 -45 79 -61 q 42 11 42 -29 q 44 80 42 40 q 51 159 47 119 q 60 224 56 199 q 88 282 67 261 q 151 303 108 303 q 259 300 196 303 q 367 290 322 297 q 467 199 467 274 z "},"₆":{"ha":529,"x_min":11,"x_max":519,"o":"m 478 221 q 321 79 478 136 q 469 23 418 74 q 519 -100 519 -28 q 485 -204 519 -161 q 394 -269 451 -247 q 265 -292 336 -292 q 72 -238 133 -292 q 11 -100 11 -185 q 45 47 11 -19 q 151 192 79 114 q 269 288 218 261 q 374 314 319 314 q 449 288 421 314 q 478 221 478 263 m 274 -46 q 213 -58 233 -46 q 192 -89 192 -71 q 265 -124 192 -124 q 321 -111 301 -124 q 340 -79 340 -99 q 274 -46 340 -46 z "},"₇":{"ha":468,"x_min":6,"x_max":463,"o":"m 149 304 q 248 303 193 304 q 354 296 303 301 q 433 269 404 290 q 463 206 463 249 q 451 142 463 186 q 413 35 440 99 q 326 -154 364 -82 q 247 -260 288 -226 q 151 -293 207 -293 q 89 -270 113 -293 q 65 -204 65 -247 q 74 -158 65 -186 q 100 -99 82 -129 q 163 -3 124 -56 q 251 100 203 50 q 133 94 186 94 q 6 192 6 97 q 44 277 6 250 q 149 304 83 304 z "},"₈":{"ha":571,"x_min":21,"x_max":550,"o":"m 292 315 q 478 272 415 315 q 542 149 542 229 q 522 67 542 103 q 467 8 501 32 q 528 -41 507 -8 q 550 -121 550 -74 q 480 -248 550 -203 q 260 -293 410 -293 q 74 -249 128 -293 q 21 -136 21 -206 q 103 -1 21 -46 q 54 47 72 15 q 36 121 36 78 q 70 229 36 186 q 163 294 104 272 q 292 315 221 315 m 357 114 q 338 140 357 132 q 288 147 318 147 q 204 107 204 147 q 219 81 204 90 q 272 72 233 72 q 357 114 357 72 m 289 -50 q 222 -62 243 -50 q 201 -93 201 -75 q 281 -128 201 -128 q 347 -117 328 -128 q 367 -86 367 -106 q 351 -60 367 -69 q 289 -50 336 -50 z "},"₉":{"ha":539,"x_min":11,"x_max":528,"o":"m 25 -183 q 57 -120 25 -144 q 144 -96 89 -96 q 172 -97 151 -96 q 211 -98 192 -97 q 236 -99 231 -99 q 306 -82 288 -99 q 324 -40 324 -65 q 274 -53 300 -50 q 225 -57 249 -57 q 65 -8 119 -57 q 11 114 11 42 q 77 262 11 210 q 247 314 143 314 q 453 240 378 314 q 528 32 528 167 q 506 -97 528 -39 q 451 -194 485 -154 q 344 -269 408 -247 q 208 -292 279 -292 q 72 -262 118 -292 q 25 -183 25 -233 m 263 146 q 206 134 228 146 q 185 100 185 122 q 258 60 185 60 q 333 107 333 60 q 315 135 333 124 q 263 146 297 146 z "},"⁰":{"ha":611,"x_min":15,"x_max":596,"o":"m 294 556 q 92 631 168 556 q 15 838 15 707 q 51 998 15 929 q 153 1105 88 1067 q 306 1143 218 1143 q 459 1107 394 1143 q 560 1006 524 1071 q 596 856 596 942 q 514 636 596 717 q 294 556 432 556 m 308 738 q 372 765 349 738 q 396 853 396 793 q 372 934 396 908 q 308 960 349 960 q 246 934 269 960 q 222 853 222 908 q 246 765 222 793 q 308 738 269 738 z "},"¹":{"ha":360,"x_min":6,"x_max":333,"o":"m 210 1138 q 267 1122 243 1138 q 306 1069 290 1107 q 325 986 317 1039 q 333 858 333 933 q 322 718 333 789 q 296 614 310 647 q 260 558 281 575 q 208 540 239 540 q 119 615 139 540 q 111 667 114 638 q 108 729 108 696 q 116 831 108 778 q 138 932 124 883 q 68 907 103 907 q 22 925 39 907 q 6 974 6 943 q 37 1049 6 1011 q 115 1113 68 1088 q 210 1138 163 1138 z "},"²":{"ha":486,"x_min":15,"x_max":471,"o":"m 243 1133 q 414 1086 357 1133 q 471 964 471 1039 q 422 835 471 892 q 276 733 372 779 q 408 706 368 732 q 449 635 449 681 q 317 539 449 539 q 206 544 269 539 q 93 564 142 550 q 33 596 51 575 q 15 656 15 617 q 50 733 15 700 q 157 813 85 767 q 250 876 222 854 q 278 919 278 897 q 266 940 278 933 q 225 947 254 947 q 199 945 213 947 q 172 940 186 943 q 138 935 156 938 q 99 932 119 932 q 18 1000 18 932 q 80 1094 18 1054 q 243 1133 142 1133 z "},"³":{"ha":496,"x_min":14,"x_max":475,"o":"m 251 1142 q 408 1103 346 1142 q 471 985 471 1064 q 442 899 471 938 q 357 838 414 860 q 445 790 415 824 q 475 708 475 757 q 411 589 475 638 q 222 540 347 540 q 59 572 104 540 q 14 650 14 604 q 35 706 14 683 q 96 729 57 729 q 124 727 110 729 q 154 722 139 725 q 182 717 168 719 q 208 714 196 714 q 260 738 260 714 q 247 758 260 750 q 189 772 233 765 q 131 791 151 779 q 111 828 111 803 q 133 871 111 854 q 193 899 154 888 q 245 922 229 911 q 261 944 261 932 q 218 964 261 964 q 190 961 204 964 q 161 956 176 958 q 131 951 147 953 q 99 949 115 949 q 18 1017 18 949 q 83 1105 18 1068 q 251 1142 149 1142 z "},"⁴":{"ha":543,"x_min":6,"x_max":538,"o":"m 304 535 q 201 615 201 535 q 217 674 201 642 q 115 661 168 661 q 6 765 6 661 q 17 842 6 799 q 50 932 29 886 q 94 1015 71 978 q 189 1118 138 1082 q 317 1154 240 1154 q 429 1119 396 1154 q 463 1019 463 1085 q 455 939 463 985 q 433 846 447 893 q 451 847 443 847 q 538 763 538 847 q 511 697 538 719 q 442 674 485 674 q 415 676 429 674 q 422 631 422 653 q 391 559 422 583 q 304 535 360 535 m 183 825 q 242 860 219 825 q 264 956 264 896 q 246 993 264 993 q 203 973 224 993 q 169 923 182 953 q 156 864 156 893 q 163 833 156 842 q 183 825 169 825 z "},"⁵":{"ha":488,"x_min":14,"x_max":467,"o":"m 467 1032 q 438 965 467 990 q 356 939 408 939 q 289 942 328 939 q 215 950 250 944 q 206 893 213 919 q 238 894 222 894 q 409 849 353 894 q 465 725 465 803 q 404 594 465 647 q 222 540 343 540 q 59 572 104 540 q 14 650 14 604 q 38 706 14 683 q 104 729 61 729 q 161 722 128 729 q 218 714 194 714 q 268 742 268 714 q 197 774 268 774 q 172 773 189 774 q 140 772 156 772 q 119 772 124 772 q 60 788 79 772 q 42 844 42 804 q 44 913 42 874 q 51 992 47 953 q 60 1057 56 1032 q 88 1115 67 1094 q 151 1136 108 1136 q 259 1133 196 1136 q 367 1124 322 1131 q 467 1032 467 1107 z "},"⁶":{"ha":529,"x_min":11,"x_max":519,"o":"m 478 1054 q 321 913 478 969 q 469 856 418 907 q 519 733 519 806 q 485 629 519 672 q 394 564 451 586 q 265 542 336 542 q 72 595 133 542 q 11 733 11 649 q 45 881 11 814 q 151 1025 79 947 q 269 1121 218 1094 q 374 1147 319 1147 q 449 1122 421 1147 q 478 1054 478 1096 m 274 788 q 213 775 233 788 q 192 744 192 763 q 265 710 192 710 q 321 722 301 710 q 340 754 340 735 q 274 788 340 788 z "},"⁷":{"ha":468,"x_min":6,"x_max":463,"o":"m 149 1138 q 248 1136 193 1138 q 354 1129 303 1135 q 433 1103 404 1124 q 463 1039 463 1082 q 451 976 463 1019 q 413 868 440 932 q 326 679 364 751 q 247 574 288 607 q 151 540 207 540 q 89 563 113 540 q 65 629 65 586 q 74 676 65 647 q 100 735 82 704 q 163 831 124 778 q 251 933 203 883 q 133 928 186 928 q 6 1025 6 931 q 44 1110 6 1083 q 149 1138 83 1138 z "},"⁸":{"ha":571,"x_min":21,"x_max":550,"o":"m 292 1149 q 478 1106 415 1149 q 542 982 542 1063 q 522 901 542 936 q 467 842 501 865 q 528 792 507 825 q 550 713 550 760 q 480 585 550 631 q 260 540 410 540 q 74 584 128 540 q 21 697 21 628 q 103 832 21 788 q 54 880 72 849 q 36 954 36 911 q 70 1063 36 1019 q 163 1127 104 1106 q 292 1149 221 1149 m 357 947 q 338 973 357 965 q 288 981 318 981 q 204 940 204 981 q 219 915 204 924 q 272 906 233 906 q 357 947 357 906 m 289 783 q 222 771 243 783 q 201 740 201 758 q 281 706 201 706 q 347 717 328 706 q 367 747 367 728 q 351 774 367 764 q 289 783 336 783 z "},"⁹":{"ha":539,"x_min":11,"x_max":528,"o":"m 25 650 q 57 713 25 689 q 144 738 89 738 q 172 737 151 738 q 211 735 192 736 q 236 735 231 735 q 306 751 288 735 q 324 793 324 768 q 274 780 300 783 q 225 776 249 776 q 65 826 119 776 q 11 947 11 875 q 77 1095 11 1043 q 247 1147 143 1147 q 453 1074 378 1147 q 528 865 528 1000 q 506 737 528 794 q 451 639 485 679 q 344 564 408 586 q 208 542 279 542 q 72 571 118 542 q 25 650 25 600 m 263 979 q 206 967 228 979 q 185 933 185 956 q 258 893 185 893 q 333 940 333 893 q 315 968 333 957 q 263 979 297 979 z "},"⁄":{"ha":213,"x_min":-208,"x_max":449,"o":"m -100 -19 q -181 17 -154 -19 q -208 101 -208 54 q -175 227 -208 158 q -92 380 -142 296 q 6 564 -42 464 q 94 765 60 676 q 156 922 129 854 q 211 1032 182 989 q 276 1099 243 1079 q 344 1118 310 1118 q 424 1081 400 1118 q 449 1000 449 1044 q 412 863 449 938 q 318 696 375 789 q 200 481 261 603 q 131 324 161 403 q 74 176 100 246 q 19 57 47 107 q -28 3 1 25 q -100 -19 -58 -19 z "},"⅟":{"ha":572,"x_min":6,"x_max":808,"o":"m 210 1083 q 267 1068 243 1083 q 306 1015 290 1053 q 325 932 317 985 q 333 804 333 879 q 322 664 333 735 q 296 560 310 593 q 260 503 281 521 q 208 486 239 486 q 119 561 139 486 q 111 613 114 583 q 108 675 108 642 q 116 776 108 724 q 138 878 124 829 q 68 853 103 853 q 22 871 39 853 q 6 919 6 889 q 37 995 6 957 q 115 1058 68 1033 q 210 1083 163 1083 m 260 -19 q 178 17 206 -19 q 151 101 151 54 q 185 227 151 158 q 268 380 218 296 q 365 564 318 464 q 454 765 419 676 q 515 922 489 854 q 571 1032 542 989 q 636 1099 603 1079 q 704 1118 669 1118 q 784 1081 760 1118 q 808 1000 808 1044 q 772 863 808 938 q 678 696 735 789 q 560 481 621 603 q 490 324 521 403 q 433 176 460 246 q 379 57 407 107 q 331 3 361 25 q 260 -19 301 -19 z "},"½":{"ha":1058,"x_min":6,"x_max":1043,"o":"m 210 1083 q 267 1068 243 1083 q 306 1015 290 1053 q 325 932 317 985 q 333 804 333 879 q 322 664 333 735 q 296 560 310 593 q 260 503 281 521 q 208 486 239 486 q 119 561 139 486 q 111 613 114 583 q 108 675 108 642 q 116 776 108 724 q 138 878 124 829 q 68 853 103 853 q 22 871 39 853 q 6 919 6 889 q 37 995 6 957 q 115 1058 68 1033 q 210 1083 163 1083 m 260 -19 q 178 17 206 -19 q 151 101 151 54 q 185 227 151 158 q 268 380 218 296 q 365 564 318 464 q 454 765 419 676 q 515 922 489 854 q 571 1032 542 989 q 636 1099 603 1079 q 704 1118 669 1118 q 784 1081 760 1118 q 808 1000 808 1044 q 772 863 808 938 q 678 696 735 789 q 560 481 621 603 q 490 324 521 403 q 433 176 460 246 q 379 57 407 107 q 331 3 361 25 q 260 -19 301 -19 m 815 578 q 986 531 929 578 q 1043 408 1043 483 q 994 280 1043 336 q 849 178 944 224 q 981 151 940 176 q 1021 79 1021 125 q 889 -17 1021 -17 q 778 -11 842 -17 q 665 8 714 -6 q 606 40 624 19 q 588 100 588 61 q 622 178 588 144 q 729 257 657 211 q 822 320 794 299 q 850 364 850 342 q 838 385 850 378 q 797 392 826 392 q 772 390 785 392 q 744 385 758 388 q 710 379 728 382 q 671 376 692 376 q 590 444 590 376 q 652 538 590 499 q 815 578 714 578 z "},"⅓":{"ha":1068,"x_min":6,"x_max":1047,"o":"m 210 1083 q 267 1068 243 1083 q 306 1015 290 1053 q 325 932 317 985 q 333 804 333 879 q 322 664 333 735 q 296 560 310 593 q 260 503 281 521 q 208 486 239 486 q 119 561 139 486 q 111 613 114 583 q 108 675 108 642 q 116 776 108 724 q 138 878 124 829 q 68 853 103 853 q 22 871 39 853 q 6 919 6 889 q 37 995 6 957 q 115 1058 68 1033 q 210 1083 163 1083 m 260 -19 q 178 17 206 -19 q 151 101 151 54 q 185 227 151 158 q 268 380 218 296 q 365 564 318 464 q 454 765 419 676 q 515 922 489 854 q 571 1032 542 989 q 636 1099 603 1079 q 704 1118 669 1118 q 784 1081 760 1118 q 808 1000 808 1044 q 772 863 808 938 q 678 696 735 789 q 560 481 621 603 q 490 324 521 403 q 433 176 460 246 q 379 57 407 107 q 331 3 361 25 q 260 -19 301 -19 m 824 586 q 981 547 918 586 q 1043 429 1043 508 q 1015 343 1043 382 q 929 282 986 304 q 1017 235 988 268 q 1047 153 1047 201 q 983 33 1047 82 q 794 -15 919 -15 q 631 17 676 -15 q 586 94 586 49 q 608 151 586 128 q 668 174 629 174 q 697 172 682 174 q 726 167 711 169 q 754 161 740 164 q 781 158 768 158 q 832 182 832 158 q 819 202 832 194 q 761 217 806 210 q 703 235 724 224 q 683 272 683 247 q 705 315 683 299 q 765 343 726 332 q 817 366 801 356 q 833 389 833 376 q 790 408 833 408 q 763 406 776 408 q 733 400 749 403 q 703 395 719 397 q 671 393 688 393 q 590 461 590 393 q 656 549 590 513 q 824 586 721 586 z "}}}
